<svg width="196" height="50" viewBox="0 0 196 50" fill="none" xmlns="http://www.w3.org/2000/svg">
<path fill-rule="evenodd" clip-rule="evenodd" d="M31.4558 1.25856H33.9311L55.5547 38.711V38.7129L50.8988 46.6502L31.9748 46.6464L33.8931 49.9544H33.0585L31.1402 46.6464L7.66684 46.6445H7.64973L6.4482 44.5361H4.95771L0.661133 37.0951L0.664935 37.0932V37.0913L6.17824 27.5399L11.279 24.597L19.7182 9.97909L18.0204 7.04183L22.087 0H30.7296L31.4558 1.25856ZM27.1763 12.9297L12.2486 38.7186H26.5414L24.8893 35.8688L40.4615 35.8821L27.1763 12.9297ZM101.648 15.6388H91.6687V23.9335H97.3798V25.8688H91.6687V36.2757H89.5889V13.6806H101.648V15.6388ZM153.665 36.2757H151.562V13.6806H153.665V36.2757ZM124.334 36.2757H122.23V13.6806H124.334V36.2757ZM117.969 15.6388H107.99V23.9335H113.699V25.8688H107.99V36.2757H105.908V13.6806H117.969V15.6388ZM172.051 15.6388H166.051V36.2757H163.946V15.6388H157.914V13.6806H172.051V15.6388ZM130.682 36.2757H128.6V13.6806H130.838L145.182 32.7319V13.6806H147.289V36.2757H145.235L130.682 16.8859V36.2757ZM185.591 36.2757H183.463V30.7491L173.718 13.6806H176.117L184.528 28.3251L192.939 13.6806H195.338L185.591 30.7491V36.2757ZM87.7296 36.2757H85.4881L76.7391 16.5551C76.1916 17.8156 70.8646 29.9297 70.2961 31.211C71.4121 31.211 80.9596 31.3061 81.5071 31.3099L82.3779 33.2091C80.4729 33.1977 71.9368 33.1711 69.4102 33.1711C69.1801 33.6578 68.2106 35.8099 68.0204 36.2757H65.779L75.7904 13.6806H77.7163L87.7296 36.2757Z" fill="black"/>
</svg>
