<svg xmlns="http://www.w3.org/2000/svg" xmlns:xlink="http://www.w3.org/1999/xlink" id="Layer_1" x="0px" y="0px" viewBox="0 0 456.2 213.4" style="enable-background:new 0 0 456.2 213.4;" xml:space="preserve">
<style type="text/css">
	.st0{fill:#E6174B;}
</style>
<g>
	<path class="st0" d="M133.7,128.2V85c3-0.5,5.3-3.1,5.3-6.2c0-3.5-2.8-6.3-6.3-6.3c-2,0-3.7,0.9-4.9,2.3L12.3,8.5   c0.3-0.7,0.4-1.4,0.4-2.2C12.7,2.8,9.8,0,6.3,0C2.8,0,0,2.8,0,6.3c0,3.1,2.3,5.8,5.3,6.2v43.3C2.3,56.4,0,59,0,62.2   c0,3.5,2.8,6.3,6.3,6.3c2,0,3.8-1,5-2.4L78,104.3c-0.3,0.7-0.4,1.4-0.4,2.2c0,0.9,0.2,1.7,0.5,2.4l-66.9,38.4   c-1.2-1.4-2.9-2.3-4.9-2.3c-3.5,0-6.3,2.8-6.3,6.3c0,3.1,2.3,5.7,5.3,6.2v43.1c-3,0.5-5.3,3.1-5.3,6.2c0,3.5,2.8,6.3,6.3,6.3   c3.5,0,6.3-2.8,6.3-6.3c0-0.8-0.1-1.5-0.4-2.2l115.5-66.3c1.2,1.4,2.9,2.2,4.8,2.2c3.5,0,6.3-2.8,6.3-6.3   C139,131.3,136.7,128.7,133.7,128.2 M127.7,130.4l-37.8-21.7c0.3-0.7,0.4-1.4,0.4-2.2c0-0.7-0.1-1.4-0.3-2l37.8-21.7   c0.9,1.1,2.3,1.9,3.8,2.2v43.2C130,128.5,128.7,129.3,127.7,130.4 M126.7,76.6c-0.3,0.7-0.4,1.4-0.4,2.2c0,0.8,0.2,1.6,0.4,2.3   L89,102.7c-1.2-1.5-3-2.5-5-2.5c-1.1,0-2.2,0.3-3.1,0.8l-40.2-52c1.1-1.1,1.7-2.6,1.7-4.3c0-3.5-2.8-6.3-6.3-6.3   c-1.1,0-2.1,0.3-3,0.8L11,10.6c0.1-0.1,0.2-0.2,0.3-0.3L126.7,76.6z M7.4,55.9V12.6c0.7-0.1,1.4-0.3,2-0.7l22,28.5   c-1.1,1.1-1.7,2.6-1.7,4.3c0,0.8,0.2,1.5,0.4,2.2l-19,11C10.2,56.9,8.9,56.2,7.4,55.9 M12.3,64.3c0.2-0.7,0.4-1.3,0.4-2.1   c0-0.8-0.2-1.6-0.5-2.4l18.9-11c1.2,1.4,2.9,2.3,4.9,2.3c1.1,0,2.1-0.3,3-0.8l40.2,52c-0.1,0.1-0.1,0.1-0.2,0.2L12.3,64.3z    M79.2,110.7c0,0,0.1,0.1,0.1,0.1L39,163c-0.9-0.5-1.9-0.8-3-0.8c-2,0-3.7,0.9-4.9,2.3l-18.9-11c0.3-0.7,0.4-1.4,0.4-2.2   c0-0.8-0.2-1.5-0.4-2.2L79.2,110.7z M9.3,201.4c-0.6-0.3-1.3-0.5-2-0.7v-43.1c1.5-0.3,2.9-1.1,3.9-2.2l18.9,11   c-0.3,0.7-0.4,1.5-0.4,2.2c0,1.7,0.6,3.2,1.7,4.3L9.3,201.4z M11.2,203c-0.1-0.1-0.2-0.2-0.3-0.3l22-28.5c0.9,0.5,1.9,0.8,3,0.8   c3.5,0,6.3-2.8,6.3-6.3c0-1.7-0.6-3.2-1.7-4.3L81,112.1c0.9,0.5,1.9,0.8,3,0.8c2,0,3.7-0.9,4.9-2.3l37.8,21.7   c-0.3,0.7-0.4,1.4-0.4,2.2c0,0.8,0.2,1.6,0.4,2.3L11.2,203z"/>
	<path class="st0" d="M172.8,99.5V67.8c4.2-0.3,8.1-0.4,11.8-0.4c4.8,0,8.1,1.2,10.1,3.5c1.9,2.4,2.9,6.6,2.9,12.7   c0,6.1-1,10.3-2.9,12.7c-1.9,2.4-5.3,3.5-10.1,3.5C181,99.9,177,99.7,172.8,99.5 M178.6,72.2V95c2.4,0.1,4.4,0.1,6.1,0.1   c2.6,0,4.4-0.8,5.4-2.4c1-1.6,1.5-4.6,1.5-9c0-4.3-0.5-7.3-1.5-9c-1-1.7-2.8-2.5-5.4-2.5c-0.8,0-1.9,0-3.2,0   C180.1,72.2,179.1,72.2,178.6,72.2"/>
	<path class="st0" d="M204.8,67.2h2.6c1.1,0,1.6,0.5,1.6,1.6v2.5c0,1.1-0.5,1.6-1.6,1.6h-2.6c-1.1,0-1.6-0.5-1.6-1.6v-2.5   C203.2,67.8,203.8,67.2,204.8,67.2 M208.9,99.5h-5.5V77h5.5V99.5z"/>
	<path class="st0" d="M237.2,79.7l-2.9,0.3c0.4,1,0.6,2.2,0.6,3.6c0,2.6-0.7,4.5-2.2,5.6c-1.5,1.1-4.1,1.7-7.9,1.7   c-1.6,0-3-0.1-4.1-0.3c-0.4,0.5-0.4,1.2-0.2,1.9c0.2,0.7,0.7,1.1,1.6,1.2l8.2,1.1c2.2,0.3,3.8,1,4.7,2c1,1,1.4,2.6,1.4,4.5   c0,2.7-0.8,4.6-2.5,5.7c-1.6,1-4.6,1.5-8.9,1.5c-4.3,0-7.3-0.5-8.9-1.5c-1.6-1-2.4-2.8-2.4-5.4c0-1.2,0.3-2.1,0.8-2.8   c0.6-0.7,1.4-1.4,2.7-2.1c-1-0.9-1.4-2.2-1.3-3.6c0.2-1.5,0.8-2.6,1.9-3.3c-2.1-1-3.2-3-3.2-6c0-2.7,0.8-4.5,2.2-5.6   c1.5-1.1,4.1-1.6,7.9-1.6c2.2,0,4.1,0.2,5.6,0.6h7.1L237.2,79.7z M227.1,98.6l-6.4-0.8c-1.2,1.1-1.7,2.1-1.7,3.2   c0,1.3,0.4,2.1,1.1,2.5c0.7,0.3,2.4,0.5,4.8,0.5s4.1-0.2,4.9-0.5c0.8-0.4,1.1-1.2,1.1-2.4c0-0.9-0.2-1.5-0.7-1.8   C229.8,99,228.8,98.8,227.1,98.6 M220.8,86.2c0.7,0.5,2,0.7,3.9,0.7c1.9,0,3.2-0.2,3.9-0.7c0.7-0.5,1.1-1.4,1.1-2.6   c0-1.3-0.4-2.1-1.1-2.6c-0.7-0.5-2-0.7-3.9-0.7c-1.9,0-3.2,0.2-3.9,0.7c-0.7,0.5-1.1,1.3-1.1,2.6C219.7,84.9,220,85.7,220.8,86.2"/>
	<path class="st0" d="M243,67.2h2.6c1.1,0,1.6,0.5,1.6,1.6v2.5c0,1.1-0.5,1.6-1.6,1.6H243c-1.1,0-1.6-0.5-1.6-1.6v-2.5   C241.4,67.8,241.9,67.2,243,67.2 M247.1,99.5h-5.5V77h5.5V99.5z"/>
	<path class="st0" d="M260.9,81v11.4c0,1,0.2,1.7,0.6,2c0.4,0.4,1.1,0.6,2.1,0.6h3.1l0.6,4.1c-1.6,0.5-3.5,0.8-5.8,0.8   c-2,0-3.5-0.6-4.5-1.7c-1.1-1.1-1.6-2.7-1.6-4.9V81h-4.1v-3.8l4-0.2v-6.5h5.5V77h6.6v4H260.9z"/>
	<path class="st0" d="M272.2,81.4l-0.6-3.9c3.9-0.7,7.7-1.1,11.2-1.1c2.9,0,5,0.6,6.4,1.7c1.4,1.2,2,3.2,2,6.1v15.3h-4.4l-0.6-3.4   c-2.4,2.6-5.2,3.9-8.6,3.9c-2.1,0-3.8-0.6-5.1-1.7c-1.3-1.1-2-2.7-2-4.8v-2.3c0-1.8,0.6-3.2,1.7-4.2c1.2-1,2.8-1.5,4.9-1.5h8.4   v-1.4c0-1.3-0.3-2.1-0.9-2.6c-0.5-0.4-1.6-0.6-3.3-0.6C279.3,80.9,276.1,81.1,272.2,81.4 M276.2,91.9v0.9c0,1.8,1,2.7,2.9,2.7   c2.2,0,4.4-0.9,6.6-2.7v-3.5h-7.1c-0.9,0-1.5,0.3-1.9,0.7C276.4,90.4,276.2,91.1,276.2,91.9"/>
	<path class="st0" d="M303,67.4v25.1c0,0.9,0.2,1.5,0.6,2c0.4,0.4,1.1,0.6,2,0.6h1.9l0.6,4.1c-1,0.5-2.6,0.8-4.8,0.8   c-1.9,0-3.3-0.5-4.4-1.6c-1.1-1.1-1.6-2.6-1.6-4.5V67.4H303z"/>
	<path class="st0" d="M339.6,87l-6.4-2c-2.3-0.7-3.9-1.8-4.9-3.3c-1-1.5-1.5-3.4-1.5-5.8c0-3.5,0.8-5.7,2.4-6.8   c1.6-1.1,4.4-1.6,8.5-1.6c3.9,0,7.2,0.4,9.9,1.1l-0.4,4.1c-3.5-0.1-6.6-0.2-9.4-0.2c-2.1,0-3.5,0.2-4.2,0.6c-0.7,0.4-1.1,1.4-1.1,3   c0,1.3,0.3,2.2,0.8,2.8c0.5,0.5,1.4,1,2.8,1.4l6.1,1.9c2.4,0.8,4.1,1.9,5.1,3.4c1,1.5,1.4,3.4,1.4,5.8c0,3.5-0.8,5.8-2.5,7   c-1.6,1.2-4.6,1.8-8.7,1.8c-3.5,0-6.9-0.3-10.3-1l0.4-4.2c5.3,0.1,8.7,0.2,10,0.2c2.1,0,3.5-0.2,4.2-0.7c0.7-0.5,1.1-1.5,1.1-3.1   c0-1.3-0.2-2.3-0.7-2.8C341.8,87.8,340.9,87.4,339.6,87"/>
	<path class="st0" d="M368,90.6h-9.2c0.2,2,0.8,3.3,1.6,3.9c0.9,0.7,2.3,1,4.4,1c2.3,0,5-0.2,8.1-0.6l0.5,3.6   c-2.1,1-5.2,1.5-9.3,1.5c-4.1,0-6.9-0.9-8.7-2.7c-1.7-1.8-2.6-4.8-2.6-9.1c0-4.4,0.8-7.4,2.5-9.2c1.7-1.8,4.5-2.6,8.3-2.6   c3.6,0,6.2,0.6,7.8,1.9c1.6,1.3,2.4,3.2,2.4,5.8C374,88.5,372,90.6,368,90.6 M358.7,86.7h7.7c1.3,0,2-0.9,2-2.6   c0-1.2-0.3-2.1-1-2.6c-0.6-0.5-1.8-0.7-3.5-0.7c-2,0-3.3,0.4-4.1,1.2C359.2,82.8,358.8,84.4,358.7,86.7"/>
	<path class="st0" d="M394.2,76.4l-0.6,5.2H392c-1.6,0-4.1,0.7-7.4,2v15.9H379V77.1h4.4l0.5,3.3c3.2-2.6,6.3-3.9,9.3-3.9H394.2z"/>
	<path class="st0" d="M403.4,67.4V75c0,2.2-0.2,3.9-0.6,5.2c2.4-2.5,5.1-3.8,8.2-3.8c2.8,0,4.9,0.9,6.2,2.7c1.3,1.8,2,4.8,2,9   c0,3.9-0.8,6.9-2.3,8.9c-1.5,2-4.3,3-8.2,3c-1.7,0-3.7-0.1-5.8-0.4c-2.1-0.3-3.8-0.7-5.2-1.3V67.4H403.4z M403.4,83.6v11.5   c1.8,0.4,3.5,0.6,5.2,0.6c1.8,0,3.1-0.6,3.8-1.7c0.7-1.1,1.1-3,1.1-5.8c0-2.7-0.3-4.6-0.9-5.6c-0.6-1-1.8-1.5-3.7-1.5   c-0.9,0-1.8,0.2-2.6,0.6C405.6,82.1,404.6,82.7,403.4,83.6"/>
	<path class="st0" d="M426.2,67.3h2.6c1.1,0,1.6,0.5,1.6,1.6v2.5c0,1.1-0.5,1.6-1.6,1.6h-2.6c-1.1,0-1.6-0.5-1.6-1.6v-2.5   C424.6,67.8,425.1,67.3,426.2,67.3 M430.3,99.5h-5.5V77.1h5.5V99.5z"/>
	<path class="st0" d="M437.1,81.5l-0.5-3.9c3.9-0.7,7.7-1.1,11.2-1.1c2.9,0,5,0.6,6.4,1.7c1.4,1.2,2,3.2,2,6.1v15.3h-4.4l-0.6-3.4   c-2.4,2.6-5.2,3.9-8.6,3.9c-2.1,0-3.8-0.6-5.1-1.7c-1.3-1.1-2-2.7-2-4.8v-2.3c0-1.8,0.6-3.2,1.7-4.2c1.2-1,2.8-1.5,4.9-1.5h8.4   v-1.4c0-1.3-0.3-2.1-0.9-2.6c-0.6-0.4-1.6-0.6-3.3-0.6C444.1,81,441,81.1,437.1,81.5 M441.1,91.9v0.9c0,1.8,1,2.7,2.9,2.7   c2.2,0,4.4-0.9,6.6-2.7v-3.5h-7.1c-0.9,0-1.5,0.3-1.9,0.7C441.3,90.5,441.1,91.1,441.1,91.9"/>
	<rect x="173.6" y="113.9" class="st0" width="3" height="31.6"/>
	<path class="st0" d="M187.1,123.4l0.2,3.7c3.7-2.8,7.1-4.3,10.3-4.3c4,0,6,2,6,6.1v16.7h-2.9v-15.9c0-1.6-0.3-2.7-0.9-3.3   c-0.6-0.7-1.6-1-3-1c-1.3,0-2.7,0.3-4.1,0.9c-1.4,0.6-3.1,1.6-5.2,2.9v16.4h-2.9v-22.2H187.1z"/>
	<path class="st0" d="M212.1,114h1.3c0.6,0,1,0.3,1,1v2.7c0,0.6-0.3,1-1,1h-1.3c-0.6,0-1-0.3-1-1V115   C211.1,114.4,211.4,114,212.1,114 M214.2,145.6h-2.9v-22.2h2.9V145.6z"/>
	<path class="st0" d="M233.3,143.3l0.4,2.2c-1.5,0.3-3.1,0.5-4.6,0.5c-3.7,0-5.5-1.8-5.5-5.5v-14.7h-4v-2.1l4-0.2v-6.7h2.9v6.7h7.5   v2.3h-7.5v14.4c0,2.1,1.1,3.2,3.3,3.2H233.3z"/>
	<path class="st0" d="M239.9,114h1.3c0.6,0,1,0.3,1,1v2.7c0,0.6-0.3,1-1,1h-1.3c-0.6,0-1-0.3-1-1V115   C238.9,114.4,239.2,114,239.9,114 M242,145.6h-2.9v-22.2h2.9V145.6z"/>
	<path class="st0" d="M249.8,126l-0.3-2.2c4.4-0.7,8-1,10.7-1c2.4,0,4.2,0.5,5.3,1.6c1.2,1.1,1.8,2.8,1.8,5.2v15.9H265l-0.4-3.9   c-1.1,1.1-2.5,2.1-4.3,3c-1.8,0.9-3.6,1.3-5.4,1.3c-2,0-3.5-0.5-4.6-1.6c-1.1-1-1.7-2.5-1.7-4.4v-2.6c0-1.7,0.5-3,1.5-4   c1-0.9,2.4-1.4,4.3-1.4h9.9v-2.3c0-1.5-0.3-2.6-1-3.3c-0.7-0.7-1.9-1.1-3.7-1.1C257,125.3,253.7,125.5,249.8,126 M251.5,137.7v1.9   c0,2.5,1.3,3.7,3.9,3.7c1.3,0,2.9-0.3,4.5-1c1.7-0.7,3.1-1.6,4.4-2.8v-5.3h-9.5C252.6,134.4,251.5,135.5,251.5,137.7"/>
	<path class="st0" d="M286.1,143.3l0.4,2.2c-1.5,0.3-3.1,0.5-4.6,0.5c-3.7,0-5.5-1.8-5.5-5.5v-14.7h-4v-2.1l4-0.2v-6.7h2.9v6.7h7.5   v2.3h-7.5v14.4c0,2.1,1.1,3.2,3.3,3.2H286.1z"/>
	<path class="st0" d="M292.6,114h1.3c0.6,0,1,0.3,1,1v2.7c0,0.6-0.3,1-1,1h-1.3c-0.6,0-1-0.3-1-1V115C291.7,114.4,292,114,292.6,114    M294.8,145.6h-2.9v-22.2h2.9V145.6z"/>
	<path class="st0" d="M321.6,123.4l-8.5,21.4c-0.2,0.5-0.5,0.7-1.1,0.7h-2.7c-0.6,0-0.9-0.2-1.1-0.7l-8.5-21.4h3.1l6.1,16   c0.2,0.5,0.4,1.1,0.8,2.1c0.3,0.9,0.6,1.6,0.7,1.9h0.6l1.5-4l6-16H321.6z"/>
	<path class="st0" d="M339.2,135.9h-11.1c0.2,2.9,0.9,5,2,6c1.2,1.1,3.1,1.7,5.7,1.7c2.3,0,4.8-0.2,7.7-0.6l0.3,2   c-1.9,0.7-4.7,1.1-8.4,1.1c-3.7,0-6.4-0.9-8-2.7c-1.6-1.8-2.4-4.8-2.4-9.1c0-4.3,0.8-7.3,2.3-9c1.5-1.7,4.1-2.6,7.7-2.6   c3.1,0,5.5,0.6,7,1.7c1.5,1.1,2.3,2.9,2.3,5.2C344.4,133.8,342.7,135.9,339.2,135.9 M328.2,133.6h10.4c2,0,2.9-1.3,2.8-3.8   c0-1.6-0.5-2.7-1.5-3.4c-1-0.7-2.5-1.1-4.7-1.1c-2.6,0-4.4,0.6-5.5,1.8C328.7,128.3,328.2,130.5,328.2,133.6"/>
</g>
</svg>