<svg width="269" height="51" viewBox="0 0 269 51" fill="none" xmlns="http://www.w3.org/2000/svg">
<g clip-path="url(#clip0_2706_1291)">
<path d="M9.35448 0.805696C4.94582 1.7785 1.44786 5.37994 0.475061 9.91279C0.0197063 12.0447 0.0197063 39.0141 0.475061 41.1667C0.927186 43.3102 1.97509 45.2825 3.49827 46.8569C5.02144 48.4314 6.95805 49.544 9.0854 50.0668C10.9482 50.5014 19.393 50.5014 21.2558 50.0668C25.0849 49.1561 28.1275 46.2998 29.4729 42.3671C30.0317 40.7941 30.0317 40.6285 30.0524 35.5782L30.0731 30.4037L25.1677 30.3416L20.2623 30.3003L20.2002 34.9573C20.1174 41.0425 20.5728 40.5457 15.1499 40.5457H11.0931L10.5964 39.9662L10.0996 39.3866V11.5272L10.6377 11.0305L11.1759 10.5337L24.5468 10.4716C31.9152 10.4302 38.2488 10.4716 38.6214 10.5337C39.0276 10.6146 39.4057 10.8001 39.7183 11.0719C40.0909 11.4444 40.1116 11.8791 40.1116 25.9123V40.3387L45.0791 45.3063L50.0466 50.2738L50.0052 29.9898L49.9431 9.70581L49.4878 8.48463C48.1424 4.94528 45.6173 2.42013 42.1607 1.15756L40.6291 0.598717L25.6231 0.557321C13.7424 0.536623 10.348 0.578019 9.35448 0.805696Z" fill="#033C77"/>
<path d="M23.7602 16.619C20.8625 17.5711 19.2274 19.8893 19.4758 22.7663C19.7034 25.8089 22.0009 27.8166 25.2091 27.8166C28.4173 27.8166 30.7147 25.8089 30.9424 22.7663C31.064 21.6201 30.8317 20.4641 30.2766 19.4539C29.7216 18.4437 28.8704 17.6277 27.8377 17.1158C26.6993 16.5569 24.7123 16.3085 23.7602 16.619Z" fill="#033C77"/>
<path d="M116.011 27.2991C112.265 28.334 109.533 31.2317 108.498 35.2678C108.063 36.9029 108.022 40.2974 108.394 41.8911C109.864 48.1005 115.473 51.5985 121.765 50.2738C127.974 48.9698 131.472 42.8018 130.023 35.7231C129.154 31.5008 126.277 28.3133 122.386 27.2991C120.896 26.9265 117.398 26.9058 116.011 27.2991ZM121.827 32.7219C124.87 34.6054 125.491 40.7734 122.945 43.7539C120.958 46.0721 117.046 45.9479 115.245 43.4849C113.879 41.6427 113.506 38.0206 114.417 35.5782C114.976 34.0673 116.446 32.5357 117.646 32.2045C118.991 31.8319 120.73 32.0389 121.827 32.7219Z" fill="#033C77"/>
<path d="M60.3956 38.683V49.9633H66.398V27.4026H60.3956V38.683Z" fill="#033C77"/>
<path d="M69.0887 38.6829V49.9633H74.4702V43.0502C74.4702 39.2418 74.5323 36.075 74.6358 36.0336C74.7392 35.9922 76.5193 39.0555 78.6305 42.8846L82.501 49.8598L85.6264 49.9219L88.7518 49.984V27.4025H83.1633L83.1219 34.4812L83.0598 41.5806L79.1272 34.5433L75.1946 27.506L72.1313 27.4439L69.0887 27.3818V38.6829Z" fill="#033C77"/>
<path d="M91.0285 38.683V49.9633H97.0309V41.2702H106.345V36.7167H97.0309V32.1631H107.794V27.4026H91.0285V38.683Z" fill="#033C77"/>
<path d="M132.01 38.683V49.9633H137.806V41.6842H140.145C142.856 41.6842 143.725 41.8911 144.471 42.657C145.257 43.4849 145.464 44.1679 145.692 46.6724C145.795 47.8935 145.961 49.1354 146.085 49.4252L146.292 49.9633H152.067L151.777 49.2596C151.611 48.8663 151.384 47.5003 151.26 46.2584C150.949 42.4914 150.287 40.8769 148.755 39.9455L147.886 39.4488L148.527 39.1176C149.5 38.6209 150.804 36.9857 151.156 35.8266C152.087 32.6806 150.887 29.8035 148.093 28.4582C146.251 27.5475 144.843 27.4026 138.075 27.4026H132.01V38.683ZM144.222 32.4736C145.071 32.9082 145.464 33.5706 145.464 34.6055C145.464 35.7025 145.05 36.5511 144.326 36.8822C143.995 37.0478 142.67 37.1306 140.807 37.1306H137.806V32.1631H140.704C142.898 32.1631 143.767 32.2459 144.222 32.4736Z" fill="#033C77"/>
<path d="M153.122 38.6829V49.9633H158.711V41.3322C158.711 36.5924 158.794 32.784 158.876 32.8875C159.021 33.0531 161.277 41.0632 163.492 49.1975L163.699 49.9633H168.128L170.509 41.415L172.889 32.8875L172.951 41.415L172.992 49.9633H184.521L185.204 47.997L185.866 46.0307L189.923 46.0721L193.98 46.1342L194.642 47.997L195.305 49.8598L198.347 49.9219C201.183 49.9633 201.369 49.9426 201.266 49.6114C201.204 49.4044 199.299 44.3541 197.043 38.3724L192.945 27.506L189.944 27.4439L186.963 27.3818L182.824 38.5794C180.547 44.7267 178.622 49.7563 178.539 49.7563C178.457 49.7563 178.374 44.7267 178.374 38.5794V27.4025H169.929L169.701 28.0649C169.598 28.4374 168.729 31.7284 167.797 35.3712C166.866 39.0141 166.038 42.0774 165.955 42.1602C165.872 42.243 165.334 40.4215 164.734 38.1241C164.134 35.8266 163.285 32.4528 162.809 30.6521L161.96 27.4025H153.122V38.6829ZM191.31 37.7308C191.931 39.6971 192.448 41.3943 192.448 41.4978C192.448 41.6013 191.289 41.6841 189.861 41.6841C188.433 41.6841 187.274 41.6634 187.274 41.622C187.274 41.4978 189.509 34.9366 189.758 34.3363C189.903 33.9845 190.047 33.7982 190.089 33.9224C190.13 34.0466 190.668 35.7438 191.31 37.7308Z" fill="#033C77"/>
<path d="M197.209 29.8863V32.3701H204.039V49.9633H209.835V32.3701H216.665V27.4026H197.209V29.8863Z" fill="#033C77"/>
<path d="M217.7 38.683V49.9633H223.495V27.4026H217.7V38.683Z" fill="#033C77"/>
<path d="M226.393 38.6829V49.9633H232.395V46.486L232.416 43.0295L233.534 41.7876C234.362 40.8769 234.714 40.6078 234.879 40.7734C235.003 40.8976 236.39 43.0088 237.963 45.4304L240.819 49.8598H252.1L252.762 47.997L253.425 46.1342L257.481 46.0721L261.538 46.0307L262.2 47.997L262.863 49.9633H268.969L264.705 38.6829L260.462 27.3818L257.461 27.4439L254.48 27.506L250.63 37.6894C247.712 45.4511 246.718 47.8314 246.553 47.6244C246.346 47.4174 239.371 37.2548 238.957 36.5717C238.853 36.4268 240.385 34.6468 242.931 31.9147L247.07 27.506L243.531 27.4439C240.944 27.4025 239.929 27.4646 239.702 27.6509C239.516 27.7958 237.839 29.7207 235.935 31.9354L232.499 35.9508L232.437 31.6663L232.395 27.4025H226.393V38.6829ZM258.765 37.5859C259.406 39.7178 259.924 41.4978 259.924 41.5806C259.924 41.6634 258.806 41.6841 257.44 41.6841C256.074 41.6841 254.956 41.6013 254.956 41.5185C254.956 41.3736 257.088 34.5019 257.336 33.8396C257.399 33.674 257.481 33.5912 257.523 33.6326C257.564 33.674 258.123 35.454 258.765 37.5859Z" fill="#033C77"/>
</g>
<defs>
<clipPath id="clip0_2706_1291">
<rect width="268.835" height="50" fill="white" transform="translate(0.133545 0.553223)"/>
</clipPath>
</defs>
</svg>
