<svg width="45" height="45" viewBox="0 0 45 45" fill="none" xmlns="http://www.w3.org/2000/svg">
<path d="M8.3379 0.299675C4.37011 1.1752 1.22195 4.41649 0.346427 8.49606C-0.0633923 10.4148 -0.0633923 34.6872 0.346427 36.6245C0.75334 38.5537 1.69645 40.3288 3.06731 41.7458C4.43817 43.1628 6.18112 44.1641 8.09573 44.6346C9.77227 45.0258 17.3725 45.0258 19.0491 44.6346C22.4953 43.815 25.2336 41.2443 26.4445 37.705C26.9474 36.2892 26.9474 36.1402 26.966 31.5949L26.9847 26.9379L22.5698 26.882L18.1549 26.8448L18.099 31.0361C18.0245 36.5128 18.4344 36.0657 13.5538 36.0657H9.90266L9.45559 35.5441L9.00851 35.0225V9.94905L9.49284 9.50198L9.97718 9.0549L22.011 8.99902C28.6426 8.96176 34.3428 8.99902 34.6781 9.0549C35.0437 9.12769 35.384 9.29463 35.6654 9.53923C36.0007 9.87454 36.0193 10.2657 36.0193 22.8956V35.8794L40.4901 40.3502L44.9608 44.8209L44.9236 26.5654L44.8677 8.30977L44.4579 7.21071C43.247 4.0253 40.9744 1.75267 37.8635 0.616353L36.485 0.113393L22.9796 0.0761371C12.2871 0.0575089 9.23205 0.0947652 8.3379 0.299675Z" fill="#033C77"/>
<path d="M21.3031 14.5315C18.6952 15.3884 17.2235 17.4748 17.4471 20.0641C17.652 22.8024 19.7197 24.6093 22.6071 24.6093C25.4944 24.6093 27.5622 22.8024 27.7671 20.0641C27.8765 19.0325 27.6674 17.9921 27.1679 17.0829C26.6683 16.1737 25.9023 15.4394 24.9728 14.9786C23.9483 14.4756 22.16 14.2521 21.3031 14.5315Z" fill="#033C77"/>
</svg>
