<svg width="189" height="45" viewBox="0 0 189 45" fill="none" xmlns="http://www.w3.org/2000/svg">
<g style="mix-blend-mode:multiply">
<path d="M38.4879 18.5485H38.4453V19.4427H38.4879V18.5485Z" fill="black"/>
</g>
<g style="mix-blend-mode:multiply">
<path d="M41.9368 18.7528L40.7275 18.9913V18.9998L41.9368 18.7528Z" fill="black"/>
</g>
<g style="mix-blend-mode:multiply">
<path d="M40.7188 20.8053V20.8223L41.9366 20.6265L40.7188 20.8053Z" fill="black"/>
</g>
<g style="mix-blend-mode:multiply">
<path d="M37.5088 24.6717V24.7143L38.4456 24.6547V24.6206L37.5088 24.6717Z" fill="black"/>
</g>
<g style="mix-blend-mode:multiply">
<path d="M6.74771 19.4682V19.4427H6.78177V18.5485H6.74771V19.4427L4.54199 18.9998V19.0083L6.74771 19.4682Z" fill="black"/>
</g>
<g style="mix-blend-mode:multiply">
<path d="M40.694 18.9999L38.4883 19.4427V19.4683L40.694 19.0084V18.9999Z" fill="black"/>
</g>
<g style="mix-blend-mode:multiply">
<path d="M40.7359 18.0715H40.6934V18.9998L40.7274 18.9913L40.7359 18.0715Z" fill="black"/>
</g>
<g style="mix-blend-mode:multiply">
<path d="M4.54188 19.0084L4.50781 18.9999L4.51633 20.8053L4.54188 20.8138V19.0084Z" fill="black"/>
</g>
<g style="mix-blend-mode:multiply">
<path d="M40.7274 18.9999L40.6934 19.0084V20.8138L40.7189 20.8053L40.7274 18.9999Z" fill="black"/>
</g>
<g style="mix-blend-mode:multiply">
<path d="M10.8015 20.8223L10.793 20.8394V22.8492L12.0278 21.8698L10.793 20.6265V20.8223H10.8015Z" fill="black"/>
</g>
<g style="mix-blend-mode:multiply">
<path d="M8.758 19.8855L8.77504 19.8514L6.78223 19.4426V19.4767L8.758 19.8855Z" fill="black"/>
</g>
<g style="mix-blend-mode:multiply">
<path d="M9.9248 27.2947V27.465H10.836V27.2521H10.7935V27.2947H9.9248Z" fill="black"/>
</g>
<g style="mix-blend-mode:multiply">
<path d="M4.52539 24.5183L4.54242 27.2946V24.5183H4.52539Z" fill="black"/>
</g>
<g style="mix-blend-mode:multiply">
<path d="M4.54199 24.5013V24.5184L6.77326 24.6546V24.6206L4.54199 24.5013Z" fill="black"/>
</g>
<g style="mix-blend-mode:multiply">
<path d="M9.92451 25.0549L9.18359 24.9442V27.2947H9.92451V25.0549Z" fill="black"/>
</g>
<g style="mix-blend-mode:multiply">
<path d="M12.0368 21.8868L12.0539 21.8698L12.0368 21.8528L12.0283 21.8698L12.0368 21.8868Z" fill="black"/>
</g>
<g style="mix-blend-mode:multiply">
<path d="M10.793 23.2409L11.0144 23.3175V23.1302L10.793 23.1132V23.2409Z" fill="black"/>
</g>
<g style="mix-blend-mode:multiply">
<path d="M10.7849 22.9855H10.7764V23.1132H10.7849V22.9855Z" fill="black"/>
</g>
<g style="mix-blend-mode:multiply">
<path d="M7.72754 24.7142L9.18382 24.9442V24.9186L7.72754 24.7142Z" fill="black"/>
</g>
<g style="mix-blend-mode:multiply">
<path d="M9.92451 22.9429H9.18359V24.9186L9.92451 25.0294V22.9429Z" fill="black"/>
</g>
<g style="mix-blend-mode:multiply">
<path d="M6.77289 24.6206H6.78141V21.18L6.75586 21.1715L6.77289 24.6206Z" fill="black"/>
</g>
<g style="mix-blend-mode:multiply">
<path d="M4.54215 20.8223H4.5166L4.52512 24.5013H4.54215V20.8223Z" fill="black"/>
</g>
<g style="mix-blend-mode:multiply">
<path d="M10.1799 23.2836L9.94141 23.2069V25.0294L10.793 25.1486V24.1778V24.1437H10.776V23.8797H10.793V23.3091L10.1799 23.2836Z" fill="black"/>
</g>
<g style="mix-blend-mode:multiply">
<path d="M9.9248 25.0293V25.0548H9.94184V25.0293H9.9248Z" fill="black"/>
</g>
<g style="mix-blend-mode:multiply">
<path d="M10.776 26.392H10.793V25.1571L10.7845 25.1912L9.94141 25.0549V27.2521H10.793V26.673L10.776 26.6645V26.392Z" fill="black"/>
</g>
<g style="mix-blend-mode:multiply">
<path d="M22.8951 27.4821H22.7589C22.1457 27.4821 21.541 27.4821 20.9534 27.4821L20.3828 27.7035H25.433L24.5813 27.4906L22.8951 27.4821Z" fill="black"/>
</g>
<g style="mix-blend-mode:multiply">
<path d="M6.78223 24.6206V24.6547L7.72753 24.7143V24.6717L6.78223 24.6206Z" fill="black"/>
</g>
<g style="mix-blend-mode:multiply">
<path d="M10.7849 20.8648L10.7934 20.8393V20.8223H10.7764V20.8648H10.7849Z" fill="black"/>
</g>
<g style="mix-blend-mode:multiply">
<path d="M6.75622 21.1545L4.54199 20.8138V20.8224L6.75622 21.1715V21.1545Z" fill="black"/>
</g>
<g style="mix-blend-mode:multiply">
<path d="M10.776 20.1069L9.94141 19.6215V20.4305L10.776 20.8223V20.1069Z" fill="black"/>
</g>
<g style="mix-blend-mode:multiply">
<path d="M7.76953 22.1764V22.4234L8.82555 22.5341L10.1711 23.0195L9.94118 22.9343V22.6789L8.82555 22.2786L7.76953 22.1764Z" fill="black"/>
</g>
<g style="mix-blend-mode:multiply">
<path d="M10.7849 22.27H10.7764V22.2785L10.7849 22.27Z" fill="black"/>
</g>
<g style="mix-blend-mode:multiply">
<path d="M9.92451 27.465H9.18359V28.027H9.92451V27.465Z" fill="black"/>
</g>
<g style="mix-blend-mode:multiply">
<path d="M38.4709 17.0326C38.9562 15.6705 39.321 14.2684 39.561 12.8426C39.6646 12.1833 39.7187 11.5171 39.7228 10.8497C39.7269 10.22 39.6321 9.59351 39.4418 8.9932C39.2758 8.45661 38.9375 7.98968 38.4794 7.66466L38.3687 7.59653H38.3261H38.2665L38.1218 7.53691H38.0536H38.0025L37.7896 7.46878C37.6525 7.43702 37.5129 7.41707 37.3723 7.40917C37.2335 7.39643 37.0938 7.39643 36.955 7.40917C36.3862 7.46385 35.8306 7.61354 35.3114 7.85202C34.7863 8.09381 34.2821 8.37866 33.804 8.70364C32.8742 9.3206 31.9943 10.0097 31.1725 10.7646C30.7296 11.1734 30.3208 11.6162 29.9035 11.9824C28.8999 10.7001 27.8192 9.47998 26.6674 8.32893C24.6449 6.2509 22.2906 4.52405 19.701 3.21916C19.0555 2.92422 18.386 2.68489 17.6997 2.5038C17.015 2.31723 16.3051 2.23964 15.5962 2.27386C14.8877 2.30291 14.1998 2.52046 13.6034 2.90406L13.4927 2.97219H13.4416L13.3735 3.02329L13.2287 3.15955L13.152 3.22768H13.1009L12.8199 3.40652C12.7062 3.53882 12.6009 3.6782 12.5048 3.82382C12.417 3.96389 12.3374 4.10891 12.2663 4.25815C12.0014 4.83991 11.8345 5.46146 11.7724 6.09766C11.713 6.70086 11.713 7.30844 11.7724 7.91163C11.8722 9.03618 12.0804 10.1485 12.3941 11.233C12.7997 12.6682 13.3034 14.0738 13.9015 15.44C13.7737 15.0568 13.6545 14.6565 13.5353 14.2563C13.2599 13.3001 13.0466 12.3273 12.8965 11.3437C12.8199 10.8327 12.7603 10.3132 12.7347 9.79373C12.7007 9.27479 12.7007 8.75419 12.7347 8.23525C12.7665 7.25052 13.0605 6.2921 13.5864 5.45894C13.6502 5.37074 13.7214 5.28812 13.7993 5.21197C13.8614 5.13772 13.933 5.07187 14.0122 5.0161L14.1059 4.93945L14.1995 4.88835L14.3699 4.77764H14.438C14.8303 4.62375 15.2535 4.56537 15.6729 4.60731C16.7156 4.77436 17.7112 5.16038 18.5939 5.73998C19.6313 6.39259 20.6063 7.13951 21.5065 7.97124C22.4719 8.85031 23.3901 9.77989 24.2573 10.7561C26.0476 12.7823 27.6872 14.937 29.1626 17.2029C29.5459 17.7905 29.9206 18.3867 30.2868 18.9828H27.7404L26.7696 20.4476V21.5036C25.4843 21.3438 24.1896 21.2726 22.8947 21.2907C21.4131 21.267 19.932 21.3638 18.4662 21.5803V20.3624L17.4868 18.8976H13.4671V19.0083L13.1776 19.2042V19.8514L12.7007 20.141V20.4391L10.9974 20.158V20.0814L9.90733 19.4512V17.8842L2.17455 15.7807V27.4054H2.91547V27.465H9.18345V27.2947H3.22206V17.7564L8.80022 18.9828L10.776 20.0814V20.5924L12.0194 21.8187L13.1605 20.9075L12.0534 21.8698L13.2202 22.994L12.0364 21.8868L10.793 22.8492V22.994L11.0144 23.0706V23.1387L12.7177 23.2835V24.0415L10.793 23.8456V24.1181L12.7007 24.2714V24.7142L12.0364 25.2933L10.793 24.1522L12.0279 25.3104L10.8101 26.4005L12.0364 25.3615L12.7007 25.9832V26.4005H10.8101V26.6815H12.7177V27.4224H13.1946H14.0462V29.0235H14.5402L19.6329 27.8397V26.4005H20.178V27.6779H20.4249V25.6255H25.4751V27.6779H25.705V26.4005H26.0031V27.6013H26.0457V26.4005H26.8292H27.7574V27.4991H27.8V26.4005C28.4302 26.4005 29.0008 26.3409 29.5033 26.2898H29.7077V26.2472H29.5033C29.0008 26.2983 28.4302 26.3408 27.8 26.3664V24.3651H27.8426L29.0008 24.4417L29.4096 24.4928H29.614V22.2786L29.4096 22.1849C29.2733 22.1168 29.1456 22.0486 29.0008 21.989V21.1374H29.8524V27.4224H29.9035C29.0008 28.8191 27.9959 30.1817 26.9654 31.5102L25.0408 32.2086L24.6916 31.9105L24.9897 32.2256L23.6611 32.6855C20.97 33.5882 18.2362 34.3887 15.5536 35.0019L15.1363 35.0871C15.1874 34.8742 15.247 34.6613 15.2981 34.4483C15.556 33.4897 15.8658 32.5458 16.2264 31.6209C16.3712 31.2377 16.516 30.8715 16.6693 30.5138C15.9971 31.8414 15.3945 33.203 14.8638 34.5931C14.7957 34.789 14.7275 34.9849 14.6509 35.1893C12.443 35.7062 10.1951 36.0338 7.93156 36.1686C6.95741 36.2407 5.97812 36.1457 5.03602 35.8876C4.32917 35.6321 3.99704 35.1807 4.14181 34.5676C4.42091 33.7972 4.8965 33.1132 5.52145 32.5833C5.87584 32.2428 6.24826 31.9215 6.63708 31.6209C7.02883 31.3058 7.44613 31.0078 7.86343 30.7267C8.71505 30.1561 9.56668 29.6281 10.4183 29.1512L11.4743 28.5721C10.1799 29.1597 8.81725 29.807 7.4291 30.6586C6.45186 31.2076 5.51293 31.8222 4.61872 32.4981C4.16352 32.8351 3.73371 33.2052 3.33277 33.6052C2.94999 33.985 2.62824 34.4216 2.37894 34.8997C2.15014 35.319 2.09509 35.8114 2.22565 36.2708C2.21834 36.3131 2.21834 36.3563 2.22565 36.3986L2.31081 36.5689C2.31081 36.62 2.37894 36.6796 2.42153 36.7222L2.54075 36.8584C2.71754 37.0455 2.9249 37.201 3.15393 37.3183C3.68903 37.5948 4.26351 37.7873 4.85718 37.8889C5.49886 38.0068 6.14742 38.0836 6.79889 38.1189C9.20489 38.1775 11.6106 37.9892 13.9781 37.5568C13.9781 37.6505 13.9355 37.7356 13.9185 37.8293C13.7899 38.3886 13.7157 38.959 13.6971 39.5326C13.6595 40.1063 13.7199 40.6824 13.8759 41.2358C14.0221 41.766 14.347 42.2293 14.7957 42.5473L14.9234 42.641L15.1278 42.7347C15.1973 42.7667 15.2683 42.7952 15.3407 42.8198L15.5366 42.8709C15.8156 42.9351 16.1025 42.9581 16.3882 42.9391C17.0112 42.8971 17.6235 42.7562 18.2022 42.5218C18.8228 42.2859 19.4236 42.0011 19.9991 41.6701C22.4391 40.1315 24.6593 38.2694 26.5992 36.1346C26.9825 35.7258 27.3657 35.2829 27.7404 34.8656L27.8852 34.9934C28.7654 35.6882 29.7092 36.2984 30.7041 36.8159C31.2464 37.1085 31.8171 37.3454 32.4073 37.5227C33.0145 37.7214 33.6507 37.8164 34.2894 37.8038C34.967 37.7857 35.6268 37.5825 36.1971 37.2161L36.3674 37.0969L36.5973 36.9095C36.6693 36.8514 36.7376 36.7888 36.8017 36.7222L36.9806 36.5263C37.2062 36.266 37.4006 35.9802 37.5597 35.6747C37.8751 35.0394 38.0878 34.3582 38.1899 33.6563C38.2901 32.9456 38.3243 32.2272 38.2921 31.5102C38.2621 30.5444 38.1596 29.5822 37.9855 28.6317C38.5646 28.257 39.1182 27.8653 39.6887 27.465H42.3543V27.4054H43.0953V15.7807L38.4709 17.0326ZM12.7007 25.9406L12.0534 25.3359L12.7007 24.7824V25.9406ZM17.4868 21.1204L17.9467 21.5803L17.4868 21.691V21.1204ZM17.8019 24.3395V25.0208H17.4953V24.4077L17.8019 24.3395ZM15.3748 21.1204H17.5038V21.708C17.0749 21.8218 16.6668 22.0029 16.2945 22.2445V24.5099C16.6693 24.4588 17.078 24.4162 17.5038 24.3736V24.9782L16.2264 24.842L15.8176 24.7909L15.3748 24.7398V21.1204ZM18.5088 27.3798L18.1596 27.4224V28.1719H18.1V27.4309L17.5124 27.5076L14.6083 27.8653H14.1229L14.6083 27.8142L18.1085 27.4224V26.4005V27.448L19.5478 27.2521L18.5088 27.3798ZM19.5903 25.2167L18.5088 25.0975L17.8615 25.0208V24.3395H17.9978H18.0404H18.5173L19.5989 24.2714L19.5903 25.2167ZM27.7404 26.3153H26.8121H26.0286V24.1437V26.4005H25.7306V25.3785H22.835H20.1354V26.4005H19.6329V25.2252V24.2118C20.6464 24.1607 21.7194 24.1266 22.8436 24.1181H22.9798C24.0529 24.1181 25.0748 24.1437 26.0457 24.1947L26.8547 24.2373H27.3316V24.314V24.2458H27.7404V26.3153ZM29.0008 21.9805C28.5965 21.8241 28.1808 21.6989 27.7574 21.6058C27.6382 21.6058 27.5105 21.5462 27.3827 21.5292L27.7574 21.1459H29.0008V21.9805ZM41.9796 17.7224V21.6058C41.5728 21.4199 41.1433 21.2882 40.7022 21.2141V20.7882V21.2055L40.4893 21.163C40.021 21.0933 39.5489 21.0535 39.0756 21.0437L40.7022 20.7882L38.9989 21.0522H38.5135V19.4682V21.0778C37.9514 21.0778 37.3979 21.0778 36.8102 21.1544L36.8699 21.0267C37.0743 20.5753 37.2786 20.124 37.4745 19.6726L38.4794 19.4682L37.483 19.6726C37.6278 19.349 37.7641 19.0169 37.8918 18.6932L41.9796 17.7224ZM32.4073 22.6448L32.0071 23.0536L32.4158 22.6448H32.4073ZM34.0169 26.179C34.0533 26.2505 34.0846 26.3245 34.1106 26.4005H33.8892L34.0169 26.179ZM32.4925 23.275H32.5436L32.4925 23.3602V23.275ZM32.2966 28.9553C32.7991 28.2229 33.276 27.465 33.7444 26.7071H34.2468C34.315 26.8859 34.3831 27.0647 34.4427 27.2436V27.2521H34.3916V27.465H34.5364C34.613 27.6864 34.6897 27.9078 34.7578 28.1293C33.8381 28.5977 32.8757 29.0575 31.8964 29.5004C32.0326 29.3045 32.1689 29.1257 32.2966 28.9553ZM38.4454 24.6972V25.9917L38.3432 26.0768L37.4916 26.6134C37.3383 26.0172 37.1594 25.4296 36.9635 24.8335L37.5171 24.6972L36.9891 24.7739C36.8017 24.2033 36.5973 23.6242 36.3759 23.0706C36.3248 22.9258 36.2482 22.7725 36.1886 22.6278L36.4185 22.5426L37.466 22.4319V22.1423L36.4185 22.2445L36.1886 22.3297L36.5548 21.5888H36.6655C37.1594 21.5888 37.6534 21.6313 38.1303 21.6824L38.4539 21.7421V24.595V21.7761C39.1493 21.8487 39.8162 22.0915 40.3956 22.483C40.4551 22.5282 40.5069 22.5829 40.5489 22.6448C40.597 22.6901 40.6348 22.7453 40.6596 22.8066V23.6156C40.6041 23.7621 40.5327 23.902 40.4467 24.0329C40.3408 24.2011 40.2181 24.358 40.0805 24.5013L38.4283 24.595L40.072 24.5524C39.5667 25.0692 39.0135 25.5369 38.4198 25.9491V24.6972H38.4454ZM40.7192 22.9173V22.9684V23.0365L40.7618 23.1643V23.2494C40.7613 23.3975 40.7354 23.5444 40.6852 23.6838V22.9258L40.7192 22.9173ZM31.164 11.0712C31.5642 10.7731 32.0156 10.475 32.4073 10.2195C32.8286 9.95292 33.2636 9.70846 33.7103 9.48714C34.472 9.06424 35.335 8.85807 36.2056 8.891C36.2923 8.89898 36.378 8.9161 36.4611 8.9421C36.5356 8.96076 36.6072 8.98941 36.674 9.02726H36.7592L36.8188 9.07836L36.955 9.17204V9.21462C37.2566 9.5032 37.4543 9.8835 37.5171 10.2962C37.6061 11.2907 37.5079 12.293 37.2275 13.2513C36.901 14.4303 36.4941 15.5856 36.0097 16.7089C35.8479 17.0922 35.6605 17.4839 35.4817 17.8757L35.3369 17.9183V18.2078C35.1496 18.5996 34.9537 18.9998 34.7493 19.4001C34.0035 17.9389 33.182 16.5176 32.2881 15.1419C31.5813 14.0774 30.8233 13.0384 30.0398 12.025C30.3719 11.7099 30.7637 11.4033 31.164 11.0712ZM19.5137 39.26C18.7296 39.8779 17.833 40.3378 16.8736 40.6141C16.5486 40.7237 16.1956 40.7165 15.8753 40.5937C15.555 40.4709 15.2877 40.2402 15.1193 39.9413C14.771 39.1378 14.6474 38.2548 14.7616 37.3865L15.4429 37.2672C18.3539 36.6931 21.2265 35.9394 24.0443 35.0104C22.6773 36.5722 21.1597 37.9956 19.5137 39.26ZM35.5413 31.3825C35.7224 32.4215 35.6789 33.4872 35.4136 34.508C35.3037 34.9098 35.0875 35.2745 34.7877 35.5638C34.488 35.853 34.1158 36.0561 33.7103 36.1516C32.7349 36.2994 31.7376 36.1817 30.8233 35.8109C30.3325 35.6373 29.8544 35.4296 29.3926 35.1893C28.9436 34.9721 28.5085 34.7275 28.0896 34.4569C28.4643 34.0225 28.8305 33.6052 29.1967 33.1283C30.5082 32.5918 31.7942 32.0297 33.0461 31.4251C33.8295 31.0333 34.6045 30.6331 35.3625 30.2158C35.4136 30.6075 35.4817 30.9993 35.5413 31.3825ZM40.6511 27.2947H39.7995C39.9783 27.1584 40.1742 27.0222 40.3445 26.8859L40.6255 26.6304C41.0494 26.2938 41.4532 25.9326 41.8349 25.5488C41.8859 25.4892 41.937 25.4211 41.9967 25.3615V27.3117L40.6511 27.2947Z" fill="black"/>
</g>
<g style="mix-blend-mode:multiply">
<path d="M3.29883 20.6265L4.51666 20.8223V20.8053L3.29883 20.6265Z" fill="black"/>
</g>
<g style="mix-blend-mode:multiply">
<path d="M3.29883 18.7528L4.50814 18.9998V18.9913L3.29883 18.7528Z" fill="black"/>
</g>
<g style="mix-blend-mode:multiply">
<path d="M4.5416 18.0715H4.49902L4.50754 18.9913L4.5416 18.9998V18.0715Z" fill="black"/>
</g>
<g style="mix-blend-mode:multiply">
<path d="M3.29004 24.4418L4.5249 24.5184V24.5014L3.29004 24.4418Z" fill="black"/>
</g>
<g style="mix-blend-mode:multiply">
<path d="M6.78195 27.2351V24.6547H6.77344L6.78195 27.2351Z" fill="black"/>
</g>
<g style="mix-blend-mode:multiply">
<path d="M8.74097 21.4525L6.78223 21.1544V21.18L8.73245 21.4866L8.74097 21.4525Z" fill="black"/>
</g>
<g style="mix-blend-mode:multiply">
<path d="M9.94173 21.9464L8.73242 21.4865L9.94173 21.972V21.9464L10.7763 22.27V20.8648L9.94173 20.4561V21.9464Z" fill="black"/>
</g>
<g style="mix-blend-mode:multiply">
<path d="M9.94141 21.972V22.6789L10.776 22.977V22.2786L10.7675 22.3127L9.94141 21.972Z" fill="black"/>
</g>
<g style="mix-blend-mode:multiply">
<path d="M9.94158 20.4305L8.75781 19.8855L9.94158 20.4561V20.4305Z" fill="black"/>
</g>
<g style="mix-blend-mode:multiply">
<path d="M6.78211 21.1545V19.4768L6.74805 19.4683L6.75656 21.1545H6.78211Z" fill="black"/>
</g>
<g style="mix-blend-mode:multiply">
<path d="M29.8442 26.392H29.8271V26.6645H29.8442V26.392Z" fill="black"/>
</g>
<path d="M56.432 18.1567C56.6487 18.2943 56.8838 18.4004 57.1303 18.4718C57.4602 18.579 57.8055 18.6308 58.1523 18.6251C58.5761 18.644 58.9936 18.5178 59.3361 18.2674C59.495 18.1292 59.6189 17.9553 59.6973 17.7598C59.7758 17.5643 59.8067 17.353 59.7874 17.1433C59.7888 16.8403 59.6998 16.5438 59.5319 16.2917C59.3473 16.0292 59.1266 15.794 58.8762 15.5933C58.6207 15.3804 58.3397 15.176 58.0246 14.9716C57.7239 14.7664 57.4392 14.5386 57.1729 14.2903C56.9137 14.0423 56.6952 13.7549 56.5257 13.4387C56.3353 13.0708 56.2415 12.6605 56.2532 12.2464C56.2296 11.9436 56.2774 11.6394 56.3928 11.3583C56.5082 11.0773 56.6879 10.8273 56.9174 10.6283C57.4068 10.2601 58.0089 10.0735 58.6207 10.1003C59.01 10.0967 59.3985 10.1367 59.7789 10.2196C60.0759 10.2765 60.3629 10.3769 60.6305 10.5176L60.3154 11.3692C60.1044 11.2506 59.878 11.1618 59.6427 11.1052C59.3142 11.0222 58.9765 10.9821 58.6377 10.986C58.4499 10.9706 58.2609 10.9937 58.0823 11.0537C57.9037 11.1137 57.7392 11.2095 57.5987 11.3352C57.4878 11.447 57.4004 11.5801 57.3419 11.7264C57.2834 11.8727 57.2549 12.0293 57.2581 12.1868C57.2538 12.4744 57.3435 12.7555 57.5136 12.9873C57.7007 13.2378 57.9213 13.4613 58.1693 13.6516C58.4248 13.8645 58.7059 14.0689 59.021 14.2818C59.3259 14.494 59.6109 14.7335 59.8726 14.9972C60.1327 15.2444 60.3513 15.532 60.5198 15.8488C60.7055 16.209 60.7964 16.6105 60.7838 17.0155C60.8017 17.346 60.7503 17.6765 60.633 17.986C60.5156 18.2954 60.335 18.5769 60.1025 18.8125C59.8432 19.0411 59.541 19.2161 59.2135 19.3272C58.8861 19.4383 58.5399 19.4833 58.1949 19.4597C57.7615 19.4726 57.3285 19.4239 56.9089 19.3149C56.6284 19.2447 56.3589 19.1358 56.1084 18.9913L56.432 18.1567Z" fill="black"/>
<path d="M66.8301 19.0169C66.5801 19.2094 66.2884 19.3407 65.9784 19.4001C65.6357 19.4836 65.2837 19.5237 64.9309 19.5193C64.4948 19.5237 64.0625 19.4366 63.662 19.2639C63.2565 19.0719 62.9075 18.7786 62.6486 18.4122C62.3391 17.9699 62.1166 17.4728 61.9928 16.9474C61.8272 16.2386 61.7499 15.5121 61.7629 14.7843C61.7454 14.043 61.8344 13.3031 62.0269 12.5871C62.1718 12.0626 62.4113 11.5691 62.7337 11.1308C63.0006 10.7792 63.3522 10.5008 63.7557 10.3218C64.1325 10.1601 64.538 10.0761 64.948 10.0748C65.2938 10.0695 65.6392 10.1009 65.9784 10.1685C66.2243 10.2158 66.4642 10.29 66.6938 10.3899L66.4554 11.2415C66.272 11.1558 66.0768 11.0984 65.8763 11.0712C65.6133 11.014 65.3449 10.9854 65.0757 10.986C64.7623 10.982 64.4531 11.0581 64.1773 11.2072C63.9016 11.3562 63.6685 11.5732 63.5002 11.8377C63.2631 12.1948 63.0955 12.5936 63.0063 13.0129C62.8693 13.596 62.8063 14.194 62.8189 14.7928C62.7515 15.7876 62.9797 16.7802 63.4747 17.6458C63.6525 17.9385 63.9025 18.1807 64.2007 18.3492C64.4989 18.5177 64.8354 18.6069 65.1779 18.6081C65.6712 18.6059 66.1533 18.461 66.5661 18.1908L66.8301 19.0169Z" fill="black"/>
<path d="M68.2188 10.2195H69.1981V19.3319H68.2188V10.2195Z" fill="black"/>
<path d="M71.0625 10.2195H75.1077V11.1563H72.0334V14.2392H74.8608V15.1334H72.0334V18.4718H75.1673V19.3234H71.0625V10.2195Z" fill="black"/>
<path d="M78.0287 13.626L77.4751 12.1953L77.5432 13.626V19.4001H76.6064V10.1173H77.1941L80.6006 16.0191L81.1286 17.3902H81.1797L81.0349 16.0191V10.2195H81.9717V19.5108H81.3756L78.0287 13.626Z" fill="black"/>
<path d="M88.4014 19.0168C88.1534 19.2129 87.8609 19.3445 87.5497 19.4001C87.2098 19.4836 86.8607 19.5237 86.5107 19.5193C86.0718 19.5236 85.6368 19.4366 85.2333 19.2638C84.8297 19.0727 84.4832 18.779 84.2284 18.4122C83.9189 17.9688 83.6937 17.4723 83.5641 16.9474C83.3984 16.2386 83.3212 15.512 83.3342 14.7843C83.3167 14.043 83.4056 13.3031 83.5982 12.5871C83.7615 12.0679 84.0184 11.583 84.3561 11.1563C84.623 10.8047 84.9746 10.5264 85.3781 10.3473C85.7551 10.1865 86.1605 10.1025 86.5704 10.1003C86.919 10.095 87.2673 10.1264 87.6093 10.194C87.8525 10.241 88.0897 10.3153 88.3162 10.4154L88.0863 11.267C87.8942 11.1628 87.6875 11.0881 87.4731 11.0456C87.1933 10.9853 86.9076 10.9567 86.6215 10.9604C86.3255 10.9607 86.0337 11.0307 85.7698 11.1648C85.4775 11.3161 85.2306 11.5424 85.0545 11.8206C84.8211 12.1798 84.6538 12.5778 84.5605 12.9958C84.431 13.58 84.371 14.1775 84.3817 14.7757C84.3148 15.7695 84.5397 16.7611 85.0289 17.6287C85.2073 17.9209 85.4575 18.1627 85.7556 18.3311C86.0536 18.4995 86.3898 18.589 86.7322 18.591C87.0017 18.5957 87.2698 18.5525 87.5242 18.4633C87.7378 18.3944 87.9412 18.297 88.1288 18.1737L88.4014 19.0168Z" fill="black"/>
<path d="M89.6025 10.2195H93.6478V11.1563H90.5734V14.2392H93.4008V15.1334H90.5734V18.4718H93.7244V19.3234H89.6111L89.6025 10.2195Z" fill="black"/>
<path d="M102.403 11.1563H100.171V19.366H99.1919V11.1563H96.9521V10.2195H102.403V11.1563Z" fill="black"/>
<path d="M103.425 10.2195H107.47V11.1563H104.396V14.2392H107.223V15.1334H104.396V18.4718H107.53V19.3234H103.425V10.2195Z" fill="black"/>
<path d="M113.764 19.0169C113.516 19.2129 113.223 19.3446 112.912 19.4001C112.572 19.4836 112.223 19.5237 111.873 19.5193C111.434 19.5236 110.999 19.4366 110.596 19.2639C110.192 19.0727 109.845 18.7791 109.591 18.4122C109.281 17.9689 109.056 17.4723 108.926 16.9474C108.761 16.2386 108.684 15.5121 108.696 14.7843C108.679 14.043 108.768 13.3031 108.96 12.5871C109.105 12.0607 109.347 11.5666 109.676 11.1308C109.938 10.7785 110.288 10.4998 110.689 10.3218C111.066 10.161 111.472 10.077 111.882 10.0748C112.23 10.0695 112.578 10.1009 112.921 10.1685C113.164 10.2155 113.401 10.2898 113.627 10.3899L113.397 11.2415C113.205 11.1373 112.999 11.0626 112.784 11.0201C112.518 10.9629 112.247 10.9343 111.975 10.9349C111.679 10.9351 111.387 11.0052 111.124 11.1393C110.835 11.2953 110.589 11.5207 110.408 11.7951C110.165 12.1718 109.995 12.5906 109.906 13.0299C109.776 13.6141 109.716 14.2116 109.727 14.8098C109.66 15.8036 109.885 16.7952 110.374 17.6628C110.553 17.955 110.803 18.1968 111.101 18.3652C111.399 18.5336 111.735 18.6231 112.077 18.6251C112.347 18.6298 112.615 18.5866 112.869 18.4974C113.083 18.4285 113.287 18.3311 113.474 18.2078L113.764 19.0169Z" fill="black"/>
<path d="M119.273 15.1589H115.909V19.366H114.938V10.2195H115.909V14.2306H119.273V10.2195H120.244V19.3319H119.273V15.1589Z" fill="black"/>
<path d="M123.327 13.626L122.773 12.1953H122.73L122.875 13.626V19.4001H121.938V10.1173H122.526L125.933 16.0191L126.469 17.3902H126.52L126.375 16.0191V10.2195H127.312V19.5108H126.716L123.327 13.626Z" fill="black"/>
<path d="M128.642 14.8098C128.567 13.5947 128.823 12.3821 129.383 11.3011C129.614 10.9127 129.948 10.5954 130.347 10.3837C130.747 10.1719 131.197 10.0739 131.648 10.1003C132.132 10.0857 132.611 10.2003 133.036 10.4324C133.423 10.6604 133.743 10.9865 133.964 11.3777C134.223 11.8382 134.401 12.3393 134.492 12.8595C134.614 13.5023 134.671 14.1556 134.663 14.8098C134.74 16.0287 134.48 17.2453 133.913 18.327C133.679 18.7118 133.344 19.0258 132.945 19.2358C132.546 19.4457 132.098 19.5437 131.648 19.5193C131.167 19.534 130.69 19.4193 130.268 19.1871C129.88 18.9611 129.558 18.6383 129.332 18.2503C129.064 17.7909 128.885 17.2854 128.804 16.76C128.689 16.1164 128.634 15.4635 128.642 14.8098ZM129.664 14.8098C129.665 15.2973 129.702 15.784 129.774 16.2661C129.839 16.6824 129.956 17.0887 130.124 17.4754C130.255 17.8054 130.465 18.098 130.737 18.327C130.991 18.541 131.316 18.6532 131.648 18.6421C131.959 18.6448 132.264 18.5579 132.527 18.3918C132.79 18.2256 132.999 17.9873 133.13 17.7053C133.526 16.8 133.701 15.8133 133.641 14.8268C133.641 14.3446 133.601 13.8632 133.522 13.3876C133.462 12.9683 133.348 12.5588 133.181 12.1697C133.049 11.8403 132.838 11.5481 132.568 11.3181C132.308 11.1076 131.982 10.996 131.648 11.003C131.344 11.0022 131.046 11.0883 130.79 11.2513C130.533 11.4143 130.329 11.6473 130.2 11.9228C129.801 12.8303 129.626 13.8204 129.689 14.8098H129.664Z" fill="black"/>
<path d="M140.471 19.366H136.085V10.2195H137.056V18.4377H140.462L140.471 19.366Z" fill="black"/>
<path d="M140.471 14.8098C140.396 13.5947 140.652 12.3821 141.212 11.3011C141.443 10.9127 141.777 10.5954 142.176 10.3837C142.576 10.1719 143.026 10.0739 143.477 10.1003C143.961 10.0857 144.44 10.2003 144.865 10.4324C145.252 10.6604 145.573 10.9865 145.793 11.3777C146.052 11.8382 146.231 12.3393 146.321 12.8595C146.439 13.5029 146.496 14.1558 146.492 14.8098C146.569 16.0287 146.31 17.2453 145.742 18.327C145.508 18.7118 145.173 19.0258 144.774 19.2358C144.375 19.4457 143.927 19.5437 143.477 19.5193C142.996 19.5353 142.519 19.4205 142.097 19.1871C141.709 18.9611 141.387 18.6383 141.161 18.2503C140.893 17.7909 140.714 17.2854 140.633 16.76C140.518 16.1164 140.464 15.4635 140.471 14.8098ZM141.493 14.8098C141.494 15.2973 141.531 15.784 141.603 16.2661C141.664 16.6832 141.781 17.0901 141.953 17.4754C142.084 17.8054 142.294 18.098 142.566 18.327C142.82 18.541 143.145 18.6532 143.477 18.6421C143.788 18.6448 144.093 18.5579 144.356 18.3918C144.619 18.2256 144.828 17.9873 144.959 17.7053C145.347 16.7978 145.519 15.8123 145.461 14.8268C145.464 14.3448 145.427 13.8634 145.351 13.3876C145.292 12.9683 145.177 12.5588 145.01 12.1697C144.878 11.8403 144.667 11.5481 144.397 11.3181C144.137 11.1076 143.811 10.996 143.477 11.003C143.169 10.9972 142.865 11.0811 142.604 11.2444C142.342 11.4076 142.134 11.6433 142.004 11.9228C141.605 12.8303 141.429 13.8204 141.493 14.8098Z" fill="black"/>
<path d="M150.391 14.8268H152.946V18.8295C152.679 19.0734 152.358 19.2513 152.01 19.3489C151.633 19.4602 151.243 19.5175 150.851 19.5193C150.396 19.528 149.945 19.4349 149.531 19.2467C149.128 19.0556 148.781 18.762 148.526 18.3951C148.22 17.9522 148 17.4551 147.879 16.9303C147.714 16.2359 147.637 15.5235 147.649 14.8098C147.633 14.0787 147.728 13.3494 147.93 12.6466C148.076 12.1178 148.325 11.6229 148.663 11.1904C148.936 10.8212 149.3 10.5281 149.719 10.3387C150.101 10.1636 150.516 10.0736 150.936 10.0747C151.288 10.0684 151.638 10.0969 151.984 10.1599C152.232 10.2044 152.472 10.2817 152.699 10.3898L152.469 11.2414C152.275 11.1359 152.065 11.0612 151.848 11.02C151.568 10.9606 151.282 10.932 150.996 10.9349C150.677 10.9323 150.362 11.0087 150.08 11.1573C149.798 11.3059 149.556 11.522 149.378 11.7865C149.129 12.1411 148.95 12.54 148.85 12.9617C148.709 13.5501 148.644 14.1538 148.654 14.7587C148.582 15.7606 148.797 16.7624 149.276 17.6457C149.453 17.9362 149.704 18.1748 150.003 18.3378C150.302 18.5007 150.639 18.5821 150.979 18.574C151.379 18.5876 151.772 18.4743 152.103 18.2503V15.6699L150.4 15.4144L150.391 14.8268Z" fill="black"/>
<path d="M155.936 15.7465L153.543 10.2195H154.667L156.302 14.1881L156.473 14.9886L156.643 14.137L158.252 10.2195H159.3L156.907 15.704V19.3319H155.928L155.936 15.7465Z" fill="black"/>
<path d="M162.706 10.3472C162.985 10.2706 163.27 10.2193 163.558 10.1939C163.873 10.1939 164.179 10.1514 164.477 10.1514C164.824 10.1527 165.17 10.1927 165.508 10.2706C165.841 10.3452 166.155 10.4904 166.428 10.6964C166.714 10.9231 166.942 11.2151 167.092 11.548C167.273 11.9905 167.358 12.4668 167.339 12.9447C167.353 13.4187 167.272 13.8906 167.1 14.3329C166.959 14.686 166.741 15.0031 166.462 15.2611C166.2 15.5013 165.889 15.6814 165.55 15.7891C165.208 15.8947 164.853 15.9492 164.494 15.951H164.077H163.822H163.651V19.4086H162.706V10.3472ZM164.563 11.0541C164.398 11.0453 164.233 11.0453 164.069 11.0541C163.939 11.0602 163.811 11.0802 163.685 11.1137V14.9886C163.739 14.9971 163.794 14.9971 163.847 14.9886H164.46C164.699 14.9921 164.937 14.9605 165.167 14.8949C165.389 14.8355 165.593 14.7246 165.763 14.5713C165.95 14.3853 166.095 14.1618 166.189 13.9156C166.304 13.5845 166.359 13.2355 166.351 12.8851C166.361 12.5742 166.309 12.2644 166.198 11.9739C166.116 11.7493 165.982 11.5477 165.806 11.3862C165.647 11.2375 165.454 11.1294 165.244 11.0711C165.018 11.0407 164.789 11.0407 164.563 11.0711V11.0541Z" fill="black"/>
<path d="M171.376 16.8196H168.821L168.097 19.3745H167.135L169.877 10.1259H170.371L173.113 19.3745H172.091L171.376 16.8196ZM169.068 15.968H171.137L170.371 13.1406L170.132 11.7695L169.886 13.1662L169.068 15.968Z" fill="black"/>
<path d="M174.042 10.3473C174.353 10.2732 174.669 10.2248 174.987 10.2026C175.328 10.2026 175.643 10.1515 175.924 10.1515C176.249 10.1491 176.573 10.1921 176.886 10.2792C177.182 10.3538 177.456 10.4967 177.687 10.6965C177.922 10.9075 178.106 11.1697 178.223 11.463C178.371 11.8426 178.441 12.2481 178.428 12.6552C178.451 13.2553 178.294 13.8486 177.977 14.3585C177.692 14.774 177.27 15.0756 176.784 15.2101L177.278 15.6956L179.075 19.3235H177.942L175.992 15.3549L175.013 15.159V19.3235H174.042V10.3473ZM175.013 14.5544H175.796C176.014 14.565 176.231 14.5295 176.433 14.4502C176.636 14.371 176.819 14.2497 176.972 14.0945C177.283 13.7018 177.435 13.2061 177.397 12.7063C177.415 12.2827 177.289 11.8656 177.04 11.5226C176.913 11.3642 176.751 11.2388 176.565 11.1573C176.38 11.0757 176.177 11.0403 175.975 11.0542C175.805 11.0542 175.626 11.0542 175.439 11.0542C175.295 11.0588 175.152 11.0788 175.013 11.1138V14.5544Z" fill="black"/>
<path d="M181.732 15.1504H181.264V19.366H180.284V10.2195H181.264V14.4776L181.715 14.2988L184.082 10.2195H185.207L182.822 14.154L182.371 14.5713L182.899 15.0908L185.539 19.3489H184.304L181.732 15.1504Z" fill="black"/>
<path d="M61.0137 27.9419C61.0135 28.1683 60.9878 28.394 60.9371 28.6147C60.8869 28.8387 60.8036 29.0539 60.6901 29.2534C60.5777 29.4538 60.4339 29.635 60.2643 29.7899C60.0865 29.9479 59.8777 30.0668 59.6511 30.1391V30.1902C59.8577 30.2369 60.0579 30.3084 60.2473 30.4031C60.4401 30.5085 60.6107 30.6502 60.7497 30.8204C60.9103 31.0138 61.0318 31.2365 61.1074 31.4762C61.1955 31.763 61.2386 32.0618 61.2352 32.3619C61.2437 32.7785 61.1684 33.1927 61.0137 33.5797C60.883 33.9077 60.6757 34.1997 60.4091 34.4313C60.1585 34.6435 59.8693 34.8055 59.5575 34.9082C59.2164 35.0185 58.8598 35.0731 58.5014 35.07H58.0756H57.5561L57.0196 35.0189C56.8552 35.0035 56.6926 34.9721 56.5342 34.9253V25.9491C56.7897 25.898 57.0963 25.8554 57.4454 25.8214C57.7946 25.7873 58.1778 25.7703 58.5866 25.7703C58.8725 25.7713 59.1577 25.7998 59.4382 25.8554C59.7215 25.9034 59.9914 26.0108 60.2302 26.1705C60.474 26.3361 60.6705 26.562 60.8008 26.8263C60.9581 27.1764 61.031 27.5585 61.0137 27.9419ZM58.0075 29.9177H58.4248H58.8165C59.1513 29.7868 59.4452 29.5693 59.6682 29.2875C59.9001 28.9788 60.0202 28.6004 60.0088 28.2144C60.0169 27.9684 59.9794 27.7229 59.8981 27.4906C59.829 27.3133 59.718 27.1555 59.5745 27.0307C59.435 26.9153 59.2723 26.8311 59.0976 26.7837C58.9107 26.7386 58.7192 26.7157 58.527 26.7156H57.9138L57.4965 26.7667V29.9518L58.0075 29.9177ZM58.544 34.1758C58.7648 34.1794 58.9842 34.1418 59.1913 34.0651C59.3902 33.9959 59.5707 33.8823 59.7193 33.733C59.8764 33.5826 59.9985 33.3994 60.0769 33.1965C60.167 32.9571 60.2104 32.7027 60.2047 32.447C60.2153 32.1546 60.16 31.8635 60.0429 31.5954C59.9489 31.3902 59.8019 31.2139 59.6171 31.0844C59.4409 30.9614 59.2406 30.8772 59.0294 30.8374C58.8047 30.7961 58.5766 30.7762 58.3481 30.7778H57.4965V34.0651C57.5645 34.072 57.6329 34.072 57.7009 34.0651H57.9734H58.28L58.544 34.1758Z" fill="black"/>
<path d="M66.4727 34.5335C66.2421 34.7388 65.9686 34.89 65.6722 34.9763C65.3459 35.0872 65.0033 35.1419 64.6587 35.1382C64.2883 35.1529 63.92 35.0769 63.5857 34.9167C63.285 34.7523 63.0303 34.5151 62.8448 34.2269C62.6398 33.8966 62.4929 33.5337 62.4104 33.1539C62.3137 32.6919 62.268 32.2206 62.2742 31.7487C62.2121 30.8544 62.4262 29.9625 62.8873 29.1938C63.0771 28.9204 63.3325 28.6991 63.6301 28.5503C63.9278 28.4015 64.2581 28.3299 64.5906 28.3422C64.8348 28.3434 65.078 28.3749 65.3145 28.4358C65.5589 28.4983 65.7823 28.6247 65.9617 28.802C66.1723 29.0185 66.3297 29.2809 66.4216 29.5685C66.5541 29.9838 66.6146 30.4188 66.6004 30.8545C66.6004 30.9992 66.6004 31.1611 66.6004 31.3314C66.6004 31.5017 66.6004 31.672 66.5579 31.8594H63.2535C63.2494 32.1992 63.2779 32.5385 63.3387 32.8728C63.3925 33.1452 63.4903 33.4069 63.6283 33.6478C63.7508 33.8527 63.9238 34.0227 64.1307 34.1418C64.3639 34.2645 64.6254 34.3233 64.8887 34.3121C65.1272 34.3118 65.3638 34.2685 65.587 34.1843C65.7826 34.1204 65.9625 34.0159 66.115 33.8777L66.4727 34.5335ZM65.7403 31.0503C65.7902 30.5571 65.6955 30.06 65.4678 29.6196C65.3819 29.472 65.2569 29.351 65.1066 29.2699C64.9564 29.1888 64.7867 29.1506 64.6161 29.1597C64.4318 29.1536 64.2488 29.1922 64.0827 29.2723C63.9166 29.3524 63.7723 29.4716 63.6623 29.6196C63.3913 30.0477 63.2467 30.5437 63.245 31.0503H65.7403Z" fill="black"/>
<path d="M68.9418 33.4349C68.9151 33.6488 68.9444 33.866 69.0269 34.0651C69.0628 34.1255 69.114 34.1754 69.1753 34.2098C69.2366 34.2442 69.3058 34.2618 69.3761 34.261C69.5932 34.2514 69.8068 34.2023 70.0063 34.1162L70.1 34.8741C69.9516 34.9571 69.7904 35.0147 69.6231 35.0445C69.4411 35.0835 69.2556 35.1035 69.0695 35.1041C68.9223 35.1097 68.7755 35.0855 68.6379 35.0328C68.5003 34.9801 68.3748 34.9 68.269 34.7975C68.0355 34.4914 67.9288 34.1071 67.9709 33.7244V25.8724H68.9077L68.9418 33.4349Z" fill="black"/>
<path d="M75.0654 35.283C75.1196 35.9506 74.9187 36.614 74.5034 37.1395C74.2904 37.3491 74.0351 37.5108 73.7546 37.6136C73.474 37.7164 73.1747 37.758 72.8767 37.7356C72.5186 37.7447 72.1608 37.7075 71.8122 37.6249C71.5785 37.571 71.3525 37.488 71.1394 37.378L71.4119 36.5263C71.5823 36.603 71.7781 36.6796 71.9825 36.7478C72.2312 36.8214 72.4898 36.8559 72.749 36.85C72.9534 36.875 73.1608 36.8475 73.3515 36.77C73.5423 36.6925 73.7101 36.5676 73.8391 36.4071C74.0663 35.963 74.1693 35.4657 74.1372 34.9679V34.4824C73.9988 34.6796 73.8147 34.8403 73.6006 34.9508C73.3362 35.0802 73.0428 35.1389 72.749 35.1212C72.4374 35.1347 72.1281 35.0624 71.8548 34.9123C71.5815 34.7621 71.3547 34.5398 71.199 34.2695C70.8189 33.4741 70.6488 32.5945 70.7051 31.7146C70.6373 30.8153 70.8645 29.9184 71.3523 29.1598C71.5757 28.8718 71.8666 28.6434 72.1994 28.4948C72.5322 28.3463 72.8965 28.2821 73.26 28.3081C73.6124 28.3005 73.9644 28.3377 74.3075 28.4188C74.5766 28.4887 74.8388 28.5828 75.091 28.6999L75.0654 35.283ZM74.1372 29.4067C73.8235 29.2587 73.4788 29.1886 73.1322 29.2023C72.9177 29.2027 72.7069 29.2586 72.5204 29.3646C72.3339 29.4705 72.1779 29.6229 72.0677 29.807C71.7577 30.4019 71.6191 31.0712 71.6674 31.7402C71.6643 32.0761 71.6842 32.4119 71.727 32.7451C71.7658 33.0232 71.8402 33.2951 71.9485 33.5542C72.0392 33.7612 72.1761 33.9447 72.3487 34.0907C72.5198 34.2201 72.7305 34.2864 72.9449 34.278C73.2278 34.295 73.5061 34.2002 73.7199 34.014C73.9393 33.7974 74.0852 33.5174 74.1372 33.2135V29.4067Z" fill="black"/>
<path d="M76.5897 28.4699H77.254L77.4243 29.1598C77.5354 28.9295 77.6987 28.7282 77.9012 28.5721C78.1073 28.426 78.3556 28.3512 78.6081 28.3592C78.8394 28.3625 79.069 28.3998 79.2894 28.4699L79.102 29.4238C78.9111 29.3521 78.7097 29.3119 78.5059 29.3045C78.2579 29.2954 78.0163 29.3841 77.8331 29.5515C77.6501 29.7194 77.5299 29.9447 77.4925 30.1902V34.9764H76.5557L76.5897 28.4699Z" fill="black"/>
<path d="M80.0987 28.8617C80.3838 28.6933 80.6945 28.5725 81.0184 28.504C81.3887 28.4106 81.7693 28.3648 82.1511 28.3678C82.4432 28.3617 82.7332 28.4168 83.0027 28.5296C83.214 28.6292 83.3959 28.7817 83.5307 28.9724C83.6542 29.167 83.7381 29.3841 83.7777 29.6111C83.8155 29.8592 83.8354 30.1096 83.8373 30.3606C83.8373 30.8801 83.8373 31.391 83.8373 31.885C83.8373 32.3789 83.8373 32.8473 83.8373 33.2902C83.8373 33.733 83.8373 33.9289 83.8373 34.2099C83.8543 34.4797 83.8942 34.7475 83.9565 35.0104H83.2241L82.9942 34.2355H82.9431C82.8059 34.4738 82.6131 34.6755 82.381 34.8231C82.0753 35.0043 81.7224 35.0903 81.3676 35.0701C81.1537 35.0758 80.941 35.0354 80.7441 34.9517C80.5472 34.8679 80.3706 34.7427 80.2264 34.5846C79.8999 34.2052 79.7349 33.7131 79.7665 33.2135C79.7541 32.8908 79.8183 32.5698 79.9539 32.2767C80.0696 32.0273 80.2524 31.815 80.4819 31.6636C80.7408 31.4972 81.0304 31.3842 81.3335 31.3314C81.6812 31.263 82.0352 31.2316 82.3896 31.2377H82.9176C82.9176 30.9737 82.9176 30.7353 82.9176 30.5224C82.9486 30.1617 82.8715 29.8 82.6961 29.4834C82.5968 29.3727 82.472 29.2877 82.3326 29.2358C82.1931 29.1839 82.0432 29.1665 81.8956 29.1853C81.6307 29.1873 81.3672 29.2246 81.1121 29.296C80.8613 29.3504 80.6202 29.4423 80.3967 29.5686L80.0987 28.8617ZM82.892 32.0127H82.6365H82.381C82.1784 32.0125 81.9761 32.0296 81.7764 32.0638C81.5902 32.0925 81.411 32.1561 81.2484 32.2512C81.0992 32.3353 80.9733 32.4553 80.8822 32.6003C80.7874 32.7722 80.7403 32.9663 80.7459 33.1624C80.7279 33.4518 80.819 33.7375 81.0014 33.9629C81.0798 34.0577 81.179 34.1331 81.2912 34.1833C81.4035 34.2335 81.5258 34.2572 81.6486 34.2525C81.9559 34.2771 82.2608 34.1825 82.5003 33.9885C82.6821 33.8354 82.8226 33.6393 82.909 33.4179L82.892 32.0127Z" fill="black"/>
<path d="M89.4668 32.7451C89.4668 33.1879 89.4668 33.5967 89.4668 33.9459C89.4736 34.3021 89.5021 34.6576 89.5519 35.0104H88.9132L88.7088 34.2269H88.6577C88.5307 34.491 88.3333 34.715 88.0871 34.8741C87.8089 35.0552 87.4822 35.1473 87.1503 35.1381C86.836 35.1549 86.5231 35.0842 86.2465 34.9338C85.9699 34.7835 85.7403 34.5594 85.5834 34.2865C85.1845 33.4968 85.0051 32.6144 85.0639 31.7316C84.9989 30.8348 85.2195 29.9405 85.6941 29.1768C85.887 28.9067 86.1431 28.6879 86.44 28.5395C86.7368 28.391 87.0655 28.3174 87.3973 28.3251C87.5997 28.3227 87.8019 28.337 88.002 28.3677C88.1645 28.407 88.3239 28.4583 88.4789 28.521V25.8724H89.4668V32.7451ZM88.53 29.5004C88.4117 29.3973 88.2721 29.3217 88.1212 29.2789C87.9248 29.2223 87.7208 29.1964 87.5165 29.2023C87.2979 29.1975 87.0821 29.253 86.8928 29.3627C86.7036 29.4723 86.5481 29.6319 86.4435 29.824C86.1483 30.4236 86.0161 31.0903 86.0603 31.7572C86.0595 32.1018 86.0822 32.4461 86.1284 32.7877C86.167 33.063 86.2415 33.3321 86.3498 33.5882C86.4347 33.7915 86.5694 33.9702 86.7416 34.1077C86.9153 34.2311 87.1247 34.2939 87.3377 34.2865C87.9594 34.2865 88.3597 33.9203 88.53 33.1879V29.5004Z" fill="black"/>
<path d="M94.883 34.5335C94.6567 34.7403 94.3856 34.8919 94.091 34.9763C93.7646 35.0865 93.422 35.1412 93.0775 35.1381C92.713 35.1488 92.3511 35.0729 92.0215 34.9167C91.7208 34.7523 91.4661 34.5151 91.2806 34.2269C91.0745 33.8981 90.9302 33.5345 90.8548 33.1539C90.758 32.6919 90.7124 32.2206 90.7185 31.7487C90.6565 30.8543 90.8705 29.9625 91.3317 29.1938C91.5203 28.9193 91.7755 28.6971 92.0734 28.5481C92.3713 28.3992 92.7022 28.3283 93.0349 28.3422C93.2791 28.3439 93.5222 28.3754 93.7588 28.4358C94.0015 28.4966 94.2225 28.6233 94.3975 28.802C94.611 29.0163 94.7688 29.2794 94.8574 29.5685C94.9899 29.9838 95.0504 30.4187 95.0363 30.8545C95.0363 30.9992 95.0363 31.161 95.0363 31.3314C95.0363 31.5017 95.0363 31.672 94.9852 31.8594H91.6808C91.6793 32.1994 91.7106 32.5388 91.7745 32.8728C91.8211 33.1471 91.9194 33.4101 92.0641 33.6478C92.1833 33.8523 92.3535 34.0225 92.558 34.1417C92.7938 34.2656 93.0584 34.3244 93.3245 34.3121C93.563 34.3111 93.7994 34.2678 94.0228 34.1843C94.2159 34.1204 94.3931 34.0159 94.5423 33.8777L94.883 34.5335ZM94.1591 31.0503C94.2094 30.5561 94.1116 30.0581 93.878 29.6196C93.7929 29.4714 93.668 29.3498 93.5176 29.2686C93.3672 29.1873 93.1971 29.1496 93.0264 29.1597C92.8432 29.1528 92.6611 29.1911 92.4962 29.2713C92.3313 29.3515 92.1888 29.4712 92.0811 29.6196C91.8062 30.0459 91.6612 30.543 91.6638 31.0503H94.1591Z" fill="black"/>
</svg>
