<svg width="53" height="50" viewBox="0 0 53 50" fill="none" xmlns="http://www.w3.org/2000/svg">
<path d="M0.284668 44.6043V39.3366C0.284668 37.8205 1.29541 36.8182 2.75931 36.8182C4.2232 36.8182 5.26427 37.8289 5.26427 39.3366V44.6043C5.26427 46.1204 4.24173 47.1311 2.75931 47.1311C1.27688 47.1311 0.284668 46.1153 0.284668 44.6043ZM4.24173 44.6616V39.2928C4.24173 38.3579 3.63865 37.711 2.75931 37.711C1.87996 37.711 1.3072 38.3579 1.3072 39.2928V44.6616C1.3072 45.583 1.89681 46.2299 2.75931 46.2299C3.62181 46.2299 4.24173 45.583 4.24173 44.6616Z" fill="black"/>
<path d="M10.921 43.4098C10.921 43.9421 10.921 44.4323 10.9059 44.9647C10.8621 46.2298 10.1293 47.1226 8.96354 47.1226C8.68758 47.1331 8.41326 47.0756 8.16475 46.9552C7.91623 46.8347 7.70113 46.6551 7.5384 46.4319C7.4946 46.3881 7.46596 46.4185 7.46596 46.4606V49.6613C7.46719 49.6804 7.46434 49.6996 7.45758 49.7175C7.45082 49.7354 7.44032 49.7517 7.42677 49.7653C7.41322 49.7788 7.39693 49.7893 7.379 49.7961C7.36106 49.8028 7.34189 49.8057 7.32277 49.8044H6.5883C6.56917 49.8057 6.55 49.8028 6.53207 49.7961C6.51413 49.7893 6.49785 49.7788 6.4843 49.7653C6.47075 49.7517 6.46024 49.7354 6.45348 49.7175C6.44672 49.6996 6.44387 49.6804 6.44511 49.6613V39.8739C6.44387 39.8548 6.44672 39.8356 6.45348 39.8177C6.46024 39.7997 6.47075 39.7834 6.4843 39.7699C6.49785 39.7563 6.51413 39.7458 6.53207 39.7391C6.55 39.7323 6.56917 39.7295 6.5883 39.7307H7.32277C7.34189 39.7295 7.36106 39.7323 7.379 39.7391C7.39693 39.7458 7.41322 39.7563 7.42677 39.7699C7.44032 39.7834 7.45082 39.7997 7.45758 39.8177C7.46434 39.8356 7.46719 39.8548 7.46596 39.8739V40.2917C7.46596 40.3355 7.4946 40.3641 7.5384 40.3203C7.70007 40.095 7.91456 39.9129 8.16303 39.7898C8.41151 39.6668 8.68638 39.6065 8.96354 39.6145C10.1141 39.6145 10.8486 40.5359 10.9059 41.8179C10.921 42.3452 10.921 42.8775 10.921 43.4098ZM9.89848 44.7912C9.91364 44.2858 9.89848 43.74 9.89848 43.366V41.9459C9.91364 41.1036 9.40996 40.5073 8.66032 40.5073C7.96965 40.5073 7.46596 41.0834 7.46596 41.9459V44.7962C7.46596 45.6604 7.97133 46.2348 8.66032 46.2348C9.3948 46.2298 9.91364 45.652 9.89848 44.7912Z" fill="black"/>
<path d="M16.1451 43.7552H12.8635C12.8487 43.7564 12.8348 43.7628 12.8243 43.7733C12.8138 43.7838 12.8074 43.7977 12.8062 43.8125V44.8637C12.8062 45.6689 13.3116 46.2299 14.0292 46.2299C14.3184 46.2338 14.5994 46.134 14.8212 45.9486C15.0431 45.7632 15.1913 45.5044 15.2388 45.2191C15.2674 45.1332 15.3095 45.0911 15.3971 45.0911L16.1164 45.1197C16.1362 45.1192 16.1557 45.1233 16.1737 45.1315C16.1916 45.1397 16.2075 45.1519 16.22 45.1672C16.2325 45.1825 16.2413 45.2004 16.2459 45.2196C16.2504 45.2388 16.2505 45.2588 16.2461 45.2781C16.0878 46.4 15.296 47.1193 14.0292 47.1193C12.6614 47.1193 11.7837 46.2417 11.7837 44.9176V41.8129C11.7837 40.5175 12.6614 39.6095 14.0292 39.6095C15.4257 39.6095 16.2882 40.5175 16.2882 41.8129V43.612C16.2895 43.6312 16.2866 43.6503 16.2799 43.6683C16.2731 43.6862 16.2626 43.7025 16.2491 43.716C16.2355 43.7296 16.2192 43.7401 16.2013 43.7469C16.1833 43.7536 16.1642 43.7565 16.1451 43.7552ZM12.8062 41.8837V42.8489C12.8074 42.8637 12.8138 42.8776 12.8243 42.8881C12.8348 42.8986 12.8487 42.9051 12.8635 42.9062H15.2219C15.2367 42.9051 15.2506 42.8986 15.2611 42.8881C15.2716 42.8776 15.278 42.8637 15.2792 42.8489V41.8837C15.2792 41.0633 14.7738 40.5023 14.0275 40.5023C13.3099 40.5023 12.8062 41.0633 12.8062 41.8837Z" fill="black"/>
<path d="M21.6569 41.9123V46.8632C21.6581 46.8824 21.6553 46.9017 21.6485 46.9197C21.6418 46.9377 21.6313 46.9541 21.6178 46.9678C21.6043 46.9814 21.588 46.9921 21.5701 46.9991C21.5521 47.006 21.5329 47.0091 21.5137 47.0081H20.7725C20.7533 47.0091 20.7341 47.006 20.7162 46.9991C20.6982 46.9921 20.682 46.9814 20.6684 46.9678C20.6549 46.9541 20.6445 46.9377 20.6377 46.9197C20.631 46.9017 20.6281 46.8824 20.6293 46.8632V41.9999C20.6293 41.0633 20.2115 40.5174 19.4771 40.5174C18.714 40.5174 18.2389 41.107 18.2389 42.0706V46.8632C18.2401 46.8824 18.2373 46.9017 18.2305 46.9197C18.2238 46.9377 18.2133 46.9541 18.1998 46.9678C18.1863 46.9814 18.17 46.9921 18.1521 46.9991C18.1341 47.006 18.1149 47.0091 18.0957 47.0081H17.3612C17.342 47.0091 17.3228 47.006 17.3049 46.9991C17.287 46.9921 17.2707 46.9814 17.2572 46.9678C17.2437 46.9541 17.2332 46.9377 17.2264 46.9197C17.2197 46.9017 17.2168 46.8824 17.2181 46.8632V39.8689C17.2168 39.8498 17.2197 39.8306 17.2264 39.8127C17.2332 39.7947 17.2437 39.7784 17.2572 39.7649C17.2708 39.7513 17.2871 39.7408 17.305 39.7341C17.323 39.7273 17.3421 39.7245 17.3612 39.7257H18.0957C18.1148 39.7245 18.134 39.7273 18.1519 39.7341C18.1699 39.7408 18.1862 39.7513 18.1997 39.7649C18.2133 39.7784 18.2238 39.7947 18.2305 39.8127C18.2373 39.8306 18.2401 39.8498 18.2389 39.8689V40.3439C18.2389 40.3877 18.2827 40.4012 18.3113 40.3591C18.4817 40.1234 18.7074 39.9331 18.9685 39.8051C19.2297 39.677 19.5182 39.615 19.8089 39.6246C20.9949 39.6246 21.6569 40.4736 21.6569 41.9123Z" fill="black"/>
<path d="M27.7601 39.7106C27.7601 41.3665 26.8386 42.4598 25.4573 42.4598H23.9732C23.9582 42.4609 23.9441 42.4673 23.9333 42.4778C23.9225 42.4882 23.9157 42.5022 23.9142 42.5171V46.8633C23.9154 46.8825 23.9126 46.9017 23.9058 46.9197C23.8991 46.9378 23.8886 46.9541 23.8751 46.9678C23.8615 46.9815 23.8453 46.9922 23.8274 46.9991C23.8094 47.0061 23.7902 47.0092 23.771 47.0082H23.0365C23.0173 47.0092 22.9981 47.0061 22.9802 46.9991C22.9623 46.9922 22.946 46.9815 22.9325 46.9678C22.919 46.9541 22.9085 46.9378 22.9017 46.9197C22.895 46.9017 22.8921 46.8825 22.8933 46.8633V37.0608C22.8921 37.0416 22.895 37.0225 22.9017 37.0045C22.9085 36.9866 22.919 36.9703 22.9325 36.9568C22.9461 36.9432 22.9624 36.9327 22.9803 36.926C22.9982 36.9192 23.0174 36.9163 23.0365 36.9176H25.4118C26.8235 36.9193 27.7601 38.0412 27.7601 39.7106ZM26.7375 39.7258C26.7375 38.56 26.1479 37.8104 25.2838 37.8104H23.9732C23.9579 37.8116 23.9436 37.8182 23.9328 37.829C23.9219 37.8398 23.9154 37.8541 23.9142 37.8694V41.567C23.9154 41.5823 23.9219 41.5966 23.9328 41.6074C23.9436 41.6182 23.9579 41.6248 23.9732 41.626H25.2821C26.1479 41.626 26.7375 40.8915 26.7375 39.7258Z" fill="black"/>
<path d="M31.6161 39.8117C31.6466 39.831 31.6701 39.8596 31.6832 39.8932C31.6962 39.9269 31.6981 39.9639 31.6885 39.9987L31.5302 40.7331C31.515 40.8342 31.4443 40.8477 31.3432 40.8191C31.1521 40.739 30.9411 40.7191 30.7384 40.7618C30.0477 40.8056 29.5592 41.567 29.5592 42.5457V46.8633C29.5604 46.8825 29.5576 46.9017 29.5508 46.9198C29.5441 46.9378 29.5336 46.9541 29.5201 46.9678C29.5066 46.9815 29.4903 46.9922 29.4724 46.9991C29.4544 47.0061 29.4352 47.0092 29.416 47.0082H28.6816C28.6623 47.0092 28.6431 47.0061 28.6252 46.9991C28.6073 46.9922 28.591 46.9815 28.5775 46.9678C28.564 46.9541 28.5535 46.9378 28.5468 46.9198C28.54 46.9017 28.5372 46.8825 28.5384 46.8633V39.869C28.5371 39.8498 28.54 39.8307 28.5467 39.8127C28.5535 39.7948 28.564 39.7785 28.5776 39.765C28.5911 39.7514 28.6074 39.7409 28.6253 39.7341C28.6433 39.7274 28.6624 39.7245 28.6816 39.7258H29.416C29.4352 39.7245 29.4543 39.7274 29.4723 39.7341C29.4902 39.7409 29.5065 39.7514 29.52 39.765C29.5336 39.7785 29.5441 39.7948 29.5508 39.8127C29.5576 39.8307 29.5605 39.8498 29.5592 39.869V40.7331C29.5592 40.7904 29.603 40.7904 29.6317 40.7466C29.8759 40.0997 30.3055 39.6533 30.9995 39.6533C31.2159 39.6465 31.4298 39.7014 31.6161 39.8117Z" fill="black"/>
<path d="M31.9614 44.921V41.8129C31.9614 40.5175 32.8391 39.6095 34.2221 39.6095C35.6052 39.6095 36.4946 40.5175 36.4946 41.8129V44.921C36.4946 46.245 35.6035 47.1227 34.2221 47.1227C32.8408 47.1227 31.9614 46.245 31.9614 44.921ZM35.4738 44.8637V41.8837C35.4738 41.0633 34.9549 40.5023 34.2221 40.5023C33.4893 40.5023 32.984 41.0633 32.984 41.8837V44.8637C32.984 45.6689 33.4893 46.2299 34.2221 46.2299C34.9549 46.2299 35.4738 45.6689 35.4738 44.8637Z" fill="black"/>
<path d="M36.1931 49.8635V49.2604C36.1919 49.2412 36.1948 49.2219 36.2015 49.2039C36.2083 49.1859 36.2187 49.1695 36.2323 49.1559C36.2458 49.1422 36.2621 49.1315 36.28 49.1246C36.2979 49.1176 36.3171 49.1145 36.3363 49.1155C37.1567 49.0869 37.5021 48.5259 37.5021 47.6482V39.8689C37.5011 39.8497 37.5041 39.8305 37.5111 39.8125C37.5181 39.7946 37.5287 39.7783 37.5424 39.7648C37.5561 39.7513 37.5725 39.7408 37.5905 39.7341C37.6085 39.7273 37.6277 39.7245 37.6469 39.7257H38.3814C38.4005 39.7245 38.4197 39.7273 38.4376 39.7341C38.4556 39.7408 38.4719 39.7513 38.4854 39.7649C38.499 39.7784 38.5095 39.7947 38.5162 39.8126C38.523 39.8306 38.5258 39.8498 38.5246 39.8689V47.6415C38.5246 49.0801 38.1355 49.9999 36.3346 49.9999C36.3163 50.0006 36.298 49.9976 36.2809 49.991C36.2637 49.9845 36.2481 49.9745 36.2349 49.9618C36.2217 49.949 36.2112 49.9338 36.204 49.9169C36.1968 49.9 36.1931 49.8818 36.1931 49.8635ZM37.3016 37.6739C37.3016 37.5803 37.32 37.4876 37.3558 37.4012C37.3916 37.3147 37.4441 37.2362 37.5103 37.17C37.5765 37.1038 37.655 37.0514 37.7415 37.0155C37.8279 36.9797 37.9206 36.9613 38.0142 36.9613C38.1077 36.9613 38.2004 36.9797 38.2869 37.0155C38.3733 37.0514 38.4519 37.1038 38.518 37.17C38.5842 37.2362 38.6367 37.3147 38.6725 37.4012C38.7083 37.4876 38.7267 37.5803 38.7267 37.6739C38.7267 37.7675 38.7083 37.8601 38.6725 37.9466C38.6367 38.033 38.5842 38.1116 38.518 38.1777C38.4519 38.2439 38.3733 38.2964 38.2869 38.3322C38.2004 38.368 38.1077 38.3865 38.0142 38.3865C37.9206 38.3865 37.8279 38.368 37.7415 38.3322C37.655 38.2964 37.5765 38.2439 37.5103 38.1777C37.4441 38.1116 37.3916 38.033 37.3558 37.9466C37.32 37.8601 37.3016 37.7675 37.3016 37.6739Z" fill="black"/>
<path d="M43.907 43.7552H40.6255C40.6107 43.7564 40.5968 43.7628 40.5863 43.7733C40.5758 43.7838 40.5694 43.7977 40.5682 43.8125V44.8637C40.5682 45.6689 41.0736 46.2299 41.7912 46.2299C42.0804 46.2338 42.3613 46.134 42.5832 45.9486C42.8051 45.7632 42.9532 45.5044 43.0007 45.2191C43.0069 45.1821 43.0264 45.1486 43.0556 45.125C43.0848 45.1014 43.1216 45.0894 43.1591 45.0911L43.8784 45.1197C43.8982 45.1189 43.918 45.1227 43.9361 45.1308C43.9542 45.1389 43.9702 45.1512 43.9828 45.1665C43.9954 45.1819 44.0042 45.2 44.0086 45.2193C44.013 45.2387 44.0128 45.2588 44.0081 45.2781C43.8498 46.4 43.058 47.1193 41.7912 47.1193C40.425 47.1193 39.5474 46.2417 39.5474 44.9176V41.8129C39.5474 40.5175 40.425 39.6095 41.7912 39.6095C43.1877 39.6095 44.0519 40.5175 44.0519 41.8129V43.612C44.0529 43.6313 44.0498 43.6505 44.0429 43.6684C44.0359 43.6863 44.0252 43.7026 44.0116 43.7161C43.9979 43.7296 43.9815 43.7401 43.9635 43.7468C43.9455 43.7536 43.9262 43.7564 43.907 43.7552ZM40.5682 41.8837V42.8489C40.5694 42.8637 40.5758 42.8776 40.5863 42.8881C40.5968 42.8986 40.6107 42.9051 40.6255 42.9062H42.9839C42.9987 42.9051 43.0126 42.8986 43.0231 42.8881C43.0336 42.8776 43.04 42.8637 43.0412 42.8489V41.8837C43.0412 41.0633 42.5358 40.5023 41.7878 40.5023C41.0719 40.5023 40.5682 41.0633 40.5682 41.8837Z" fill="black"/>
<path d="M44.8276 44.921V41.8129C44.8276 40.531 45.7053 39.6095 47.0732 39.6095C48.4411 39.6095 49.3474 40.531 49.3474 41.6108V41.754C49.3486 41.7733 49.3457 41.7927 49.3388 41.8108C49.332 41.829 49.3214 41.8454 49.3077 41.8591C49.294 41.8729 49.2775 41.8835 49.2593 41.8903C49.2412 41.8972 49.2218 41.9001 49.2025 41.8988L48.4697 41.9275C48.4515 41.9291 48.4332 41.927 48.4159 41.9212C48.3986 41.9155 48.3827 41.9062 48.3691 41.8941C48.3555 41.8819 48.3446 41.8671 48.337 41.8505C48.3293 41.8339 48.3252 41.816 48.3248 41.7978V41.6832C48.3218 41.5231 48.2868 41.3651 48.222 41.2187C48.1571 41.0722 48.0636 40.9402 47.947 40.8303C47.8304 40.7205 47.6931 40.635 47.543 40.579C47.393 40.523 47.2332 40.4975 47.0732 40.504C46.3539 40.504 45.8502 41.065 45.8502 41.8854V44.8502C45.8502 45.6706 46.3555 46.2316 47.0732 46.2316C47.2332 46.2381 47.393 46.2126 47.543 46.1566C47.6931 46.1005 47.8304 46.0151 47.947 45.9052C48.0636 45.7954 48.1571 45.6634 48.222 45.5169C48.2868 45.3704 48.3218 45.2125 48.3248 45.0524V44.9513C48.3238 44.9321 48.3269 44.9129 48.3339 44.8949C48.3408 44.877 48.3515 44.8607 48.3652 44.8472C48.3788 44.8337 48.3952 44.8232 48.4132 44.8165C48.4313 44.8097 48.4505 44.8069 48.4697 44.8081L49.2025 44.8216C49.2218 44.8203 49.2412 44.8232 49.2593 44.8301C49.2775 44.8369 49.294 44.8475 49.3077 44.8613C49.3214 44.875 49.332 44.8914 49.3388 44.9096C49.3457 44.9277 49.3486 44.9471 49.3474 44.9664V45.1248C49.3474 46.2467 48.4545 47.1244 47.0732 47.1244C45.6918 47.1244 44.8276 46.245 44.8276 44.921Z" fill="black"/>
<path d="M52.5714 40.4888H51.4765C51.4617 40.49 51.4478 40.4964 51.4373 40.5069C51.4268 40.5174 51.4204 40.5313 51.4192 40.5461V44.9496C51.4192 45.871 51.7561 46.1153 52.3541 46.1018H52.499C52.5181 46.1006 52.5373 46.1034 52.5552 46.1102C52.5732 46.1169 52.5895 46.1275 52.603 46.141C52.6166 46.1546 52.6271 46.1708 52.6338 46.1888C52.6406 46.2067 52.6434 46.2259 52.6422 46.245V46.8632C52.6434 46.8824 52.6406 46.9017 52.6338 46.9197C52.6271 46.9377 52.6166 46.9541 52.6031 46.9678C52.5895 46.9814 52.5733 46.9921 52.5554 46.9991C52.5374 47.006 52.5182 47.0091 52.499 47.0081H52.1385C51.1177 47.0081 50.4118 46.7049 50.4118 45.2528V40.5461C50.4107 40.5313 50.4043 40.5174 50.3938 40.5069C50.3833 40.4964 50.3694 40.49 50.3545 40.4888H49.7936C49.7742 40.49 49.7549 40.4871 49.7367 40.4803C49.7186 40.4735 49.7021 40.4628 49.6884 40.4491C49.6747 40.4354 49.6641 40.4189 49.6572 40.4008C49.6504 40.3827 49.6475 40.3633 49.6487 40.3439V39.8689C49.6477 39.8497 49.6508 39.8305 49.6578 39.8125C49.6647 39.7946 49.6754 39.7784 49.6891 39.7648C49.7027 39.7513 49.7191 39.7408 49.7371 39.7341C49.7552 39.7273 49.7744 39.7245 49.7936 39.7257H50.3545C50.3694 39.7245 50.3833 39.7181 50.3938 39.7076C50.4043 39.6971 50.4107 39.6832 50.4118 39.6684V38.0563C50.4106 38.0369 50.4135 38.0176 50.4203 37.9994C50.4272 37.9813 50.4378 37.9648 50.4515 37.9511C50.4652 37.9374 50.4817 37.9268 50.4998 37.9199C50.518 37.9131 50.5374 37.9102 50.5567 37.9114H51.276C51.2952 37.9104 51.3144 37.9135 51.3324 37.9205C51.3503 37.9274 51.3665 37.9381 51.3801 37.9518C51.3936 37.9654 51.4041 37.9818 51.4108 37.9998C51.4176 38.0179 51.4204 38.0371 51.4192 38.0563V39.6684C51.4204 39.6832 51.4268 39.6971 51.4373 39.7076C51.4478 39.7181 51.4617 39.7245 51.4765 39.7257H52.5714C52.5906 39.7245 52.6097 39.7273 52.6277 39.7341C52.6456 39.7408 52.6619 39.7513 52.6754 39.7649C52.689 39.7784 52.6995 39.7947 52.7063 39.8127C52.713 39.8306 52.7159 39.8498 52.7146 39.8689V40.3439C52.7158 40.3631 52.713 40.3824 52.7062 40.4004C52.6995 40.4184 52.689 40.4348 52.6755 40.4485C52.662 40.4621 52.6457 40.4728 52.6278 40.4798C52.6099 40.4867 52.5907 40.4898 52.5714 40.4888Z" fill="black"/>
<path d="M27.6252 24.2579C27.6243 24.272 27.6243 24.286 27.6252 24.3001C27.6398 24.7878 27.8439 25.2507 28.194 25.5905C28.5442 25.9304 29.013 26.1205 29.501 26.1205C29.989 26.1205 30.4577 25.9304 30.8079 25.5905C31.1581 25.2507 31.3621 24.7878 31.3768 24.3001C31.3785 24.2844 31.3785 24.2686 31.3768 24.2529V19.7601H27.6252V24.2579Z" fill="#0770B8"/>
<path d="M36.3799 8.23534e-05H33.8783C33.0591 -0.00413282 32.2471 0.153503 31.4889 0.46394C30.7308 0.774378 30.0414 1.2315 29.4604 1.80907C28.8794 2.38664 28.4182 3.07328 28.1032 3.82957C27.7883 4.58587 27.6258 5.39691 27.6252 6.21616V13.7563H16.6198C15.8006 13.7521 14.9886 13.9097 14.2305 14.2202C13.4723 14.5306 12.7829 14.9877 12.2019 15.5653C11.6209 16.1429 11.1597 16.8295 10.8448 17.5858C10.5298 18.3421 10.3674 19.1531 10.3667 19.9724V24.9756C10.3653 26.6378 11.0225 28.233 12.1945 29.4118C13.3664 30.5907 14.9576 31.2573 16.6198 31.2658H19.1214C20.7837 31.2573 22.3749 30.5907 23.5468 29.4118C24.7187 28.233 25.3759 26.6378 25.3746 24.9756V19.9724C25.3746 19.8898 25.3746 19.7601 25.3746 19.7601H21.623V24.9823C21.6235 25.6494 21.3613 26.2898 20.8931 26.7649C20.4249 27.24 19.7884 27.5117 19.1214 27.521H16.6198C15.9529 27.5117 15.3164 27.24 14.8482 26.7649C14.38 26.2898 14.1177 25.6494 14.1182 24.9823V19.9791C14.1193 19.6527 14.1851 19.3296 14.3116 19.0287C14.4382 18.7278 14.6231 18.4549 14.8556 18.2257C15.0882 17.9966 15.3638 17.8158 15.6666 17.6938C15.9694 17.5717 16.2934 17.5108 16.6198 17.5146H36.3799C38.042 17.5066 39.6332 16.8403 40.8052 15.6617C41.9771 14.4831 42.6344 12.8882 42.633 11.2261V6.21616C42.6324 5.39691 42.4699 4.58587 42.155 3.82957C41.84 3.07328 41.3788 2.38664 40.7978 1.80907C40.2168 1.2315 39.5274 0.774378 38.7693 0.46394C38.0111 0.153503 37.1991 -0.00413282 36.3799 8.23534e-05ZM38.8815 11.2193C38.882 11.8862 38.6197 12.5265 38.1515 13.0013C37.6832 13.4762 37.0467 13.7475 36.3799 13.7563H31.3851V6.21616C31.3862 5.88969 31.4519 5.56667 31.5785 5.26573C31.7051 4.96479 31.89 4.69189 32.1225 4.46277C32.3551 4.23365 32.6307 4.05285 32.9335 3.93079C33.2363 3.80874 33.5603 3.74785 33.8867 3.75163H36.3883C36.7141 3.74896 37.0371 3.81068 37.3389 3.93324C37.6408 4.0558 37.9154 4.23678 38.1471 4.46579C38.3787 4.69479 38.5629 4.96732 38.6889 5.2677C38.8149 5.56808 38.8804 5.89041 38.8815 6.21616V11.2193Z" fill="#0770B8"/>
</svg>
