<svg width="45" height="45" viewBox="0 0 45 45" fill="none" xmlns="http://www.w3.org/2000/svg">
<g clip-path="url(#clip0_2705_1002)">
<path fill-rule="evenodd" clip-rule="evenodd" d="M11.1148 3.36603L20.9698 15.696C22.2028 17.118 19.9528 19.044 18.7828 17.577L8.85582 5.17503C7.72182 3.75303 9.98082 1.95303 11.1148 3.36603Z" fill="#F15B24"/>
<path fill-rule="evenodd" clip-rule="evenodd" d="M9.19778 38.934L19.7188 25.758C20.8348 24.246 23.1568 26.091 21.9778 27.567L11.4658 40.743C10.3318 42.156 8.07278 40.347 9.19778 38.934Z" fill="#B6DCAE"/>
<path fill-rule="evenodd" clip-rule="evenodd" d="M27.5311 43.9561L23.7961 27.5131C23.3101 25.6951 26.1991 25.0381 26.6221 26.8741L30.3571 43.3171C30.7531 45.0811 27.9361 45.7201 27.5311 43.9561Z" fill="#B092C4"/>
<path fill-rule="evenodd" clip-rule="evenodd" d="M31.266 20.691C29.817 21.483 29.529 23.589 31.266 24.525L43.893 30.609C45.522 31.392 44.271 34.002 42.642 33.219L30.042 27.126C26.424 25.389 25.695 20.106 30.114 18.009L42.57 11.961C44.199 11.178 45.459 13.779 43.83 14.571L31.266 20.691Z" fill="#FFE600"/>
<path fill-rule="evenodd" clip-rule="evenodd" d="M23.8499 17.442L27.6029 1.02604C28.0619 -0.710957 30.8249 -0.0989567 30.4289 1.66504L26.7029 18.126C26.1179 21.267 24.3539 24.012 20.6999 24.012H18.1349H1.8089C-0.000101507 24.012 -0.000101507 21.114 1.8089 21.114H18.5309H20.0519C22.2119 21.123 23.3459 19.98 23.8499 17.442Z" fill="#5EA8DC"/>
</g>
<defs>
<clipPath id="clip0_2705_1002">
<rect width="45" height="45" fill="white"/>
</clipPath>
</defs>
</svg>
