<?xml version="1.0" encoding="UTF-8" standalone="no"?>
<!-- Created with Inkscape (http://www.inkscape.org/) -->

<svg
   version="1.1"
   id="svg2"
   width="231.32001"
   height="367.30667"
   viewBox="0 0 231.32001 367.30667"
   sodipodi:docname="ETF Robotics horizontalna boja.eps"
   xmlns:inkscape="http://www.inkscape.org/namespaces/inkscape"
   xmlns:sodipodi="http://sodipodi.sourceforge.net/DTD/sodipodi-0.dtd"
   xmlns="http://www.w3.org/2000/svg"
   xmlns:svg="http://www.w3.org/2000/svg">
  <defs
     id="defs6" />
  <sodipodi:namedview
     id="namedview4"
     pagecolor="#ffffff"
     bordercolor="#000000"
     borderopacity="0.25"
     inkscape:showpageshadow="2"
     inkscape:pageopacity="0.0"
     inkscape:pagecheckerboard="0"
     inkscape:deskcolor="#d1d1d1" />
  <g
     id="g8"
     inkscape:groupmode="layer"
     inkscape:label="ink_ext_XXXXXX"
     transform="matrix(1.3333333,0,0,-1.3333333,0,367.30667)">
    <g
       id="g10"
       transform="scale(0.1)">
      <path
         d="m 288.668,374.5 h -40.031 v -67.16 h 42.015 c 25.801,0 40.024,11.59 40.024,33.082 0,16.539 -7.942,34.078 -42.008,34.078 z m 29.766,-97.262 c 16.214,-26.136 32.754,-51.597 48.957,-77.738 1.66,-1.66 2.652,-6.949 2.652,-8.93 0,-10.261 -9.922,-17.859 -18.855,-17.859 -6.618,0 -11.911,2.641 -15.219,7.937 l -57.231,93.282 h -30.101 v -84.032 c 0,-9.25 -8.602,-17.527 -18.532,-17.527 -9.582,0 -17.859,7.938 -17.859,17.527 v 198.821 c 0,10.59 9.258,19.851 20.176,19.851 h 57.566 c 58.219,0 77.078,-34.41 77.078,-68.148 0,-34.063 -18.859,-55.57 -48.632,-63.184"
         style="fill:#28292b;fill-opacity:1;fill-rule:nonzero;stroke:none"
         id="path12" />
      <path
         d="m 435.25,326.191 v -68.14 c 0,-30.75 13.887,-51.93 44.656,-51.93 30.43,0 44.66,21.18 44.66,51.93 v 68.14 c 0,30.77 -11.914,51.61 -44.66,51.61 -32.75,0 -44.656,-20.84 -44.656,-51.61 z m -36.398,-68.14 v 68.14 c 0,46.321 22.832,85.348 81.054,85.348 58.219,0 81.051,-39.027 81.051,-85.348 v -68.14 c 0,-47.641 -27.133,-86.012 -81.051,-86.012 -53.922,0 -81.054,38.371 -81.054,86.012"
         style="fill:#28292b;fill-opacity:1;fill-rule:nonzero;stroke:none"
         id="path14" />
      <path
         d="M 634.75,279.219 V 209.09 h 38.707 c 27.449,0 41.016,13.558 41.016,34.082 0,23.156 -17.532,36.047 -40.684,36.047 z m 38.043,34.082 c 16.543,0 35.398,10.258 35.398,32.41 0,15.23 -7.937,29.117 -31.425,29.117 H 634.75 v -61.527 z m -53.59,-137.949 c -11.914,0 -20.844,8.929 -20.844,19.859 v 193.508 c 0,11.25 9.602,19.851 20.844,19.851 h 55.902 c 46.321,0 69.469,-30.769 69.469,-62.519 0,-25.801 -16.531,-40.031 -38.695,-49.949 21.172,-7.614 44.984,-20.184 44.984,-52.93 0,-38.043 -29.437,-67.82 -77.074,-67.82 h -54.586"
         style="fill:#28292b;fill-opacity:1;fill-rule:nonzero;stroke:none"
         id="path16" />
      <path
         d="m 813.086,326.191 v -68.14 c 0,-30.75 13.887,-51.93 44.656,-51.93 30.434,0 44.66,21.18 44.66,51.93 v 68.14 c 0,30.77 -11.914,51.61 -44.66,51.61 -32.746,0 -44.656,-20.84 -44.656,-51.61 z m -36.391,-68.14 v 68.14 c 0,46.321 22.825,85.348 81.047,85.348 58.219,0 81.051,-39.027 81.051,-85.348 v -68.14 c 0,-47.641 -27.133,-86.012 -81.051,-86.012 -53.918,0 -81.047,38.371 -81.047,86.012"
         style="fill:#28292b;fill-opacity:1;fill-rule:nonzero;stroke:none"
         id="path18" />
      <path
         d="m 1013.92,374.5 h -40.029 c -10.582,0 -18.188,7.941 -18.188,16.871 0,7.609 7.934,17.199 18.188,17.199 h 116.449 c 9.26,0 18.52,-7.609 18.52,-17.199 0,-8.93 -8.59,-16.871 -18.52,-16.871 h -40.03 V 189.238 c 0,-8.929 -8.27,-17.199 -18.19,-17.199 -10.26,0 -18.2,8.27 -18.2,17.199 V 374.5"
         style="fill:#28292b;fill-opacity:1;fill-rule:nonzero;stroke:none"
         id="path20" />
      <path
         d="m 1138,394.352 c 0,9.257 7.94,17.187 18.2,17.187 9.91,0 18.19,-7.93 18.19,-17.187 V 189.238 c 0,-8.929 -8.28,-17.199 -18.19,-17.199 -10.26,0 -18.2,8.27 -18.2,17.199 v 205.114"
         style="fill:#28292b;fill-opacity:1;fill-rule:nonzero;stroke:none"
         id="path22" />
      <path
         d="m 1210.46,326.191 c 0,51.61 24.81,85.348 79.39,85.348 32.43,0 63.52,-14.551 63.52,-31.75 0,-8.598 -7.27,-15.879 -16.87,-15.879 -6.29,0 -8.27,2.309 -13.23,5.289 l -1.65,1 c -8.93,6.281 -18.53,9.25 -30.11,9.25 -33.75,0 -44.65,-20.488 -44.65,-53.258 v -68.14 c 0,-32.75 10.9,-53.262 44.65,-53.262 11.58,0 21.18,2.981 30.11,8.93 l 1.65,1 c 4.96,2.98 6.94,5.293 13.23,5.293 9.6,0 16.87,-7.274 16.87,-15.551 0,-17.531 -31.09,-31.75 -63.52,-31.75 -54.58,0 -79.39,33.738 -79.39,85.34 v 68.14"
         style="fill:#28292b;fill-opacity:1;fill-rule:nonzero;stroke:none"
         id="path24" />
      <path
         d="m 1468.52,268.641 c -32.76,15.879 -88.99,16.871 -88.99,76.41 0,41.359 27.79,66.488 71.78,66.488 17.86,0 61.54,-4.289 61.54,-26.117 0,-8.602 -6.96,-16.543 -18.2,-16.543 -11.58,0 -19.52,8.922 -41.35,8.922 -18.86,0 -36.39,-6.949 -36.39,-31.09 0,-18.199 9.92,-24.481 16.54,-27.781 33.41,-17.211 88.99,-17.211 88.99,-76.09 0,-45 -33.08,-70.469 -77.41,-70.469 -22.83,0 -65.83,7.277 -65.83,27.789 0,8.602 7.27,16.871 16.87,16.871 9.93,0 22.82,-10.91 49.29,-10.91 26.14,0 39.36,12.57 39.36,34.399 0,17.871 -9.26,24.468 -16.2,28.121"
         style="fill:#28292b;fill-opacity:1;fill-rule:nonzero;stroke:none"
         id="path26" />
      <path
         d="m 893.609,1611.58 -191.171,54.23 61.976,284.83 226.008,-64.1 -96.813,-274.96"
         style="fill:#707475;fill-opacity:1;fill-rule:evenodd;stroke:none"
         id="path28" />
      <path
         d="m 1173.44,1629.41 -9.68,-118.61 -349.787,36.42 15.531,137.1 343.936,-54.91"
         style="fill:#707475;fill-opacity:1;fill-rule:evenodd;stroke:none"
         id="path30" />
      <path
         d="m 775.605,1644.81 -73.167,21 61.976,284.83 70.32,-19.94 -59.129,-285.89"
         style="fill:#28292b;fill-opacity:1;fill-rule:evenodd;stroke:none"
         id="path32" />
      <path
         d="m 893.609,1611.58 -64.078,13.31 89.309,281.52 71.582,-19.87 -96.813,-274.96"
         style="fill:#c2c3c1;fill-opacity:1;fill-rule:evenodd;stroke:none"
         id="path34" />
      <path
         d="m 1164.19,1547.76 -0.49,-42.13 -349.446,36.1 3.879,42.14 346.057,-36.11"
         style="fill:#28292b;fill-opacity:1;fill-rule:evenodd;stroke:none"
         id="path36" />
      <path
         d="m 1173.42,1629.39 -5.09,-44.99 -344.846,46.83 6.02,53.09 343.916,-54.93"
         style="fill:#c2c3c1;fill-opacity:1;fill-rule:evenodd;stroke:none"
         id="path38" />
      <path
         d="m 978.855,2181.46 -103.5,-260.75 -374.359,116.51 143.563,361.69 334.296,-217.45"
         style="fill:#707475;fill-opacity:1;fill-rule:evenodd;stroke:none"
         id="path40" />
      <path
         d="m 978.934,2180.25 -35.118,-88.46 -347.8,184.82 48.543,122.3 334.375,-218.66"
         style="fill:#c2c3c1;fill-opacity:1;fill-rule:evenodd;stroke:none"
         id="path42" />
      <path
         d="m 903.59,1991.85 -28.973,-74.4 -373.621,119.78 47.731,120.24 354.863,-165.62"
         style="fill:#28292b;fill-opacity:1;fill-rule:evenodd;stroke:none"
         id="path44" />
      <path
         d="m 1075.63,1942.19 c -46.53,-86.71 -154.56,-119.28 -241.271,-72.74 -86.703,46.54 -119.261,154.57 -72.722,241.27 46.539,86.71 154.562,119.29 241.273,72.75 86.7,-46.54 119.26,-154.57 72.72,-241.28"
         style="fill:#28292b;fill-opacity:1;fill-rule:evenodd;stroke:none"
         id="path46" />
      <path
         d="m 1016.65,1974.41 c -28.982,-54 -96.259,-74.26 -150.259,-45.28 -53.993,28.98 -74.274,96.24 -45.289,150.25 28.992,54.01 96.257,74.28 150.253,45.3 54.005,-28.98 74.285,-96.25 45.295,-150.27"
         style="fill:#54b879;fill-opacity:1;fill-rule:evenodd;stroke:none"
         id="path48" />
      <path
         d="m 881.781,1577.57 c -29.293,-54.57 -97.308,-75.09 -151.883,-45.79 -54.585,29.3 -75.078,97.31 -45.789,151.89 29.293,54.57 97.313,75.09 151.891,45.78 54.574,-29.28 75.074,-97.3 45.781,-151.88"
         style="fill:#28292b;fill-opacity:1;fill-rule:evenodd;stroke:none"
         id="path50" />
      <path
         d="m 844.645,1597.86 c -18.239,-33.98 -60.598,-46.75 -94.579,-28.5 -33.992,18.24 -46.75,60.59 -28.515,94.57 18.254,34 60.601,46.77 94.59,28.53 33.98,-18.24 46.754,-60.59 28.504,-94.6"
         style="fill:#2f5e8d;fill-opacity:1;fill-rule:evenodd;stroke:none"
         id="path52" />
      <path
         d="m 1316.24,1399.31 -16.62,147.28 94.79,104.7 189.49,-58.77 18.93,60.97 -184.88,107.23 -252.52,-179.75 108.27,-285.22 214.89,-10.53 17.16,55.27 -189.51,58.82"
         style="fill:#28292b;fill-opacity:1;fill-rule:evenodd;stroke:none"
         id="path54" />
      <path
         d="m 1270.04,1534.93 c -14.5,-46.14 -63.65,-71.78 -109.8,-57.28 -46.13,14.49 -71.79,63.64 -57.3,109.79 14.51,46.15 63.68,71.8 109.81,57.31 46.15,-14.5 71.79,-63.67 57.29,-109.82"
         style="fill:#28292b;fill-opacity:1;fill-rule:evenodd;stroke:none"
         id="path56" />
      <path
         d="m 1238.59,1545.07 c -9.02,-28.72 -39.64,-44.71 -68.38,-35.68 -28.73,9.03 -44.7,39.65 -35.67,68.38 9.03,28.73 39.64,44.72 68.38,35.69 28.73,-9.03 44.7,-39.66 35.67,-68.39"
         style="fill:#cdcecc;fill-opacity:1;fill-rule:evenodd;stroke:none"
         id="path58" />
      <path
         d="m 420.621,2059.49 42.817,-24.97 c 16.597,-9.68 37.214,-5.29 46.035,9.83 L 692.992,2359 c 8.813,15.11 2.477,35.22 -14.121,44.91 l -42.816,24.97 -215.434,-369.39"
         style="fill:#28292b;fill-opacity:1;fill-rule:evenodd;stroke:none"
         id="path60" />
      <path
         d="m 1426.27,1977.59 c -0.96,75.3 -17.47,145.24 -49.94,224.05 -135.8,329.61 -514.435,487.29 -844.045,351.5 C 202.664,2417.34 44.9883,2038.69 180.785,1709.09 316.582,1379.47 695.219,1221.8 1024.84,1357.6 l -35.172,85.35 c -282.543,-116.41 -607.113,18.76 -723.527,301.31 -116.399,282.54 18.765,607.11 301.308,723.51 282.547,116.41 607.121,-18.75 723.521,-301.29 27.08,-65.73 40.32,-133.71 41.47,-200.84 l -66.07,-8.41 127.21,-108.01 96.08,136.44 -63.39,-8.07"
         style="fill:#28292b;fill-opacity:1;fill-rule:evenodd;stroke:none"
         id="path62" />
      <path
         d="m 535.684,513.949 h -246.93 c -38.191,0 -72.668,13.039 -72.668,54.981 v 546.95 c 0,27.02 24.223,54.97 57.766,54.97 h 252.511 c 27.961,0 51.254,-22.35 51.254,-49.37 0,-27.03 -23.293,-46.59 -51.254,-46.59 H 318.574 V 891.32 H 508.66 c 25.156,0 50.313,-20.492 50.313,-47.531 0,-27.019 -22.356,-48.449 -50.313,-48.449 H 318.574 V 608.988 h 217.11 c 27.019,0 51.246,-20.488 51.246,-45.648 0,-27.969 -23.297,-49.391 -51.246,-49.391"
         style="fill:#28292b;fill-opacity:1;fill-rule:nonzero;stroke:none"
         id="path64" />
      <path
         d="M 811.484,1074.89 H 698.738 c -29.816,0 -51.254,22.35 -51.254,47.51 0,21.43 22.368,48.45 51.254,48.45 h 327.992 c 26.09,0 52.18,-21.43 52.18,-48.45 0,-25.16 -24.23,-47.51 -52.18,-47.51 H 913.973 V 553.078 c 0,-25.156 -23.289,-48.449 -51.243,-48.449 -28.886,0 -51.246,23.293 -51.246,48.449 v 521.812"
         style="fill:#28292b;fill-opacity:1;fill-rule:nonzero;stroke:none"
         id="path66" />
      <path
         d="m 1263.39,553.078 c 0,-25.156 -23.29,-48.449 -51.24,-48.449 -28.89,0 -51.25,23.293 -51.25,48.449 v 562.802 c 0,27.02 24.23,54.97 57.77,54.97 h 252.51 c 27.96,0 51.26,-22.35 51.26,-48.45 0,-27.02 -23.3,-46.59 -51.26,-46.59 H 1263.39 V 891.32 h 190.09 c 25.16,0 50.31,-20.492 50.31,-47.531 0,-27.019 -22.36,-48.449 -50.31,-48.449 H 1263.39 V 553.078"
         style="fill:#28292b;fill-opacity:1;fill-rule:nonzero;stroke:none"
         id="path68" />
    </g>
  </g>
</svg>
