<svg xmlns="http://www.w3.org/2000/svg" xmlns:xlink="http://www.w3.org/1999/xlink" id="Layer_1" x="0px" y="0px" viewBox="0 0 256 114.1" style="enable-background:new 0 0 256 114.1;" xml:space="preserve"> <style type="text/css"> .st0{fill:#184D7B;} .st1{fill:#1A1A1A;} </style> <g> <path class="st0" d="M120.4,27.8c3.7-2.7,7.4-5.3,11.3-7.5c7.6-4.4,15.5-8.2,24.3-9.9c3.7-0.8,7.5-1.1,11.3,0.1 c2.6,0.9,4.4,2.6,4.9,5.4c0.5,3.1-0.4,6.1-1.7,8.9c-3.1,6.6-7.7,11.9-12.8,16.9c-5.6,5.5-11.8,10.3-18.4,14.5 c-0.4,0.2-0.7,0.7-1.4,0.5c4.2-3,8-6.2,11.3-10c2.1-2.4,3.9-4.9,4.7-8.1c0.7-3.1-0.4-5.2-3.4-6.2c-3-1-6-0.7-9-0.1 c-5.6,1-10.9,3-16,5.4c-0.6,0.3-0.7,0.5-0.5,1.1c1.1,3.5,2.2,7,2.8,10.6c0.7,4.1,1.2,8.2,1,12.4c0,0.6,0,1.2-0.3,1.9 c-0.4-5.5-1.6-10.8-3.3-16c-1.8-5.4-4.1-10.6-7.7-15.1c-1-1.2-2-2.4-3.4-3.1c-2.2-1.3-4.1-0.8-5.3,1.4c-1.5,2.7-1.6,5.7-1.6,8.8 c0,2.7,0.3,5.3,0.7,7.9c0.1,0.6,0.1,1.1-0.5,1.6c-3.8,2.9-7.1,6.3-9.9,10.2c-1,1.4-1.7,3-2.2,5c-0.7-2.1-0.6-3.9-0.2-5.7 c1.1-4.6,3.6-8.6,6.4-12.3c1.2-1.5,2.4-3,3.7-4.5c0.5-0.5,0.6-1,0.4-1.7c-1.1-5-1.9-10-1.5-15.1c0.1-1.9,0.3-3.8,1.2-5.5 c1.9-3.8,4.1-3.5,6.7-1.9c3.3,2,5.2,5.2,7.2,8.4C119.6,26.4,120,27.1,120.4,27.8z"/> <path class="st1" d="M27.7,103.9c-1.8,0-3.3,0-4.9,0c-0.6,0-0.8-0.4-1-0.8c-1.3-2.6-2.7-5.3-4-7.9c-0.1-0.2-0.1-0.5-0.6-0.6 c0,2.3,0,4.5,0,6.7c0,2.6,0,2.6-2.7,2.6c-2.2,0-2.2,0-2.2-2.2c0-8.4,0-16.9,0-25.3c0-0.9,0.2-1.2,1.2-1.2c1.9,0.1,3.7-0.1,5.6,0.2 c4.8,0.7,7.6,3.6,7.9,8.5c0.2,4-0.7,7.5-4.2,9.9c-0.6,0.4-0.2,0.8,0,1.1c1.5,2.7,3,5.4,4.5,8.2C27.5,103.3,27.5,103.5,27.7,103.9z M21.9,85.1c0-1-0.1-2-0.5-2.9c-0.6-1.5-1.9-2.3-3.4-2.4c-0.6,0-0.7,0.2-0.7,0.7c0,3.2,0,6.3,0,9.5c0,0.6,0.3,0.7,0.8,0.6 c1.5-0.2,2.7-0.9,3.3-2.3C21.8,87.3,21.9,86.2,21.9,85.1z"/> <path class="st1" d="M129.1,94.4c0,2.8,0,5.6,0,8.4c0,0.8-0.2,1.2-1,1.1c-0.9-0.1-1.8-0.1-2.7,0c-0.8,0.1-0.8-0.2-0.8-0.9 c0-8.9,0-17.9,0-26.8c0-0.8,0.3-1,1-1c1.2,0.1,2.7-0.5,3.4,0.2c0.7,0.7,0.2,2.2,0.2,3.3c0,4.2,0,8.4,0.2,12.7 c0.4-0.9,0.9-1.8,1.3-2.7c0.6-1.3,1.2-2.7,1.8-4.1c0.2-0.6,0.5-0.7,1.1-0.7c1,0,2.1,0.1,3.1,0c0.8,0,0.8,0.2,0.5,0.8 c-1.1,2.4-2.2,4.8-3.4,7.2c-0.3,0.7-0.3,1.2,0,1.9c1.3,3,2.5,6,3.8,9c0.3,0.7,0.3,0.9-0.5,0.9c-1.2-0.1-2.7,0.4-3.7-0.2 c-1-0.6-1.1-2.2-1.5-3.3c-0.8-2-1.6-4-2.4-6C129.2,94.4,129.1,94.4,129.1,94.4z"/> <path class="st1" d="M190.5,84.1c-1.2,2.5-2.2,5-3.4,7.3c-0.6,1.1-0.6,2.1-0.1,3.3c1.3,2.7,2.3,5.5,3.6,8.3c0.4,0.9,0.1,1-0.7,1 c-0.9,0-1.9-0.1-2.8,0c-0.7,0.1-0.9-0.2-1.1-0.8c-1-2.7-2.1-5.3-3.1-7.9c-0.1-0.3-0.3-0.6-0.6-0.9c0,0.8,0,1.6,0,2.4 c0,2.1,0,4.3,0,6.4c0,0.7-0.2,1-0.9,0.9c-0.2,0-0.5,0-0.7,0c-1-0.1-2.3,0.4-2.8-0.2c-0.5-0.6-0.2-1.9-0.2-2.9c0-8.1,0-16.3,0-24.4 c0-0.9,0.2-1.3,1.2-1.2c0.8,0.1,1.6,0.1,2.4,0c0.9-0.1,1,0.3,1,1.1c0,4.9,0,9.7,0,14.6c0,0.2,0,0.4,0,0.6c0.1,0,0.1,0,0.2,0 c1-2.2,2-4.3,2.9-6.5c0.4-0.9,0.8-1.1,1.7-1.1C188.1,84.1,189.2,84.1,190.5,84.1z"/> <path class="st1" d="M199.5,101.7c-0.4,0.2-0.5,0.7-0.8,1c-1.1,1.4-2.5,1.9-4.2,1.6c-1.7-0.3-2.6-1.5-2.9-3.1 c-0.2-0.8-0.3-1.6-0.3-2.4c0-4.6,0-9.2,0-13.8c0-0.7,0.2-1,0.9-0.9c0.8,0.1,1.7,0.1,2.5,0c1.1-0.1,1.2,0.3,1.2,1.2 c-0.1,3.8,0,7.6,0,11.4c0,0.5,0,1.1,0.1,1.6c0.1,0.7,0.5,1.1,1.2,1.2c0.7,0.1,1.2-0.2,1.5-0.8c0.4-0.7,0.4-1.5,0.4-2.3 c0-3.8,0-7.5,0-11.3c0-0.8,0.2-1.1,1-1c1.2,0.1,2.8-0.5,3.5,0.2c0.6,0.7,0.2,2.2,0.2,3.4c0,5.1,0,10.1,0,15.2c0,0.8-0.2,1.1-1,1 c-0.2,0-0.4,0-0.6,0c-0.8,0-1.7,0.2-2.4-0.1C199.2,103.5,199.9,102.4,199.5,101.7z"/> <path class="st1" d="M76.1,86.5c1.1-1.8,2.3-3,4.4-2.9c1.6,0.1,2.7,0.9,3.3,2.3c0.4,1,0.5,2.1,0.5,3.2c0,4.6,0,9.2,0,13.8 c0,0.7-0.2,1-1,0.9c-1.2-0.1-2.8,0.5-3.5-0.3c-0.6-0.7-0.2-2.2-0.2-3.4c0-3.1,0-6.2,0-9.2c0-0.3,0-0.5,0-0.8 c-0.1-0.9-0.4-1.6-1.4-1.7c-1-0.1-1.4,0.5-1.7,1.4c-0.2,0.6-0.2,1.1-0.2,1.7c0,3.8,0,7.5,0,11.3c0,0.9-0.3,1.1-1.1,1 c-0.9-0.1-1.8-0.1-2.7,0c-0.7,0-0.9-0.2-0.9-0.9c0-6,0-12,0-18c0-0.8,0.2-1,1-0.9c0.3,0,0.6,0,0.9,0C75.9,84.1,75.9,84.1,76.1,86.5 z"/> <path class="st1" d="M64.6,101.8c-1.1,1.4-2.2,2.5-4,2.6c-1.8,0.1-3.1-0.8-3.8-2.5c-0.4-1-0.5-2.1-0.5-3.1c0-4.6,0-9.1,0-13.7 c0-0.8,0.1-1.1,1-1c0.9,0.1,1.8,0.1,2.6,0c0.9-0.1,1.1,0.3,1,1.1c0,3.9,0,7.8,0,11.6c0,0.2,0,0.3,0,0.5c0,1.5,0.5,2.2,1.5,2.2 c1,0,1.7-0.8,1.7-2.2c0.1-4,0.1-8.1,0-12.1c0-1,0.2-1.3,1.2-1.2c0.8,0.1,1.7,0.1,2.5,0c0.8-0.1,1,0.2,1,1c0,5,0,10,0,15 c0,0.9,0,1.9,0,2.8c0,0.7-0.1,1-0.9,1c-0.8-0.1-1.5-0.1-2.3,0c-0.8,0.1-1.1-0.2-1-1C64.7,102.5,64.6,102.2,64.6,101.8z"/> <path class="st1" d="M170.2,91.8c0-0.1,0.1-0.1,0.1-0.2c0.1-3.3-0.8-4.2-4.1-3.9c-0.6,0.1-1.1,0.2-1.7,0.4c-0.6,0.2-0.7,0-0.7-0.5 c0-0.9,0-1.9,0-2.8c0-0.5,0.2-0.7,0.6-0.8c2.1-0.5,4.2-0.7,6.3-0.1c2.3,0.6,3.6,2.1,3.8,4.4c0.3,3.2,0.1,6.5,0.1,9.7 c0,1.7,0,3.4,0,5.1c0,0.6-0.1,0.8-0.8,0.8c-0.5,0-0.9,0-1.4,0c-1.8,0-1.8,0-2-1.6c-0.3,0-0.3,0.3-0.5,0.4c-2.2,2.5-5.6,2.2-7.2-0.7 c-1.4-2.7-1.5-5.6-0.3-8.4C164,90.6,167.1,89.9,170.2,91.8z M166.4,97.3c0,0.2,0,0.5,0.1,0.8c0.2,1,0.8,1.7,1.8,1.7 c1.1,0,1.7-0.6,1.9-1.6c0.2-0.8,0.2-1.7-0.1-2.5c-0.3-0.9-0.9-1.3-1.8-1.3c-0.9,0-1.5,0.4-1.8,1.3 C166.4,96.2,166.4,96.7,166.4,97.3z"/> <path class="st1" d="M95.2,102c-1.2,1.8-2.7,2.7-4.8,2.2c-1.8-0.4-2.8-1.7-3.4-3.4c-0.8-2.4-0.9-4.8,0.1-7.1 c1.2-2.8,4.1-3.8,6.8-2.4c0.3,0.1,0.5,0.3,0.8,0.4c0.5-2.9-0.5-4.1-3.3-4c-0.8,0-1.6,0.1-2.3,0.4c-0.5,0.2-0.7,0-0.7-0.5 c0-0.5,0-1.1,0-1.6c0-2,0-2,2-2.3c1.6-0.2,3.2-0.3,4.8,0.1c2.5,0.6,4,2.3,4,4.8c0.1,4.8,0,9.6,0.1,14.5c0,0.5-0.1,0.8-0.7,0.7 c-0.5,0-1.1,0-1.6,0C95.3,103.9,95.3,103.9,95.2,102z M90.9,97.4c0,0.2,0.1,0.6,0.2,1.1c0.3,0.8,0.8,1.3,1.8,1.3 c0.9,0,1.5-0.4,1.8-1.3c0.3-1,0.3-1.9,0-2.9c-0.2-0.7-0.8-1.1-1.5-1.2C91.7,94.2,90.9,95.2,90.9,97.4z"/> <path class="st1" d="M36.7,91.8c0.2-0.8,0.1-1.5,0-2.1c-0.2-1.2-1-1.8-2.1-1.9c-1.2-0.1-2.4-0.1-3.5,0.3c-0.6,0.2-0.8,0-0.7-0.6 c0-0.9,0.1-1.8,0-2.7c0-0.6,0.3-0.8,0.8-0.9c2-0.3,4-0.6,6-0.1c2.5,0.6,3.9,2.2,4,4.8c0.1,2.4,0,4.8,0.1,7.2c0,2.4,0,4.7,0,7.1 c0,0.8-0.2,1-1,1c-0.5,0-0.9,0-1.4,0c-1.7,0-1.7,0-1.8-1.6c-0.4,0-0.4,0.3-0.5,0.5c-2.2,2.5-5.6,2.2-7.2-0.8 c-1.3-2.6-1.5-5.4-0.4-8.2C30.4,90.7,33.4,89.9,36.7,91.8z M36.8,97.1c0-0.6,0-1.2-0.3-1.8c-0.4-0.7-1-0.9-1.7-0.9 c-0.7,0-1.2,0.2-1.5,0.8c-0.6,1.1-0.6,2.3-0.1,3.5c0.2,0.6,0.7,0.9,1.4,1C36,100,36.8,99.1,36.8,97.1z"/> <path class="st1" d="M230.8,94.5c-1.2,0-2.4,0-3.5,0c-0.4,0-0.7,0-0.7,0.6c0,1.2,0.1,2.4,0.5,3.6c0.3,0.8,0.8,1.4,1.7,1.4 c0.9-0.1,1.4-0.7,1.6-1.5c0.2-1.1,0.8-1.2,1.7-1.1c0.5,0.1,1,0,1.5,0c1.7,0,1.7,0,1.3,1.7c-0.7,3.1-2.6,4.8-5.4,5.1 c-2.9,0.3-5.3-1.1-6.4-4c-1.7-4.3-1.7-8.8,0.1-13.1c0.9-2.2,2.7-3.6,5.2-3.6c2.6-0.1,4.3,1.2,5.4,3.4c1.1,2.2,1.3,4.5,1.4,6.9 c0,0.5-0.2,0.6-0.7,0.6C233.3,94.5,232.1,94.5,230.8,94.5z M228.5,91.6c2.2,0,2.2,0,1.8-2c-0.2-0.9-0.5-1.8-1.7-1.8 c-1.2,0-1.5,0.9-1.7,1.8C226.5,91.6,226.5,91.6,228.5,91.6z"/> <path class="st1" d="M155.2,95.6c0-2.4,0-4.8,0-7.2c0-0.5,0.1-1.1-0.7-1c-0.3,0-0.4-0.1-0.4-0.4c0-0.8,0-1.7,0-2.5 c0-0.2,0.1-0.4,0.3-0.4c1.2,0.1,0.9-0.7,0.9-1.4c0.1-1.3-0.1-2.5,0.1-3.8c0.4-2.4,1.5-3.5,3.9-3.7c0.5,0,1,0,1.5-0.1 c0.5,0,0.8,0.2,0.7,0.7c0,0.8,0,1.5,0,2.3c0,0.7,0.2,1.4-0.9,1.4c-0.4,0-0.6,0.4-0.6,0.7c-0.2,1.1-0.1,2.2-0.1,3.3 c0,0.2,0.1,0.4,0.3,0.4c1.5-0.2,1,0.9,1,1.6c0,0.4,0,0.8,0,1.3c0,0.3-0.1,0.5-0.4,0.5c-0.9-0.1-0.9,0.5-0.9,1.1c0,4.8,0,9.6,0,14.4 c0,0.8-0.2,1.1-1,1c-0.8-0.1-1.6-0.1-2.4,0c-0.9,0.1-1.3-0.1-1.3-1.2C155.3,100.3,155.2,98,155.2,95.6z"/> <path class="st1" d="M51.3,97.4c0.9,0.5,1.9,1.1,2.9,1.5c1,0.4,1,0.9,0.6,1.7c-0.7,1.5-1.7,2.7-3.3,3.3c-2.2,0.8-4.6,0.2-6-1.8 c-0.3-0.4-0.5-0.7-0.7-1.2c-1.9-4.8-1.9-9.6,0.1-14.3c1-2.4,3-3.4,5.4-3.2c1.9,0.2,4.1,2.2,4.4,4c0.1,0.3-0.1,0.5-0.3,0.6 c-1.1,0.6-2.1,1.3-3.3,1.9c-0.1-0.5-0.2-0.9-0.4-1.3c-0.1-0.4-0.3-0.8-0.8-0.8c-0.5,0-0.8,0.3-1.1,0.7c-0.3,0.7-0.4,1.5-0.5,2.3 c-0.2,2.4-0.3,4.9,0.3,7.3c0.2,0.7,0.3,1.5,1.1,1.5c1,0,1-0.9,1.2-1.5C51,98,50.9,97.7,51.3,97.4z"/> <path class="st1" d="M219.5,76.9c0,2.2,0,4.2,0,6.2c0,0.6,0,1.1,0.8,1c0.7-0.1,0.5,0.6,0.5,0.9c-0.2,0.8,0.6,2.1-0.4,2.4 c-0.9,0.2-0.9,0.6-0.9,1.2c0,4.7,0,9.5,0,14.2c0,0.9-0.2,1.2-1.1,1.1c-0.9-0.1-1.8-0.1-2.6,0c-0.8,0.1-0.9-0.2-0.9-1 c0-4.8,0-9.6,0-14.4c0-0.6,0.1-1-0.9-1.3c-1.1-0.3-0.2-1.5-0.4-2.4c-0.1-0.3-0.3-1,0.5-0.9c0.9,0.1,0.9-0.4,0.9-1 c0-1.1,0-2.1,0-3.2c0-0.7,0.2-1.2,0.9-1.4C216.9,78,218.1,77.5,219.5,76.9z"/> <path class="st1" d="M113.4,99.4c0.9,0.2,1.7,0.5,2.5,0.5c1.2-0.1,1.7-0.7,1.4-1.9c-0.2-1-0.7-1.8-1.2-2.7 c-0.9-1.8-1.9-3.5-2.6-5.4c-0.8-2.4-0.2-4.3,1.8-5.5c1.3-0.8,2.7-0.9,4.1-0.6c0.7,0.2,1.9,0,2,0.5c0.3,1.1,0.1,2.4,0.1,3.6 c0,0.4-0.2,0.4-0.5,0.3c-0.9-0.3-1.9-0.7-2.5,0.2c-0.7,0.9,0,1.8,0.4,2.6c1,1.8,2.1,3.5,2.9,5.4c0.5,1.1,0.7,2.3,0.5,3.6 c-0.2,2.1-1.4,3.5-3.4,4.1c-1.7,0.5-3.5,0.3-5.2-0.1c-0.4-0.1-0.5-0.3-0.5-0.7C113.5,102,113.4,100.8,113.4,99.4z"/> <path class="st1" d="M211.6,89.6c0,4.4,0,8.9,0,13.3c0,0.7-0.2,1-0.9,1c-1.2-0.1-2.8,0.5-3.5-0.2c-0.6-0.7-0.2-2.2-0.2-3.4 c0-7.9,0-15.9,0-23.8c0-0.9,0.2-1.3,1.2-1.2c1.1,0.1,2.6-0.5,3.3,0.2c0.6,0.6,0.2,2.1,0.2,3.2C211.6,82.3,211.6,86,211.6,89.6z"/> <path class="st1" d="M242.2,76.9c0,2.2,0,4.2,0,6.2c0,0.6,0.1,0.8,0.8,1c1.2,0.3,0.3,1.4,0.5,2.2c0.1,0.3,0.4,1.1-0.5,1.1 c-0.9-0.1-0.9,0.5-0.9,1.1c0,4.6,0,9.3,0,13.9c0,1.6,0.3,1.5-1.5,1.5c-0.4,0-0.8,0-1.3,0c-1.9,0-1.9,0-1.9-1.9c0-4.5,0-9,0-13.4 c0-0.6,0.1-1.3-0.9-1.1c0,0-0.1,0-0.1,0c-0.9-0.8-0.2-1.7-0.4-2.6c-0.1-0.4,0-0.8,0.5-0.7c0.8,0.1,0.8-0.3,0.8-0.9 c0-1.1,0-2.3,0-3.4c0-0.6,0.1-1,0.7-1.2C239.6,78.1,240.8,77.5,242.2,76.9z"/> <path class="st1" d="M106.4,87c0.6-0.8,1.1-1.7,1.8-2.4c0.6-0.5,1.3-0.8,2-0.9c0.7-0.1,1,0,0.9,0.8c-0.1,0.5,0,1.1,0,1.6 c0,0.8,0.2,1.6,0,2.3c-0.3,0.9-1.3,0.4-1.9,0.7c-1.1,0.6-1.8,1.4-2.1,2.6c-0.3,1.2-0.3,2.5-0.3,3.7c0,2.5,0,5.1,0,7.6 c0,0.7-0.1,1-0.9,0.9c-1-0.1-2.1,0-3.1,0c-0.5,0-0.8-0.1-0.8-0.7c0-6.2,0-12.3,0-18.5c0-0.5,0.2-0.7,0.7-0.7c1,0,2,0,3,0 c0.5,0,0.7,0.2,0.6,0.7C106.4,85.5,106.4,86.2,106.4,87z"/> <path class="st1" d="M143.1,94.1c0,3,0,5.9,0,8.9c0,0.7-0.2,1-1,1c-1.2-0.1-2.7,0.4-3.4-0.2c-0.7-0.6-0.2-2.2-0.2-3.4 c0-5.1,0-10.2,0-15.3c0-0.8,0.2-1.1,1-1c0.9,0.1,1.8,0.1,2.7,0c0.7,0,0.9,0.2,0.9,0.9C143.1,88,143.1,91,143.1,94.1 C143.1,94.1,143.1,94.1,143.1,94.1z"/> <path class="st1" d="M43.9,75.9c1,0,1.8,0,2.6,0c0.5,0,0.7,0.2,1,0.6c0.6,1,1.2,2,1.9,3.2c0.6-1,1.2-1.9,1.6-2.8 c0.4-0.8,0.9-1.1,1.8-1c0.6,0.1,1.2,0,2.1,0c-1.2,2-2.3,3.8-3.5,5.6c-0.3,0.4-0.9,0.1-1.4,0.2c-1.8,0.4-2.9-0.4-3.7-2 C45.6,78.4,44.7,77.2,43.9,75.9z"/> <path class="st1" d="M138.6,79c0-2.5,0-2.5,2.5-2.5c1.8,0,1.8,0,1.8,2c0,1,0.5,2.3-0.2,2.9c-0.6,0.5-1.9,0.1-2.8,0.2 c-1,0.1-1.4-0.2-1.2-1.2C138.7,79.9,138.6,79.4,138.6,79z"/> </g> </svg>