<svg width="368" height="60" viewBox="0 0 368 60" fill="none" xmlns="http://www.w3.org/2000/svg">
<g clip-path="url(#clip0_450_210)">
<circle cx="15" cy="46.9375" r="10.5" stroke="#0E2439" stroke-width="3"/>
<path d="M32.7069 33.5931C28.0013 41.9309 18.4039 50.4484 13.192 54.6424C16.8982 49.1132 23.9678 44.6116 25.3093 38.5993C24.2408 38.0899 22.5361 38.0308 21.5007 37.9389C25.2799 36.6572 28.219 34.467 32.7069 33.5931Z" fill="#0E2439"/>
<path d="M9.41122 27H3.80895L12.3452 2.27273H19.0824L27.6065 27H22.0043L15.8104 7.92329H15.6172L9.41122 27ZM9.06108 17.2805H22.294V21.3615H9.06108V17.2805ZM30.9567 27V2.27273H40.7124C42.5798 2.27273 44.1736 2.60677 45.4937 3.27486C46.8218 3.9349 47.832 4.87263 48.5242 6.08807C49.2245 7.29545 49.5746 8.71614 49.5746 10.3501C49.5746 11.9922 49.2205 13.4048 48.5121 14.5881C47.8038 15.7633 46.7775 16.6648 45.4333 17.2926C44.0971 17.9205 42.4792 18.2344 40.5796 18.2344H34.0477V14.0327H39.7344C40.7325 14.0327 41.5616 13.8958 42.2217 13.6222C42.8817 13.3485 43.3727 12.938 43.6947 12.3906C44.0247 11.8433 44.1897 11.1631 44.1897 10.3501C44.1897 9.52912 44.0247 8.83688 43.6947 8.27344C43.3727 7.70999 42.8777 7.28338 42.2096 6.99361C41.5495 6.69579 40.7164 6.54688 39.7103 6.54688H36.1847V27H30.9567ZM44.3104 15.7472L50.456 27H44.6847L38.6719 15.7472H44.3104ZM70.0395 10.2656C69.8705 9.67803 69.6331 9.15885 69.3272 8.7081C69.0213 8.24929 68.647 7.86293 68.2043 7.54901C67.7697 7.22704 67.2706 6.98153 66.7072 6.8125C66.1518 6.64347 65.536 6.55895 64.8599 6.55895C63.5961 6.55895 62.4853 6.87287 61.5275 7.50071C60.5777 8.12855 59.8371 9.04214 59.3059 10.2415C58.7746 11.4328 58.509 12.8897 58.509 14.6122C58.509 16.3348 58.7706 17.7997 59.2938 19.0071C59.817 20.2145 60.5575 21.1361 61.5154 21.772C62.4733 22.3999 63.6042 22.7138 64.9082 22.7138C66.0914 22.7138 67.1016 22.5045 67.9387 22.0859C68.7839 21.6593 69.4278 21.0597 69.8705 20.2869C70.3213 19.5142 70.5467 18.6006 70.5467 17.5462L71.6092 17.7031H65.2342V13.767H75.5815V16.8821C75.5815 19.0554 75.1226 20.9228 74.205 22.4844C73.2874 24.0379 72.0237 25.2372 70.4138 26.0824C68.804 26.9195 66.9607 27.3381 64.884 27.3381C62.5658 27.3381 60.5294 26.8269 58.7746 25.8047C57.0199 24.7744 55.6515 23.3134 54.6695 21.4219C53.6956 19.5223 53.2086 17.2685 53.2086 14.6605C53.2086 12.6562 53.4984 10.8693 54.0779 9.29971C54.6655 7.72206 55.4865 6.38589 56.541 5.29119C57.5954 4.1965 58.8229 3.3634 60.2235 2.7919C61.6241 2.22041 63.1413 1.93466 64.7753 1.93466C66.1759 1.93466 67.4799 2.13991 68.6873 2.55043C69.8947 2.95289 70.9652 3.52438 71.8989 4.26491C72.8407 5.00544 73.6094 5.88684 74.205 6.90909C74.8007 7.92329 75.183 9.04214 75.352 10.2656H70.0395ZM102.605 14.6364C102.605 17.3329 102.094 19.6269 101.072 21.5185C100.058 23.41 98.6734 24.8549 96.9187 25.853C95.172 26.843 93.208 27.3381 91.0267 27.3381C88.8292 27.3381 86.8571 26.839 85.1105 25.8409C83.3638 24.8428 81.9833 23.398 80.9691 21.5064C79.9549 19.6148 79.4478 17.3248 79.4478 14.6364C79.4478 11.9399 79.9549 9.64583 80.9691 7.75426C81.9833 5.86269 83.3638 4.42187 85.1105 3.43182C86.8571 2.43371 88.8292 1.93466 91.0267 1.93466C93.208 1.93466 95.172 2.43371 96.9187 3.43182C98.6734 4.42187 100.058 5.86269 101.072 7.75426C102.094 9.64583 102.605 11.9399 102.605 14.6364ZM97.3051 14.6364C97.3051 12.8897 97.0435 11.4167 96.5203 10.2173C96.0051 9.01799 95.2767 8.10843 94.3349 7.48864C93.3931 6.86885 92.2904 6.55895 91.0267 6.55895C89.7629 6.55895 88.6602 6.86885 87.7184 7.48864C86.7767 8.10843 86.0442 9.01799 85.521 10.2173C85.0058 11.4167 84.7482 12.8897 84.7482 14.6364C84.7482 16.383 85.0058 17.8561 85.521 19.0554C86.0442 20.2547 86.7767 21.1643 87.7184 21.7841C88.6602 22.4039 89.7629 22.7138 91.0267 22.7138C92.2904 22.7138 93.3931 22.4039 94.3349 21.7841C95.2767 21.1643 96.0051 20.2547 96.5203 19.0554C97.0435 17.8561 97.3051 16.383 97.3051 14.6364ZM128.509 9.38423C128.413 8.41027 127.998 7.65365 127.266 7.11435C126.533 6.57505 125.539 6.3054 124.284 6.3054C123.43 6.3054 122.71 6.42614 122.122 6.66761C121.535 6.90104 121.084 7.22704 120.77 7.6456C120.464 8.06416 120.311 8.53906 120.311 9.07031C120.295 9.51302 120.388 9.89938 120.589 10.2294C120.798 10.5594 121.084 10.8452 121.446 11.0866C121.808 11.3201 122.227 11.5253 122.702 11.7024C123.177 11.8714 123.684 12.0163 124.223 12.1371L126.445 12.6683C127.523 12.9098 128.513 13.2318 129.415 13.6342C130.316 14.0367 131.097 14.5317 131.757 15.1193C132.417 15.7069 132.928 16.3991 133.291 17.196C133.661 17.9929 133.85 18.9065 133.858 19.9368C133.85 21.45 133.464 22.7621 132.699 23.8729C131.942 24.9756 130.848 25.8329 129.415 26.4446C127.99 27.0483 126.272 27.3501 124.259 27.3501C122.263 27.3501 120.525 27.0443 119.043 26.4325C117.57 25.8208 116.419 24.9152 115.59 23.7159C114.769 22.5085 114.339 21.0154 114.298 19.2365H119.357C119.414 20.0656 119.651 20.7578 120.07 21.3132C120.496 21.8606 121.064 22.2751 121.772 22.5568C122.489 22.8305 123.298 22.9673 124.199 22.9673C125.084 22.9673 125.853 22.8385 126.505 22.581C127.165 22.3234 127.676 21.9652 128.039 21.5064C128.401 21.0476 128.582 20.5204 128.582 19.9247C128.582 19.3693 128.417 18.9025 128.087 18.5241C127.765 18.1458 127.29 17.8239 126.662 17.5582C126.042 17.2926 125.282 17.0511 124.38 16.8338L121.688 16.1577C119.603 15.6506 117.957 14.8577 116.749 13.7791C115.542 12.7005 114.942 11.2476 114.95 9.42045C114.942 7.92329 115.341 6.61529 116.146 5.49645C116.959 4.3776 118.074 3.50426 119.49 2.87642C120.907 2.24858 122.517 1.93466 124.32 1.93466C126.155 1.93466 127.757 2.24858 129.125 2.87642C130.502 3.50426 131.572 4.3776 132.337 5.49645C133.101 6.61529 133.496 7.91122 133.52 9.38423H128.509ZM136.807 6.5831V2.27273H157.115V6.5831H149.545V27H144.377V6.5831H136.807ZM176.107 2.27273H181.335V18.331C181.335 20.134 180.904 21.7116 180.043 23.0639C179.19 24.4162 177.995 25.4706 176.457 26.2273C174.92 26.9759 173.129 27.3501 171.084 27.3501C169.032 27.3501 167.237 26.9759 165.699 26.2273C164.162 25.4706 162.967 24.4162 162.113 23.0639C161.26 21.7116 160.834 20.134 160.834 18.331V2.27273H166.062V17.8842C166.062 18.826 166.267 19.6631 166.677 20.3956C167.096 21.1281 167.683 21.7036 168.44 22.1222C169.197 22.5407 170.078 22.75 171.084 22.75C172.098 22.75 172.98 22.5407 173.728 22.1222C174.485 21.7036 175.069 21.1281 175.479 20.3956C175.898 19.6631 176.107 18.826 176.107 17.8842V2.27273ZM194.776 27H186.01V2.27273H194.848C197.336 2.27273 199.477 2.76776 201.272 3.75781C203.067 4.73982 204.447 6.15246 205.413 7.99574C206.387 9.83901 206.874 12.0445 206.874 14.6122C206.874 17.188 206.387 19.4015 205.413 21.2528C204.447 23.1042 203.059 24.5249 201.248 25.5149C199.444 26.505 197.287 27 194.776 27ZM191.238 22.5206H194.559C196.104 22.5206 197.404 22.2469 198.458 21.6996C199.521 21.1442 200.318 20.2869 200.849 19.1278C201.388 17.9607 201.658 16.4555 201.658 14.6122C201.658 12.785 201.388 11.2919 200.849 10.1328C200.318 8.97372 199.525 8.1205 198.471 7.57315C197.416 7.0258 196.116 6.75213 194.571 6.75213H191.238V22.5206ZM211.121 27V2.27273H227.783V6.5831H216.349V12.4751H226.925V16.7855H216.349V22.6896H227.831V27H211.121ZM252.996 2.27273V27H248.48L237.722 11.4368H237.541V27H232.313V2.27273H236.901L247.574 17.8239H247.792V2.27273H252.996ZM256.747 6.5831V2.27273H277.055V6.5831H269.485V27H264.317V6.5831H256.747Z" fill="#0E2439"/>
<path d="M49.1491 60V35.2727H58.9048C60.7723 35.2727 62.366 35.6068 63.6861 36.2749C65.0142 36.9349 66.0244 37.8726 66.7166 39.0881C67.4169 40.2955 67.767 41.7161 67.767 43.3501C67.767 44.9922 67.4129 46.4048 66.7045 47.5881C65.9962 48.7633 64.9699 49.6648 63.6257 50.2926C62.2895 50.9205 60.6716 51.2344 58.772 51.2344H52.2401V47.0327H57.9268C58.925 47.0327 59.754 46.8958 60.4141 46.6222C61.0741 46.3485 61.5651 45.938 61.8871 45.3906C62.2171 44.8433 62.3821 44.1631 62.3821 43.3501C62.3821 42.5291 62.2171 41.8369 61.8871 41.2734C61.5651 40.71 61.0701 40.2834 60.402 39.9936C59.742 39.6958 58.9089 39.5469 57.9027 39.5469H54.3771V60H49.1491ZM62.5028 48.7472L68.6484 60H62.8771L56.8643 48.7472H62.5028ZM94.5587 47.6364C94.5587 50.3329 94.0475 52.6269 93.0253 54.5185C92.0111 56.41 90.6266 57.8549 88.8719 58.853C87.1252 59.843 85.1612 60.3381 82.9798 60.3381C80.7824 60.3381 78.8103 59.839 77.0636 58.8409C75.3169 57.8428 73.9365 56.398 72.9223 54.5064C71.9081 52.6148 71.401 50.3248 71.401 47.6364C71.401 44.9399 71.9081 42.6458 72.9223 40.7543C73.9365 38.8627 75.3169 37.4219 77.0636 36.4318C78.8103 35.4337 80.7824 34.9347 82.9798 34.9347C85.1612 34.9347 87.1252 35.4337 88.8719 36.4318C90.6266 37.4219 92.0111 38.8627 93.0253 40.7543C94.0475 42.6458 94.5587 44.9399 94.5587 47.6364ZM89.2582 47.6364C89.2582 45.8897 88.9966 44.4167 88.4734 43.2173C87.9583 42.018 87.2298 41.1084 86.2881 40.4886C85.3463 39.8688 84.2436 39.5589 82.9798 39.5589C81.7161 39.5589 80.6133 39.8688 79.6716 40.4886C78.7298 41.1084 77.9973 42.018 77.4741 43.2173C76.959 44.4167 76.7014 45.8897 76.7014 47.6364C76.7014 49.383 76.959 50.8561 77.4741 52.0554C77.9973 53.2547 78.7298 54.1643 79.6716 54.7841C80.6133 55.4039 81.7161 55.7138 82.9798 55.7138C84.2436 55.7138 85.3463 55.4039 86.2881 54.7841C87.2298 54.1643 87.9583 53.2547 88.4734 52.0554C88.9966 50.8561 89.2582 49.383 89.2582 47.6364ZM98.8054 60V35.2727H108.706C110.525 35.2727 112.042 35.5424 113.258 36.0817C114.473 36.621 115.387 37.3696 115.999 38.3274C116.61 39.2772 116.916 40.3719 116.916 41.6115C116.916 42.5774 116.723 43.4266 116.337 44.1591C115.95 44.8835 115.419 45.4792 114.743 45.946C114.075 46.4048 113.31 46.7308 112.449 46.924V47.1655C113.391 47.2057 114.272 47.4714 115.093 47.9624C115.922 48.4534 116.594 49.1416 117.109 50.027C117.624 50.9044 117.882 51.9508 117.882 53.1662C117.882 54.4782 117.556 55.6494 116.904 56.6797C116.26 57.7019 115.306 58.5109 114.043 59.1065C112.779 59.7022 111.221 60 109.37 60H98.8054ZM104.033 55.7259H108.295C109.752 55.7259 110.815 55.4482 111.483 54.8928C112.151 54.3293 112.485 53.5807 112.485 52.647C112.485 51.9628 112.32 51.3591 111.99 50.8359C111.66 50.3127 111.189 49.9022 110.577 49.6044C109.974 49.3066 109.253 49.1577 108.416 49.1577H104.033V55.7259ZM104.033 45.62H107.909C108.625 45.62 109.261 45.4953 109.817 45.2457C110.38 44.9882 110.823 44.6259 111.145 44.1591C111.475 43.6922 111.64 43.1328 111.64 42.4808C111.64 41.5874 111.322 40.867 110.686 40.3196C110.058 39.7723 109.165 39.4986 108.006 39.4986H104.033V45.62ZM144.381 47.6364C144.381 50.3329 143.87 52.6269 142.847 54.5185C141.833 56.41 140.449 57.8549 138.694 58.853C136.947 59.843 134.983 60.3381 132.802 60.3381C130.605 60.3381 128.633 59.839 126.886 58.8409C125.139 57.8428 123.759 56.398 122.745 54.5064C121.73 52.6148 121.223 50.3248 121.223 47.6364C121.223 44.9399 121.73 42.6458 122.745 40.7543C123.759 38.8627 125.139 37.4219 126.886 36.4318C128.633 35.4337 130.605 34.9347 132.802 34.9347C134.983 34.9347 136.947 35.4337 138.694 36.4318C140.449 37.4219 141.833 38.8627 142.847 40.7543C143.87 42.6458 144.381 44.9399 144.381 47.6364ZM139.08 47.6364C139.08 45.8897 138.819 44.4167 138.296 43.2173C137.781 42.018 137.052 41.1084 136.11 40.4886C135.169 39.8688 134.066 39.5589 132.802 39.5589C131.538 39.5589 130.436 39.8688 129.494 40.4886C128.552 41.1084 127.82 42.018 127.296 43.2173C126.781 44.4167 126.524 45.8897 126.524 47.6364C126.524 49.383 126.781 50.8561 127.296 52.0554C127.82 53.2547 128.552 54.1643 129.494 54.7841C130.436 55.4039 131.538 55.7138 132.802 55.7138C134.066 55.7138 135.169 55.4039 136.11 54.7841C137.052 54.1643 137.781 53.2547 138.296 52.0554C138.819 50.8561 139.08 49.383 139.08 47.6364ZM146.557 39.5831V35.2727H166.865V39.5831H159.295V60H154.127V39.5831H146.557ZM175.812 35.2727V60H170.584V35.2727H175.812ZM202.304 43.9297H197.016C196.919 43.2455 196.722 42.6378 196.424 42.1065C196.127 41.5672 195.744 41.1084 195.277 40.7301C194.811 40.3518 194.271 40.062 193.659 39.8608C193.056 39.6596 192.4 39.5589 191.691 39.5589C190.412 39.5589 189.297 39.8769 188.347 40.5128C187.397 41.1406 186.661 42.0582 186.137 43.2656C185.614 44.465 185.353 45.9219 185.353 47.6364C185.353 49.3991 185.614 50.8802 186.137 52.0795C186.669 53.2789 187.409 54.1844 188.359 54.7962C189.309 55.4079 190.408 55.7138 191.655 55.7138C192.356 55.7138 193.003 55.6212 193.599 55.4361C194.203 55.2509 194.738 54.9813 195.205 54.6271C195.672 54.2649 196.058 53.8262 196.364 53.3111C196.678 52.7959 196.895 52.2083 197.016 51.5483L202.304 51.5724C202.168 52.7074 201.825 53.8021 201.278 54.8565C200.739 55.9029 200.01 56.8407 199.093 57.6697C198.183 58.4908 197.097 59.1428 195.833 59.6257C194.577 60.1006 193.156 60.3381 191.571 60.3381C189.365 60.3381 187.393 59.839 185.655 58.8409C183.924 57.8428 182.556 56.398 181.549 54.5064C180.551 52.6148 180.052 50.3248 180.052 47.6364C180.052 44.9399 180.559 42.6458 181.574 40.7543C182.588 38.8627 183.964 37.4219 185.703 36.4318C187.441 35.4337 189.397 34.9347 191.571 34.9347C193.003 34.9347 194.332 35.1359 195.555 35.5384C196.787 35.9408 197.877 36.5284 198.827 37.3011C199.777 38.0658 200.55 39.0036 201.145 40.1143C201.749 41.2251 202.135 42.4969 202.304 43.9297ZM219.841 42.3842C219.745 41.4103 219.33 40.6536 218.598 40.1143C217.865 39.575 216.871 39.3054 215.616 39.3054C214.762 39.3054 214.042 39.4261 213.454 39.6676C212.867 39.901 212.416 40.227 212.102 40.6456C211.796 41.0642 211.643 41.5391 211.643 42.0703C211.627 42.513 211.72 42.8994 211.921 43.2294C212.13 43.5594 212.416 43.8452 212.778 44.0866C213.14 44.3201 213.559 44.5253 214.034 44.7024C214.509 44.8714 215.016 45.0163 215.555 45.1371L217.777 45.6683C218.855 45.9098 219.845 46.2318 220.747 46.6342C221.648 47.0367 222.429 47.5317 223.089 48.1193C223.749 48.7069 224.26 49.3991 224.623 50.196C224.993 50.9929 225.182 51.9065 225.19 52.9368C225.182 54.45 224.796 55.7621 224.031 56.8729C223.274 57.9756 222.18 58.8329 220.747 59.4446C219.322 60.0483 217.604 60.3501 215.591 60.3501C213.595 60.3501 211.857 60.0443 210.375 59.4325C208.902 58.8208 207.751 57.9152 206.922 56.7159C206.101 55.5085 205.671 54.0154 205.63 52.2365H210.689C210.746 53.0656 210.983 53.7578 211.402 54.3132C211.828 54.8606 212.396 55.2751 213.104 55.5568C213.821 55.8305 214.629 55.9673 215.531 55.9673C216.416 55.9673 217.185 55.8385 217.837 55.581C218.497 55.3234 219.008 54.9652 219.37 54.5064C219.733 54.0476 219.914 53.5204 219.914 52.9247C219.914 52.3693 219.749 51.9025 219.419 51.5241C219.097 51.1458 218.622 50.8239 217.994 50.5582C217.374 50.2926 216.614 50.0511 215.712 49.8338L213.02 49.1577C210.935 48.6506 209.289 47.8577 208.081 46.7791C206.874 45.7005 206.274 44.2476 206.282 42.4205C206.274 40.9233 206.673 39.6153 207.478 38.4964C208.291 37.3776 209.406 36.5043 210.822 35.8764C212.239 35.2486 213.849 34.9347 215.652 34.9347C217.487 34.9347 219.089 35.2486 220.457 35.8764C221.834 36.5043 222.904 37.3776 223.669 38.4964C224.433 39.6153 224.828 40.9112 224.852 42.3842H219.841ZM236.382 39.5831V35.2727H256.69V39.5831H249.12V60H243.952V39.5831H236.382ZM260.409 60V35.2727H277.071V39.5831H265.637V45.4751H276.213V49.7855H265.637V55.6896H277.119V60H260.409ZM285.863 60H280.261L288.797 35.2727H295.534L304.058 60H298.456L292.262 40.9233H292.069L285.863 60ZM285.513 50.2805H298.746V54.3615H285.513V50.2805ZM307.409 35.2727H313.856L320.666 51.8864H320.956L327.765 35.2727H334.213V60H329.142V43.9055H328.936L322.537 59.8793H319.084L312.685 43.8452H312.48V60H307.409V35.2727Z" fill="#0E2439"/>
</g>
<defs>
<clipPath id="clip0_450_210">
<rect width="368" height="60" fill="white"/>
</clipPath>
</defs>
</svg>
