<svg xmlns="http://www.w3.org/2000/svg" id="ababe048-a0cb-4770-adcd-2bfd1dd02d29" data-name="Warstwa 1" viewBox="0 0 802 381"><defs/><defs><style>.b7d0602e-5ce5-4c64-ab10-515f7b09aab0,.be6cc6da-f3bf-4283-b7e3-5302c82323ef{fill:#0063a6}.be6cc6da-f3bf-4283-b7e3-5302c82323ef{fill-rule:evenodd}.b417d5db-9c7c-4ae1-b0b5-635d53e73fa4{fill:#c1bcb9}</style></defs><path d="M31.35 128.65H5V81.18h26.08v4.76H10.5v15.49h17.76v4.83H10.5v17.3h20.85v5.09zm57-19q0 9.78-5 15.15T70 130.2q-9 0-14-5.27t-5-15.12V81.18h5.63v27.76q0 16 13.34 16t13.21-16.22V81.18h5.1v28.5zm57 19h-7.1l-16.56-19.51h-6v19.51h-5.56V81.18h10.05q20.31 0 20.32 13.81a12.65 12.65 0 01-3.35 8.79 15.1 15.1 0 01-9.06 4.62l17.23 20.25zm-10.49-33.52q0-5-3.75-7.14t-11.53-2.18h-3.89v19h4.83q14.34 0 14.34-9.65zm70.27 9.79a26 26 0 01-4.76 15.55 22.89 22.89 0 01-8.18 7.18 22.05 22.05 0 01-10.33 2.55 21.74 21.74 0 01-16.46-7.28 25.37 25.37 0 01-6.8-18q0-10.8 6.77-18a22.32 22.32 0 0132.95 0 25.32 25.32 0 016.81 18zm-5.77 0q0-8.65-5-14.35a16.49 16.49 0 00-24.94 0 20.75 20.75 0 00-5.09 14.35 20.77 20.77 0 005.09 14.31 16.46 16.46 0 0024.94 0q5-5.69 5-14.34zm55-9.72a13.11 13.11 0 01-5.2 11q-5.19 4-15 4c-1.34 0-2.89 0-4.63-.06v18.5H224V81.18h10q10.06 0 14.82 3.42a12.41 12.41 0 015.5 10.6zm-5.63.26q0-5.16-3.76-7.4t-11.53-2.25h-3.89v19.64h4.83q14.34 0 14.35-10zm49.74 33.19h-26.36V81.18h26.08v4.76H277.6v15.49h17.77v4.83H277.6v17.3h20.85v5.09zm58.07 0h-6.1l-5.3-12.07h-22.48l-5.3 12.07h-5.83L333.72 80h.67l22.13 48.67zM343.11 112L334 91.1l-9.26 20.9zm66.71 18.18h-.74L377.3 93.05v35.6h-5.5v-49h.74l31.78 37.15V81.18h5.5v49zM7.34 270.64v-17.56H82.7q7 0 10.85-3.6a12.51 12.51 0 003.81-9.54q0-6.49-3.81-9.75t-10.85-3.25H36.52a36.28 36.28 0 01-12.79-2.14 27.65 27.65 0 01-9.68-5.94A26.22 26.22 0 018 209.8a30.11 30.11 0 01-2.14-11.48 31.16 31.16 0 012-11.27 24.16 24.16 0 015.95-8.92 28.15 28.15 0 019.75-5.87 38.16 38.16 0 0113.27-2.14H109v17.56H36.79q-6.07 0-9.4 3.24T24.07 200q0 5.81 3.39 9t9.19 3.18H82.7q15.35 0 23.3 7.19t8 21.85a34.57 34.57 0 01-2 11.72 25.3 25.3 0 01-5.81 9.33 26.45 26.45 0 01-9.74 6.15 38.89 38.89 0 01-13.76 2.22zM220.16 242.71v-17h40.37q9.27 0 14.45-5.25t5.18-13.83q0-8.72-5.18-13.83t-14.45-5.11H207.3v83h-17.42V170.12h70.65a44.39 44.39 0 0115.56 2.55 32.31 32.31 0 0111.54 7.19 30.7 30.7 0 017.19 11.27 45.83 45.83 0 010 29.8A31.73 31.73 0 01276.09 240a42.17 42.17 0 01-15.56 2.7zM586.19 270.64a47.69 47.69 0 01-19.43-3.94 47.88 47.88 0 01-25.71-27 55.5 55.5 0 01-3.67-20.32 53.75 53.75 0 013.67-20.19 44.72 44.72 0 0110.23-15.55 46.08 46.08 0 0115.48-10 52.44 52.44 0 0119.43-3.52h54.48v17.56h-54.48a31.92 31.92 0 00-12.51 2.41 29.67 29.67 0 00-9.89 6.71 31 31 0 00-6.5 10.23 35.64 35.64 0 00-2.35 13.14 36.24 36.24 0 002.35 13.13 31.35 31.35 0 006.5 10.44 29.88 29.88 0 009.89 6.85 31.08 31.08 0 0012.51 2.49h54.48v17.56zM702.12 270.64V170.12h89.74v17.56h-72.31v65.4H792v17.56zm30.29-43.7v-14.79h55.72v14.79z" class="b7d0602e-5ce5-4c64-ab10-515f7b09aab0"/><path d="M454.08 270.64q-23-38.58-45.9-77.16c-15.64 26.43-32.11 51.6-49.16 77.16H342.5l57.79-96.24a13.41 13.41 0 013.6-4.15 8.2 8.2 0 015-1.52 7.88 7.88 0 014.9 1.52 13.65 13.65 0 013.53 4.15l57.94 96.24z" class="be6cc6da-f3bf-4283-b7e3-5302c82323ef"/><path d="M339.78 270.52a437.94 437.94 0 01-68.59 11.65 297.93 297.93 0 01-35.53 1v-15.39q11.34-.07 23.93-1.12c30-2.51 61.76-9 93.26-18.54L340.29 269a2.64 2.64 0 00-.51 1.48zM451.65 20.94c36.8-3.09 75.77-.91 97.44 7.4 17.58 6.73 30.94 17 39.55 30.35a50.46 50.46 0 017.19 38.76c-2.74 13.29-10.36 28.08-23.26 43.91l-.06.08a234.81 234.81 0 01-27.9 28.37 357.44 357.44 0 01-35.41 26.89 493.77 493.77 0 01-56 32.12l-10.05-16.7a486.7 486.7 0 0052.22-30.23 354.89 354.89 0 0035.11-26.58 231.65 231.65 0 0027.48-28l.07-.08c12.45-15.28 19.79-29.48 22.41-42.18 2.32-11.25 1-20.61-3.61-27.77-3.56-5.5-10.71-10.39-21.19-14.4-19.81-7.59-48.56-10.82-83.94-7.86l-20.05-14.08zM523.49 190a175.34 175.34 0 01-1.36 17.59 180.78 180.78 0 01-45.91 98.75h-14.38c24.35-25.49 39.06-58.05 43.43-92.27q.78-6.12 1.11-12.29c1.41-.92 2.85-1.86 4.31-2.84q6.56-4.38 12.78-8.92z" class="b417d5db-9c7c-4ae1-b0b5-635d53e73fa4"/><path d="M235.34 47.73c40.59-30.57 89-42.28 134.64-36.45a175.39 175.39 0 01116.88 66.64l.06.08v.06a174.47 174.47 0 0134.64 81.14q-7.71 6.28-16.29 12.46A168.84 168.84 0 00471.2 89l-.07-.09A168.49 168.49 0 00358.94 24.6c-41.12-5.25-83.71 4.76-118 31.28l-.07.06-.07.05q-2.75 2.13-5.4 4.38V47.73z" class="b417d5db-9c7c-4ae1-b0b5-635d53e73fa4"/><path d="M408.56 222.85a15.28 15.28 0 11-15.28 15.28 15.29 15.29 0 0115.28-15.28z" class="be6cc6da-f3bf-4283-b7e3-5302c82323ef"/><path d="M306.86 329.25H286v16.44h18.92v5H286v21.13h-5.57v-47.53h26.43v5zM369.39 348a26 26 0 01-4.76 15.56 22.86 22.86 0 01-8.18 7.17 22.08 22.08 0 01-10.33 2.55 21.73 21.73 0 01-16.47-7.27 25.38 25.38 0 01-6.81-18q0-10.8 6.78-18.05a22.36 22.36 0 0133 0 25.42 25.42 0 016.8 18zm-5.76 0q0-8.66-5-14.36a16.5 16.5 0 00-24.95 0q-5.1 5.7-5.1 14.36a20.77 20.77 0 005.1 14.32 16.47 16.47 0 0024.95 0q5-5.7 5-14.35zm61.79 4.76q0 9.79-5 15.16t-13.35 5.36q-9 0-14-5.26t-5-15.13v-28.6h5.63v27.77q0 16 13.35 16t13.22-16.23v-27.54h5.09v28.51zm60.26 20.52h-.74l-31.8-37.16v35.62h-5.5v-49h.74l31.8 37.16v-35.61h5.5v49zM547.34 348q0 13.47-11.74 20.19-6.17 3.56-16.7 3.55h-10.4v-47.45h10.4q13.49 0 21.06 6.51 7.38 6.36 7.38 17.24zm-5.77 0q0-8.6-5.57-13.56-5.76-5-16.1-5h-5.83v37.1h5.83q10.33 0 16.1-5 5.57-4.9 5.57-13.48zm61.59 23.74h-6.1l-5.3-12.07h-22.47L564 371.78h-5.83l22.2-48.7h.63l22.13 48.7zm-13.41-16.64l-9.12-20.92-9.26 20.92zm56.5-25.75h-16.77v42.39h-5.71v-42.35H607v-5.1h39.25v5.1zm22.48 42.39h-5.63v-47.45h5.63v47.49zm66-23.74a26 26 0 01-4.76 15.56 22.8 22.8 0 01-8.19 7.17 22.05 22.05 0 01-10.33 2.55 21.73 21.73 0 01-16.47-7.27 25.41 25.41 0 01-6.8-18q0-10.8 6.77-18.05a22.36 22.36 0 0133 0 25.39 25.39 0 016.81 18zm-5.77 0q0-8.66-5-14.36a16.5 16.5 0 00-24.95 0q-5.1 5.7-5.1 14.36a20.77 20.77 0 005.1 14.32 16.47 16.47 0 0024.95 0q5-5.7 5-14.35zM792 373.32h-.74l-31.79-37.16v35.62H754v-49h.74l31.79 37.16v-35.65H792v49z" class="b7d0602e-5ce5-4c64-ab10-515f7b09aab0"/></svg>