<svg id="Layer_1" data-name="Layer 1" xmlns="http://www.w3.org/2000/svg" viewBox="0 0 1875 1875"><defs><style>.cls-1{fill:#fff;}.cls-2{fill:#0e2439;}.cls-3{fill:#7f665e;}.cls-4{fill:#d4d4d4;}.cls-5{fill:#de754f;}.cls-6{fill:#ebebeb;}.cls-7{fill:#e1e1e1;}.cls-8{fill:#a47b6c;}.cls-9{fill:none;stroke:#fff;stroke-miterlimit:10;stroke-width:10px;}</style></defs><path class="cls-1" d="M937.5,1761.27A824,824,0,0,1,616.85,178.47a824,824,0,0,1,641.3,1518.06A818.58,818.58,0,0,1,937.5,1761.27Z"/><circle class="cls-2" cx="937.5" cy="937.5" r="813.77"/><circle cx="937.5" cy="937.5" r="701.69"/><circle class="cls-3" cx="549.61" cy="1112.25" r="62.72"/><path class="cls-4" d="M1150.94,736.94c117.28-12.87,241.7-4,248.07,67.51,6.27,70.38-150.5,165-150.5,165s176-92.29,164.73-173.93c-13.14-95.3-265.55-62.88-265.55-62.88Z"/><path class="cls-5" d="M1233,937.65a295.41,295.41,0,0,1-295.41,295.41q-13.8,0-27.29-1.25C759.92,1218,642.16,1091.6,642.16,937.65A295.43,295.43,0,0,1,937.58,642.23q13.41,0,26.53,1.18C1114.83,656.82,1233,783.43,1233,937.65Z"/><path class="cls-1" d="M964.11,643.41c-67.43,47.56-143.48,71.92-226.7,77a294.35,294.35,0,0,1,200.17-78.16Q951,642.23,964.11,643.41Z"/><path class="cls-1" d="M1137.46,1155.17a294.3,294.3,0,0,1-199.88,77.89q-13.8,0-27.29-1.25C969.1,1190,1047.51,1159.38,1137.46,1155.17Z"/><path class="cls-4" d="M645.46,893.36c-12.15,6.25-158.9,83.06-181.58,163.58-22,78,107,103.22,261.18,85.9q9.66-1.08,19.46-2.39c162.49-21.71,289.79-72.25,289.79-72.25l-9.15-.06s-66.56,25-156.19,45.59c-48.26,11.09-98.25,20.21-147.6,25.22-42.31,4.3-84.15,5.57-124,2.49-86.35-6.68-131.07-41.07-120.12-88.21C488.1,1006.5,564.83,939,644.82,897.84Z"/><path class="cls-6" d="M1059.22,1056.85l-46.65,33.56-2-2.13,15.46-19.09-24.65-3.92c.06-1.87,0-1.28.1-3.15Z"/><path class="cls-7" d="M1059.22,1056.85l-46.65,33.56-2-2.13,15.46-19.09Z"/><circle class="cls-1" cx="1030.69" cy="1482.13" r="11.51"/><circle class="cls-1" cx="1205.9" cy="1287.42" r="7.3"/><circle class="cls-1" cx="1260.45" cy="1342.29" r="6.68"/><circle class="cls-1" cx="1433.4" cy="1137.33" r="11.69"/><circle class="cls-1" cx="1378.54" cy="1153" r="8.4"/><circle class="cls-1" cx="1320.82" cy="1072.01" r="11.51"/><circle class="cls-1" cx="399.95" cy="730.66" r="7.67"/><circle class="cls-1" cx="372.45" cy="655.91" r="9.65"/><circle class="cls-1" cx="618.82" cy="609.78" r="11.55"/><circle class="cls-1" cx="538.61" cy="465.31" r="11.55"/><circle class="cls-1" cx="563.91" cy="438.53" r="6.76"/><polygon class="cls-1" points="1208.37 1317.02 1221.14 1358.31 1262.39 1370.87 1221.15 1383.86 1208.39 1425.15 1195.57 1383.88 1154.34 1370.77 1195.66 1358.35 1208.37 1317.02"/><polygon class="cls-1" points="729.16 328.97 741.93 370.26 783.18 382.82 741.94 395.81 729.18 437.1 716.36 395.83 675.13 382.72 716.45 370.3 729.16 328.97"/><polygon class="cls-1" points="546.75 653.34 559.53 694.63 600.78 707.19 559.53 720.18 546.78 761.47 533.95 720.21 492.72 707.09 534.04 694.67 546.75 653.34"/><polygon class="cls-1" points="729.16 328.97 741.93 370.26 783.18 382.82 741.94 395.81 729.18 437.1 716.36 395.83 675.13 382.72 716.45 370.3 729.16 328.97"/><circle class="cls-8" cx="1337.9" cy="752.37" r="31.3"/><path class="cls-1" d="M331.29,1330.69,320.4,1347l20.94,29.79,19-4.74,3.34,4.75-75,18.23-3.34-4.75,42.59-64.31ZM336,1378l-18.61-26.48-24.86,37.26Z"/><path class="cls-1" d="M271.75,1219l-19.38,28.2L262,1268l26.72-12.39,2.31,5-65.16,30.22-12-26a20.85,20.85,0,0,1-.7-16.38,20.36,20.36,0,0,1,10.93-12,20.14,20.14,0,0,1,13.63-1.35,21.36,21.36,0,0,1,11.62,7.25l19.77-29.07Zm-43.52,64.67,29.14-13.51-9.74-21a15.93,15.93,0,0,0-21.24-7.75,15.58,15.58,0,0,0-8.37,9,15.32,15.32,0,0,0,.47,12.25Z"/><path class="cls-1" d="M194.6,1082.91l2.69-.66a30,30,0,0,1,24.28,3.92q11.24,7.17,15,22.47,4,16.11-3.82,29.16a37.64,37.64,0,0,1-51.07,12.76q-13-7.8-16.92-23.71a36.5,36.5,0,0,1,.18-18.91,33.71,33.71,0,0,1,9.15-15.57l4,4a27.45,27.45,0,0,0-8,13,30.66,30.66,0,0,0-.23,16.14q3.39,13.7,14.49,20.3A32.67,32.67,0,0,0,228.26,1135q6.72-11.07,3.25-25.06-3.06-12.39-11.63-18.39a25.19,25.19,0,0,0-19-4.39l7.41,29.91-5,1.23Z"/><path class="cls-1" d="M204.55,938.27a38,38,0,0,1,2,53.08,37,37,0,0,1-52.4,2,38,38,0,0,1-2-53.08,37,37,0,0,1,52.39-2Zm-1.79,49.34A32,32,0,1,0,156,944a32,32,0,0,0,46.76,43.57Z"/><path class="cls-1" d="M243.8,736.55q-2.75,9.68-9.06,15.16a22.68,22.68,0,0,1-14.5,5.74l-1.35-5.35a19.17,19.17,0,0,0,12.22-4.34q5.28-4.26,7.66-12.65T238.63,721a13,13,0,0,0-8.67-7.38,10.48,10.48,0,0,0-10,1.89q-4.32,3.53-9.92,12-2.06,3.09-3,4.48t-2.95,4a27.67,27.67,0,0,1-3.24,3.71c-.86.77-2,1.65-3.32,2.67a11.25,11.25,0,0,1-3.82,2,20.05,20.05,0,0,1-4.11.55,15.53,15.53,0,0,1-4.89-.64,17.38,17.38,0,0,1-11.75-9.87q-3.36-7.49-.77-16.56A24.35,24.35,0,0,1,193,699.42l1.19,5.19q-13.36,1.59-17.06,14.56-2,7.19.48,12.54a12.64,12.64,0,0,0,8.35,7q5.63,1.6,9.53-1.6T205,725.69q3.53-5.25,5.79-8.11a49.88,49.88,0,0,1,5.64-6,15.22,15.22,0,0,1,7.07-3.86,16.33,16.33,0,0,1,7.94.43,17.6,17.6,0,0,1,12,10.21Q246.76,726.17,243.8,736.55Z"/><path class="cls-1" d="M230.79,571.63l4.63,2.21-9.81,20.6,60.21,28.69-2.41,5.06L223.2,599.5l-9.82,20.6-4.63-2.2Z"/><path class="cls-1" d="M355.62,497.28Q357,507.23,350,517t-16.81,11.7q-9.81,1.9-19.08-4.71L275.16,496.2l3.2-4.47,38.9,27.8q7.35,5.25,15,3.94T345.71,514q5.85-8.19,4.65-15.87t-8.54-12.93l-38.91-27.8,3.2-4.48L345,480.71Q354.28,487.34,355.62,497.28Z"/><path class="cls-1" d="M387.82,362.33q10.73-10.24,24.93-9.41t24.63,11.75q10.41,10.9,10.59,25.14t-10.55,24.47l-19.73,18.85-49.61-52Zm46.06,48.24q9.15-8.73,8.87-20.75t-9.27-21.43q-9-9.42-21-10.26T391.36,366l-15.76,15,42.52,44.53Z"/><path class="cls-1" d="M526,335.48l30.3-20,2.83,4.29-34.89,23-39.58-59.94,34.46-22.75,2.82,4.28L492.08,284.1l15.38,23.29,27.7-18.29,2.83,4.28-27.71,18.29Z"/><path class="cls-1" d="M643,197.6l5.05-2.17,28.39,66L672,263.33l-63.77-39.8,24.42,56.74-5,2.18-28.4-66,4.39-1.89,63.87,39.76Z"/><path class="cls-1" d="M782.29,156.27l1.16,5-22.24,5.16,15.07,65-5.45,1.27-15.07-65-22.24,5.16-1.15-5Z"/><path class="cls-1" d="M1012.51,216.84l-15.29-30.61-22.87-1.63L972.26,214l-5.48-.39,5.09-71.65,28.56,2a20.74,20.74,0,0,1,14.66,7.31,20.34,20.34,0,0,1,5.25,15.4,20.09,20.09,0,0,1-5.42,12.57,21.3,21.3,0,0,1-12,6.66l15.87,31.38ZM977,147.44l-2.28,32,23.08,1.64a15.93,15.93,0,0,0,17.07-14.83,15.65,15.65,0,0,0-3.85-11.7,15.37,15.37,0,0,0-11-5.51Z"/><path class="cls-1" d="M1153.83,235.63a38,38,0,0,1-51.3-13.8,37,37,0,0,1,13.62-50.63A38,38,0,0,1,1167.44,185a37,37,0,0,1-13.61,50.64Zm-46.58-16.35a32,32,0,1,0-3.12-24.16A30.85,30.85,0,0,0,1107.25,219.28Z"/><path class="cls-1" d="M1285.65,260.19a19.66,19.66,0,0,1,5.08,10.15,17.89,17.89,0,0,1-1.68,11.18,18.77,18.77,0,0,1-11.31,9.88,19.21,19.21,0,0,1-15.11-1l-28.12-13.8,31.63-64.49,26,12.75a18.48,18.48,0,0,1,9.66,10.92,18.06,18.06,0,0,1-.84,14.44,17.53,17.53,0,0,1-15.3,10Zm-20.76,25.59a13.71,13.71,0,0,0,11,.64,14.51,14.51,0,0,0,9-18.34,13.69,13.69,0,0,0-7.2-8.28l-23.19-11.37-12.75,26Zm25-56.32-21-10.33-12.11,24.69,21,10.33a13,13,0,0,0,10.41.58,13.77,13.77,0,0,0,8.54-17.41A13,13,0,0,0,1289.87,229.46Z"/><path class="cls-1" d="M1400.45,367.86a38,38,0,0,1-42.35-32.06,37,37,0,0,1,31.66-41.8,38,38,0,0,1,42.34,32.06,37,37,0,0,1-31.65,41.8Zm-37-32.66a32,32,0,1,0,6.19-23.56A30.81,30.81,0,0,0,1363.44,335.2Z"/><path class="cls-1" d="M1540.14,417.58l-3.78,3.48-15.44-16.81-49.11,45.12-3.79-4.13,49.11-45.12-15.44-16.81,3.78-3.47Z"/><path class="cls-1" d="M1592.82,486.61l3.1,4.54-59.34,40.48-3.1-4.55Z"/><path class="cls-1" d="M1592.76,633.34q-7-14.83-1.79-29.06a37.74,37.74,0,0,1,47.65-22.36q14.25,5.12,21.21,20a36.57,36.57,0,0,1,3.53,18.51,33.51,33.51,0,0,1-5.92,17l-4.58-3.24a27.33,27.33,0,0,0,5.17-14.23,30.68,30.68,0,0,0-2.94-15.81q-6-12.76-18.16-17.09a32.74,32.74,0,0,0-41,19.22q-4.45,12.12,1.54,24.89a30.86,30.86,0,0,0,10.36,12.44,27.2,27.2,0,0,0,14.53,5.11l-.44,5.59a33.09,33.09,0,0,1-17-6.22A36.72,36.72,0,0,1,1592.76,633.34Z"/><path class="cls-1" d="M1636.54,756.18q-2.54-9.73.14-17.67a22.58,22.58,0,0,1,9.59-12.28l3.88,3.92a19.18,19.18,0,0,0-8.35,9.93q-2.38,6.34-.2,14.79t7.27,12.1a12.91,12.91,0,0,0,11.21,2,10.46,10.46,0,0,0,7.7-6.7q1.93-5.22,2.5-15.33c.14-2.47.26-4.26.35-5.4s.28-2.76.54-4.9a27.2,27.2,0,0,1,.91-4.85c.36-1.09.86-2.42,1.52-4a11.06,11.06,0,0,1,2.29-3.65,19.36,19.36,0,0,1,3.26-2.55,15.52,15.52,0,0,1,4.53-1.93,17.38,17.38,0,0,1,15.13,2.57q6.69,4.74,9.06,13.89a24.35,24.35,0,0,1-8.75,26.38l-3.66-3.88q10.72-8.13,7.34-21.19-1.87-7.23-6.76-10.57a12.64,12.64,0,0,0-10.76-1.83q-5.65,1.47-7.4,6.21c-1.16,3.15-2,8-2.36,14.64q-.37,6.32-.87,9.93a49.51,49.51,0,0,1-1.86,8,15.23,15.23,0,0,1-4.14,6.91,16.27,16.27,0,0,1-7.06,3.65,17.63,17.63,0,0,1-15.5-2.74Q1639.24,766.62,1636.54,756.18Z"/><path class="cls-1" d="M1730.25,996.66l-5.13-.22,1-22.8-66.64-2.89.24-5.6,66.64,2.89,1-22.8,5.12.22Z"/><path class="cls-1" d="M1652.22,1075.4l-7.55,35.52-5-1.07,8.69-40.89,70.26,14.94-8.59,40.38-5-1.06,7.45-35-27.3-5.81-6.91,32.48-5-1.07,6.91-32.47Z"/><path class="cls-1" d="M1598.22,1230.69l19.58.31,13.67-33.75-14.28-13.39,2.18-5.39,56,53.12-2.18,5.38-77.13-.9Zm37.23-29.59-12.15,30,44.78.68Z"/><path class="cls-1" d="M1585.9,1396.73l-60.19-39.19,3-4.61,53.48,34.83-22.31-46.59.51-.79,51.64,1.56-53.49-34.82,3-4.61,60.2,39.19-3.74,5.74-49.75-1.44,21.44,44.91Z"/><path class="cls-1" d="M734.84,1631.47l-23.56,68.88-5.21-1.79,20.93-61.2L687,1671l-.88-.3-11-51-20.94,61.2L649,1679l23.57-68.88,6.49,2.22,10.67,49.15,38.53-32.32Z"/><path class="cls-1" d="M858.17,1655.94,847,1727.88l-5.45-.85,9.93-63.92L818,1703.16l-.93-.14-19.75-48.33-9.93,63.92-5.45-.84,11.18-71.94,6.79,1.05L819,1693.42l32.3-38.55Z"/><path class="cls-1" d="M966.71,1731.84l-6.34.1-21.54-32.1-20.48,32.79-6.44.1,23.62-37.83-23.45-35,6.34-.11L938.67,1690l19.16-30.78,6.35-.11-22.31,35.73Z"/><path class="cls-1" d="M1078.68,1720.27l-6.28.9L1047,1692l-16.18,35.11-6.38.91,18.66-40.5-27.68-31.75,6.28-.9,23.89,27.35,15.13-33,6.27-.9-17.61,38.25Z"/><path class="cls-1" d="M1121.8,1635.77l5.33-1.42,18.79,70.33-5.32,1.43Z"/><path class="cls-1" d="M1186.39,1615.46l5.17-1.92,25.36,68.24-5.17,1.93Z"/><circle class="cls-9" cx="937.5" cy="937.5" r="701.69"/></svg>