<?xml version="1.0"?>
<svg xmlns="http://www.w3.org/2000/svg" width="460" height="130" viewBox="0 0 460 130" fill="none">
  <path d="M52.28 88.42C52.28 85.47 52.96 82.68 54.17 80.2L54.22 80.11C54.45 79.65 54.69 79.2 54.95 78.77L73.86 43.97H46.19L22.19 88.84L45.07 129.99L60.56 103.91C55.59 100.63 52.29 94.91 52.29 88.41L52.28 88.42Z" fill="#44497A"/>
  <path d="M94.13 43.98H78.48L63.64 71.28C65.69 70.45 67.93 69.98 70.27 69.98C80.21 69.98 88.27 78.23 88.27 88.41C88.27 94.99 84.9 100.77 79.83 104.03L95.25 129.99L118.13 88.84L94.13 43.97V43.98Z" fill="#44497A"/>
  <path d="M99.93 130H140.26L120.45 93.13L99.93 130Z" fill="#44497A"/>
  <path d="M40.34 130H0L19.81 93.13L40.34 130Z" fill="#44497A"/>
  <path d="M91.43 39.8H48.52L70.29 0L91.43 39.8Z" fill="#44497A"/>
  <path d="M164.43 31.2399C160.38 31.2399 157.19 29.8599 154.85 27.0899C152.52 24.3199 151.35 20.5599 151.35 15.7899C151.35 12.6099 151.88 9.85992 152.94 7.54992C154 5.23992 155.51 3.44992 157.47 2.17992C159.43 0.919916 161.75 0.289917 164.43 0.289917C167.11 0.289917 169.46 0.909917 171.42 2.15992C173.38 3.39992 174.88 5.17992 175.93 7.49992C176.98 9.80992 177.51 12.5599 177.51 15.7399C177.51 18.9199 176.98 21.6699 175.92 23.9999C174.86 26.3199 173.35 28.1099 171.39 29.3699C169.43 30.6199 167.11 31.2499 164.43 31.2499V31.2399ZM164.43 26.5499C166.92 26.5499 168.87 25.5899 170.29 23.6699C171.71 21.7499 172.42 19.0999 172.42 15.7299C172.42 12.3599 171.71 9.67992 170.29 7.76992C168.87 5.85992 166.92 4.90992 164.43 4.90992C161.94 4.90992 159.97 5.85992 158.56 7.75992C157.15 9.65992 156.45 12.3399 156.45 15.7899C156.45 19.2399 157.15 21.7999 158.56 23.6999C159.97 25.5999 161.93 26.5499 164.43 26.5499Z" fill="#44497A"/>
  <path d="M184.8 42.2899V0.979917H189.83V3.46992C191.95 1.34992 194.48 0.289917 197.41 0.289917C199.92 0.289917 202.08 0.919917 203.9 2.16992C205.72 3.41992 207.13 5.20992 208.12 7.51992C209.11 9.82992 209.61 12.5699 209.61 15.7399C209.61 18.9099 209.11 21.6499 208.11 23.9699C207.11 26.2899 205.69 28.0899 203.87 29.3499C202.05 30.6099 199.89 31.2399 197.4 31.2399C195.84 31.2399 194.43 30.9499 193.18 30.3899C191.93 29.8199 190.81 28.9499 189.82 27.7699V39.9199L184.79 42.2899H184.8ZM196.78 26.5499C199.27 26.5499 201.17 25.6199 202.49 23.7399C203.81 21.8699 204.47 19.1999 204.47 15.7299C204.47 12.2599 203.78 9.75992 202.39 7.81992C201 5.87992 199.13 4.90992 196.78 4.90992C195.28 4.90992 193.93 5.25992 192.73 5.94992C191.53 6.63992 190.57 7.62992 189.84 8.89992V22.5499C190.86 23.8799 191.95 24.8799 193.11 25.5399C194.27 26.2099 195.49 26.5399 196.78 26.5399V26.5499Z" fill="#44497A"/>
  <path d="M229.52 31.2399C226.82 31.2399 224.49 30.5699 222.52 29.2399C220.55 27.9099 219.04 26.0799 217.98 23.7399C216.92 21.4099 216.39 18.7399 216.39 15.7299C216.39 12.4699 216.94 9.68991 218.04 7.37991C219.14 5.07991 220.67 3.31991 222.64 2.09991C224.61 0.879907 226.9 0.279907 229.52 0.279907C231.74 0.279907 233.77 0.779907 235.62 1.76991C237.47 2.75991 238.95 4.29991 240.06 6.36991C241.17 8.43991 241.72 11.0999 241.72 14.3399C241.72 14.7999 241.71 15.3399 241.68 15.9499C241.65 16.5599 241.61 17.1799 241.55 17.8199H221.53C221.72 19.6099 222.17 21.1899 222.86 22.5399C223.55 23.8899 224.47 24.9499 225.61 25.7099C226.75 26.4699 228.09 26.8499 229.63 26.8499C230.88 26.8499 232.05 26.6299 233.12 26.1799C234.19 25.7399 235.19 25.0499 236.11 24.1299L239.06 27.4299C237.96 28.5299 236.6 29.4399 234.97 30.1599C233.34 30.8799 231.52 31.2399 229.52 31.2399ZM221.48 13.4199H236.64C236.64 11.7399 236.37 10.2399 235.82 8.91991C235.27 7.59991 234.46 6.55991 233.4 5.80991C232.34 5.05991 231.05 4.67991 229.52 4.67991C227.38 4.67991 225.54 5.36991 224.01 6.75991C222.48 8.14991 221.63 10.3699 221.48 13.4099V13.4199Z" fill="#44497A"/>
  <path d="M249.54 30.5499V0.979917H254.57V3.98992C255.48 2.73992 256.57 1.80992 257.84 1.19992C259.11 0.589917 260.57 0.289917 262.21 0.289917C265.8 0.289917 268.46 1.36992 270.19 3.53992C271.93 5.70992 272.79 9.03992 272.79 13.5299V30.5399H267.76V12.6599C267.76 10.1699 267.21 8.25992 266.1 6.91992C264.99 5.57992 263.42 4.90992 261.4 4.90992C259.14 4.90992 257.44 5.54992 256.29 6.82992C255.14 8.10992 254.57 10.0199 254.57 12.5399V30.5299H249.54V30.5499Z" fill="#44497A"/>
  <path d="M303.86 31.2399C301.78 31.2399 299.78 30.7899 297.86 29.8999C295.94 28.9999 294.37 27.7899 293.16 26.2699L296.75 23.1999C297.79 24.3199 298.95 25.1899 300.22 25.7999C301.49 26.4199 302.75 26.7299 303.98 26.7299C305.72 26.7299 307.07 26.3999 308.03 25.7299C308.99 25.0599 309.48 24.1399 309.48 22.9699C309.48 22.1999 309.26 21.5099 308.83 20.8899C308.4 20.2699 307.68 19.6799 306.69 19.1299C305.7 18.5699 304.37 17.9799 302.71 17.3699C299.45 16.1499 297.11 14.8299 295.7 13.4099C294.28 11.9799 293.57 10.2199 293.57 8.11994C293.57 5.80994 294.49 3.91994 296.33 2.47994C298.17 1.03994 300.57 0.309937 303.52 0.309937C305.55 0.309937 307.41 0.689937 309.1 1.44994C310.8 2.20994 312.25 3.31994 313.47 4.75994L310 7.64994C308.23 5.75994 306.05 4.81994 303.46 4.81994C301.94 4.81994 300.74 5.10994 299.86 5.69994C298.98 6.28994 298.54 7.08994 298.54 8.11994C298.54 9.14994 299.04 9.96994 300.03 10.7099C301.02 11.4499 302.82 12.3099 305.43 13.2699C307.55 14.0399 309.27 14.8799 310.59 15.7899C311.91 16.6999 312.88 17.7299 313.48 18.8899C314.08 20.0499 314.39 21.3799 314.39 22.8799C314.39 25.4799 313.45 27.5299 311.58 29.0299C309.71 30.5299 307.13 31.2699 303.86 31.2699V31.2399Z" fill="#44497A"/>
  <path d="M332.73 31.2399C328.68 31.2399 325.49 29.8599 323.15 27.0899C320.82 24.3199 319.65 20.5599 319.65 15.7899C319.65 12.6099 320.18 9.85992 321.24 7.54992C322.3 5.23992 323.81 3.44992 325.77 2.17992C327.73 0.919916 330.05 0.289917 332.73 0.289917C335.41 0.289917 337.76 0.909917 339.72 2.15992C341.68 3.39992 343.18 5.17992 344.23 7.49992C345.28 9.80992 345.81 12.5599 345.81 15.7399C345.81 18.9199 345.28 21.6699 344.22 23.9999C343.16 26.3199 341.65 28.1099 339.69 29.3699C337.73 30.6199 335.41 31.2499 332.73 31.2499V31.2399ZM332.73 26.5499C335.22 26.5499 337.17 25.5899 338.59 23.6699C340.01 21.7499 340.72 19.0999 340.72 15.7299C340.72 12.3599 340.01 9.67992 338.59 7.76992C337.17 5.85992 335.22 4.90992 332.73 4.90992C330.24 4.90992 328.27 5.85992 326.86 7.75992C325.45 9.65992 324.75 12.3399 324.75 15.7899C324.75 19.2399 325.45 21.7999 326.86 23.6999C328.27 25.5999 330.23 26.5499 332.73 26.5499Z" fill="#44497A"/>
  <path d="M363.86 31.2399C360.22 31.2399 357.51 30.1599 355.75 27.9999C353.99 25.8399 353.1 22.5199 353.1 18.0499V0.979919H358.13V18.7999C358.13 21.3099 358.68 23.2299 359.78 24.5599C360.88 25.8899 362.45 26.5599 364.49 26.5599C366.75 26.5599 368.45 25.9099 369.6 24.6199C370.75 23.3299 371.32 21.4299 371.32 18.9199V0.979919H376.35V30.5399H371.32V27.7099C370.37 28.9199 369.31 29.8199 368.12 30.3899C366.93 30.9599 365.51 31.2399 363.85 31.2399H363.86Z" fill="#44497A"/>
  <path d="M386.07 30.5499V0.979917H391.1V4.85992C391.77 3.35992 392.71 2.21992 393.89 1.44992C395.08 0.679917 396.48 0.289917 398.1 0.289917C399.89 0.289917 401.42 0.789917 402.67 1.78992L401.92 6.52992C401.28 6.08992 400.62 5.75992 399.94 5.55992C399.26 5.35992 398.51 5.25992 397.7 5.25992C396.37 5.25992 395.21 5.61992 394.23 6.32992C393.25 7.03992 392.48 8.04992 391.93 9.33992C391.38 10.6299 391.1 12.1499 391.1 13.8799V30.5399H386.07V30.5499Z" fill="#44497A"/>
  <path d="M417.37 31.2399C414.83 31.2399 412.64 30.6199 410.8 29.3699C408.97 28.1299 407.56 26.3499 406.58 24.0499C405.6 21.7499 405.1 18.9899 405.1 15.7899C405.1 12.5899 405.6 9.79991 406.6 7.48991C407.6 5.17991 409.03 3.39991 410.9 2.14991C412.76 0.909907 414.99 0.279907 417.6 0.279907C420.21 0.279907 422.31 0.869907 424.08 2.03991C425.85 3.21991 427.15 4.91991 427.96 7.15991L423.22 8.89991C422.74 7.62991 422.02 6.64991 421.06 5.97991C420.11 5.30991 418.97 4.96991 417.66 4.96991C415.27 4.96991 413.44 5.89991 412.16 7.74991C410.89 9.59991 410.25 12.2799 410.25 15.7899C410.25 19.2999 410.88 21.8599 412.13 23.7199C413.38 25.5699 415.17 26.4999 417.48 26.4999C418.96 26.4999 420.23 26.1099 421.28 25.3399C422.33 24.5699 423.07 23.4899 423.49 22.0999L428.18 23.6599C427.47 26.0899 426.16 27.9599 424.27 29.2699C422.38 30.5799 420.08 31.2399 417.36 31.2399H417.37Z" fill="#44497A"/>
  <path d="M447.34 31.2399C444.64 31.2399 442.31 30.5699 440.34 29.2399C438.37 27.9099 436.86 26.0799 435.8 23.7399C434.74 21.4099 434.21 18.7399 434.21 15.7299C434.21 12.4699 434.76 9.68991 435.86 7.37991C436.96 5.07991 438.49 3.31991 440.46 2.09991C442.43 0.879907 444.72 0.279907 447.34 0.279907C449.56 0.279907 451.59 0.779907 453.44 1.76991C455.29 2.75991 456.77 4.29991 457.88 6.36991C458.99 8.43991 459.54 11.0999 459.54 14.3399C459.54 14.7999 459.53 15.3399 459.5 15.9499C459.47 16.5599 459.43 17.1799 459.37 17.8199H439.35C439.54 19.6099 439.99 21.1899 440.68 22.5399C441.37 23.8899 442.29 24.9499 443.43 25.7099C444.57 26.4699 445.91 26.8499 447.45 26.8499C448.7 26.8499 449.87 26.6299 450.94 26.1799C452.01 25.7399 453.01 25.0499 453.93 24.1299L456.88 27.4299C455.78 28.5299 454.42 29.4399 452.79 30.1599C451.16 30.8799 449.34 31.2399 447.34 31.2399ZM439.3 13.4199H454.46C454.46 11.7399 454.19 10.2399 453.64 8.91991C453.09 7.59991 452.28 6.55991 451.22 5.80991C450.16 5.05991 448.87 4.67991 447.34 4.67991C445.2 4.67991 443.36 5.36991 441.83 6.75991C440.3 8.14991 439.45 10.3699 439.3 13.4099V13.4199Z" fill="#44497A"/>
  <path d="M151.77 79.86V50.3H156.8V54.18C157.47 52.68 158.41 51.54 159.59 50.77C160.78 50 162.18 49.61 163.8 49.61C165.59 49.61 167.12 50.11 168.37 51.11L167.62 55.85C166.98 55.41 166.32 55.08 165.64 54.88C164.95 54.68 164.21 54.58 163.4 54.58C162.07 54.58 160.91 54.94 159.93 55.65C158.95 56.36 158.18 57.37 157.63 58.66C157.08 59.95 156.81 61.47 156.81 63.2V79.86H151.78H151.77Z" fill="#666666"/>
  <path d="M182.66 80.55C178.61 80.55 175.42 79.17 173.08 76.4C170.74 73.63 169.58 69.87 169.58 65.1C169.58 61.92 170.11 59.17 171.17 56.86C172.23 54.55 173.74 52.76 175.7 51.49C177.66 50.23 179.98 49.59 182.66 49.59C185.34 49.59 187.69 50.21 189.65 51.46C191.61 52.7 193.11 54.48 194.16 56.8C195.21 59.11 195.74 61.86 195.74 65.04C195.74 68.22 195.21 70.98 194.15 73.3C193.09 75.62 191.58 77.41 189.62 78.67C187.66 79.92 185.34 80.55 182.66 80.55ZM182.66 75.86C185.15 75.86 187.1 74.9 188.52 72.98C189.94 71.06 190.65 68.41 190.65 65.04C190.65 61.67 189.94 58.99 188.52 57.08C187.1 55.17 185.15 54.22 182.66 54.22C180.17 54.22 178.2 55.17 176.79 57.07C175.38 58.97 174.68 61.65 174.68 65.1C174.68 68.55 175.38 71.11 176.79 73.01C178.2 74.91 180.16 75.86 182.66 75.86Z" fill="#666666"/>
  <path d="M214.71 80.55C213.24 80.55 211.91 80.29 210.72 79.77C209.52 79.25 208.33 78.43 207.13 77.31V79.86H202.1V40.46L207.13 38.09V52.84C208.06 51.82 209.17 51.02 210.47 50.45C211.77 49.88 213.13 49.6 214.53 49.6C217.04 49.6 219.21 50.23 221.04 51.48C222.87 52.73 224.29 54.52 225.29 56.83C226.29 59.14 226.79 61.88 226.79 65.05C226.79 69.97 225.73 73.78 223.61 76.49C221.49 79.2 218.52 80.55 214.7 80.55H214.71ZM214.02 75.86C216.49 75.86 218.38 74.92 219.69 73.05C221 71.18 221.66 68.51 221.66 65.04C221.66 61.57 221.01 58.83 219.71 56.98C218.41 55.14 216.51 54.22 214.03 54.22C212.7 54.22 211.39 54.59 210.1 55.33C208.81 56.07 207.82 57.01 207.15 58.15V71.86C207.88 73.07 208.86 74.04 210.09 74.77C211.31 75.49 212.63 75.85 214.04 75.85L214.02 75.86Z" fill="#666666"/>
  <path d="M245.38 80.55C241.33 80.55 238.14 79.17 235.8 76.4C233.47 73.63 232.3 69.87 232.3 65.1C232.3 61.92 232.83 59.17 233.89 56.86C234.95 54.55 236.46 52.76 238.42 51.49C240.38 50.23 242.7 49.59 245.38 49.59C248.06 49.59 250.41 50.21 252.37 51.46C254.33 52.7 255.83 54.48 256.88 56.8C257.93 59.11 258.46 61.86 258.46 65.04C258.46 68.22 257.93 70.98 256.87 73.3C255.81 75.62 254.3 77.41 252.34 78.67C250.38 79.92 248.06 80.55 245.38 80.55ZM245.38 75.86C247.87 75.86 249.82 74.9 251.24 72.98C252.66 71.06 253.37 68.41 253.37 65.04C253.37 61.67 252.66 58.99 251.24 57.08C249.82 55.17 247.87 54.22 245.38 54.22C242.89 54.22 240.92 55.17 239.51 57.07C238.1 58.97 237.4 61.65 237.4 65.1C237.4 68.55 238.1 71.11 239.51 73.01C240.92 74.91 242.88 75.86 245.38 75.86Z" fill="#666666"/>
  <path d="M272.45 80.55C270.42 80.55 268.88 79.94 267.81 78.73C266.74 77.51 266.2 75.77 266.2 73.49V54.69H261.4V50.29H266.2V40.51L271.23 38.08V50.29H278.52V54.69H271.23V71.81C271.23 73.22 271.48 74.24 271.97 74.89C272.46 75.54 273.24 75.86 274.3 75.86C275.65 75.86 277.12 75.34 278.7 74.3L278.12 79.22C277.25 79.68 276.35 80.02 275.41 80.23C274.47 80.44 273.49 80.55 272.45 80.55Z" fill="#666666"/>
  <path d="M285.99 44.9099C285.12 44.9099 284.38 44.6099 283.78 43.9999C283.18 43.3899 282.87 42.6499 282.87 41.7899C282.87 40.9299 283.17 40.1199 283.78 39.4899C284.39 38.8599 285.13 38.5499 285.99 38.5499C286.85 38.5499 287.65 38.8599 288.26 39.4899C288.87 40.1199 289.17 40.8799 289.17 41.7899C289.17 42.6999 288.87 43.3999 288.26 43.9999C287.65 44.6099 286.9 44.9099 285.99 44.9099ZM283.5 79.8499V50.2899H288.53V79.8499H283.5Z" fill="#666666"/>
  <path d="M307.16 80.55C304.61 80.55 302.43 79.93 300.59 78.68C298.76 77.44 297.35 75.66 296.37 73.36C295.39 71.06 294.89 68.3 294.89 65.1C294.89 61.9 295.39 59.11 296.39 56.8C297.39 54.49 298.82 52.71 300.69 51.46C302.55 50.22 304.78 49.59 307.39 49.59C310 49.59 312.1 50.18 313.87 51.35C315.64 52.53 316.94 54.23 317.75 56.47L313.01 58.21C312.53 56.94 311.81 55.96 310.85 55.29C309.9 54.62 308.76 54.28 307.45 54.28C305.06 54.28 303.23 55.21 301.95 57.06C300.68 58.91 300.04 61.59 300.04 65.1C300.04 68.61 300.67 71.17 301.92 73.03C303.17 74.89 304.96 75.81 307.27 75.81C308.76 75.81 310.02 75.42 311.07 74.65C312.12 73.88 312.86 72.8 313.28 71.41L317.97 72.97C317.26 75.4 315.95 77.27 314.06 78.58C312.17 79.89 309.87 80.55 307.15 80.55H307.16Z" fill="#666666"/>
  <path d="M332.22 80.55C330.14 80.55 328.14 80.1 326.22 79.2C324.3 78.3 322.73 77.09 321.52 75.57L325.11 72.5C326.15 73.62 327.31 74.49 328.58 75.1C329.85 75.72 331.11 76.03 332.34 76.03C334.08 76.03 335.43 75.7 336.39 75.03C337.35 74.36 337.84 73.44 337.84 72.27C337.84 71.5 337.62 70.8 337.19 70.19C336.76 69.57 336.04 68.98 335.05 68.43C334.06 67.87 332.73 67.28 331.07 66.67C327.81 65.46 325.47 64.13 324.06 62.71C322.64 61.28 321.93 59.52 321.93 57.42C321.93 55.11 322.85 53.23 324.69 51.78C326.53 50.33 328.93 49.61 331.88 49.61C333.91 49.61 335.77 49.99 337.46 50.75C339.15 51.51 340.61 52.62 341.83 54.06L338.36 56.95C336.59 55.06 334.41 54.12 331.82 54.12C330.3 54.12 329.1 54.41 328.22 55C327.34 55.59 326.9 56.39 326.9 57.42C326.9 58.45 327.4 59.27 328.39 60.01C329.38 60.75 331.18 61.61 333.78 62.57C335.9 63.34 337.62 64.18 338.94 65.09C340.26 66 341.23 67.03 341.83 68.19C342.44 69.35 342.74 70.68 342.74 72.18C342.74 74.78 341.8 76.83 339.93 78.33C338.06 79.83 335.48 80.57 332.21 80.57L332.22 80.55Z" fill="#666666"/>
  <path d="M161.35 129.83C158.15 129.83 155.63 128.94 153.8 127.17C151.97 125.4 151.05 122.97 151.05 119.88C151.05 117.89 151.5 116.17 152.41 114.7C153.32 113.24 154.6 112.1 156.26 111.3C157.92 110.5 159.87 110.1 162.1 110.1C163.55 110.1 164.9 110.26 166.16 110.58C167.42 110.9 168.61 111.38 169.73 112.01V109.93C169.73 107.64 169.21 105.95 168.17 104.88C167.13 103.81 165.51 103.27 163.31 103.27C161.9 103.27 160.44 103.53 158.93 104.05C157.42 104.57 156 105.29 154.69 106.22L153.24 102C154.72 101.02 156.42 100.25 158.32 99.7C160.22 99.15 162.1 98.87 163.95 98.87C167.46 98.87 170.09 99.76 171.85 101.55C173.6 103.34 174.48 105.99 174.48 109.52V129.13H169.74V126.41C168.58 127.51 167.28 128.35 165.83 128.94C164.38 129.53 162.89 129.82 161.35 129.82V129.83ZM162.1 125.43C163.47 125.43 164.82 125.09 166.16 124.42C167.5 123.75 168.69 122.79 169.73 121.56V116.47C168.75 115.85 167.63 115.37 166.37 115.02C165.12 114.67 163.92 114.5 162.78 114.5C160.62 114.5 158.91 114.99 157.66 115.96C156.41 116.93 155.78 118.26 155.78 119.94C155.78 121.62 156.34 122.98 157.46 123.96C158.58 124.94 160.12 125.44 162.09 125.44L162.1 125.43Z" fill="#44497A"/>
  <path d="M182 129.13V89.73L187.03 87.36V129.13H182Z" fill="#44497A"/>
  <path d="M195.65 129.13V89.73L200.68 87.36V129.13H195.65Z" fill="#44497A"/>
  <path d="M211.56 94.19C210.69 94.19 209.95 93.89 209.35 93.28C208.75 92.67 208.44 91.94 208.44 91.07C208.44 90.2 208.74 89.4 209.35 88.77C209.96 88.14 210.7 87.83 211.56 87.83C212.42 87.83 213.22 88.14 213.83 88.77C214.44 89.4 214.74 90.16 214.74 91.07C214.74 91.98 214.44 92.68 213.83 93.28C213.22 93.89 212.47 94.19 211.56 94.19ZM209.07 129.13V99.57H214.1V129.13H209.07Z" fill="#44497A"/>
  <path d="M230.77 129.83C227.57 129.83 225.05 128.94 223.22 127.17C221.39 125.4 220.47 122.97 220.47 119.88C220.47 117.89 220.92 116.17 221.83 114.7C222.74 113.24 224.02 112.1 225.68 111.3C227.34 110.5 229.29 110.1 231.52 110.1C232.97 110.1 234.32 110.26 235.58 110.58C236.84 110.9 238.03 111.38 239.15 112.01V109.93C239.15 107.64 238.63 105.95 237.59 104.88C236.55 103.81 234.93 103.27 232.73 103.27C231.32 103.27 229.86 103.53 228.35 104.05C226.84 104.57 225.42 105.29 224.11 106.22L222.66 102C224.14 101.02 225.84 100.25 227.74 99.7C229.64 99.15 231.52 98.87 233.37 98.87C236.88 98.87 239.51 99.76 241.27 101.55C243.02 103.34 243.9 105.99 243.9 109.52V129.13H239.16V126.41C238 127.51 236.7 128.35 235.25 128.94C233.8 129.53 232.31 129.82 230.77 129.82V129.83ZM231.52 125.43C232.89 125.43 234.24 125.09 235.58 124.42C236.92 123.75 238.11 122.79 239.15 121.56V116.47C238.17 115.85 237.05 115.37 235.79 115.02C234.54 114.67 233.34 114.5 232.2 114.5C230.04 114.5 228.33 114.99 227.08 115.96C225.83 116.93 225.2 118.26 225.2 119.94C225.2 121.62 225.76 122.98 226.88 123.96C228 124.94 229.54 125.44 231.51 125.44L231.52 125.43Z" fill="#44497A"/>
  <path d="M251.89 129.13V99.57H256.92V102.58C257.83 101.33 258.92 100.4 260.19 99.79C261.46 99.18 262.92 98.88 264.56 98.88C268.15 98.88 270.81 99.97 272.54 102.13C274.28 104.3 275.14 107.63 275.14 112.13V129.14H270.11V111.26C270.11 108.77 269.56 106.86 268.45 105.52C267.34 104.18 265.77 103.51 263.75 103.51C261.49 103.51 259.79 104.15 258.64 105.43C257.49 106.71 256.92 108.62 256.92 111.14V129.13H251.89Z" fill="#44497A"/>
  <path d="M294.35 129.83C291.8 129.83 289.62 129.21 287.78 127.96C285.95 126.72 284.54 124.94 283.56 122.64C282.58 120.34 282.08 117.58 282.08 114.38C282.08 111.18 282.58 108.39 283.58 106.08C284.58 103.77 286.01 101.99 287.88 100.74C289.74 99.5 291.97 98.87 294.58 98.87C297.19 98.87 299.29 99.46 301.06 100.64C302.83 101.82 304.13 103.52 304.94 105.76L300.2 107.5C299.72 106.23 299 105.25 298.04 104.58C297.09 103.91 295.95 103.57 294.64 103.57C292.25 103.57 290.42 104.5 289.14 106.35C287.87 108.2 287.23 110.88 287.23 114.39C287.23 117.9 287.86 120.46 289.11 122.32C290.36 124.18 292.15 125.1 294.46 125.1C295.95 125.1 297.21 124.71 298.26 123.94C299.31 123.17 300.05 122.09 300.47 120.7L305.16 122.26C304.45 124.69 303.14 126.56 301.25 127.87C299.36 129.18 297.06 129.84 294.34 129.84L294.35 129.83Z" fill="#44497A"/>
  <path d="M323.1 129.83C320.4 129.83 318.07 129.16 316.1 127.83C314.13 126.5 312.62 124.67 311.56 122.33C310.5 119.99 309.97 117.33 309.97 114.32C309.97 111.06 310.52 108.28 311.62 105.98C312.72 103.68 314.25 101.92 316.22 100.7C318.19 99.49 320.48 98.88 323.1 98.88C325.32 98.88 327.35 99.38 329.2 100.37C331.05 101.36 332.53 102.9 333.64 104.97C334.75 107.04 335.3 109.7 335.3 112.94C335.3 113.4 335.29 113.94 335.26 114.55C335.23 115.16 335.19 115.78 335.13 116.42H315.11C315.3 118.21 315.75 119.79 316.44 121.13C317.13 122.47 318.05 123.54 319.19 124.3C320.33 125.06 321.67 125.44 323.21 125.44C324.46 125.44 325.63 125.22 326.7 124.77C327.77 124.32 328.77 123.64 329.69 122.72L332.64 126.02C331.54 127.12 330.18 128.03 328.55 128.75C326.92 129.47 325.1 129.83 323.1 129.83ZM315.06 112.01H330.22C330.22 110.33 329.95 108.83 329.4 107.51C328.85 106.19 328.05 105.15 326.98 104.4C325.92 103.65 324.63 103.27 323.1 103.27C320.96 103.27 319.12 103.96 317.59 105.35C316.06 106.74 315.21 108.96 315.06 112V112.01Z" fill="#44497A"/>
</svg>
