<?xml version="1.0" encoding="UTF-8" standalone="no"?>
<!-- Created with Inkscape (http://www.inkscape.org/) -->

<svg
   version="1.1"
   id="svg2"
   width="780.18665"
   height="249.98666"
   viewBox="0 0 780.18665 249.98666"
   sodipodi:docname="Primarni ZZ ETF Engleski.eps"
   xmlns:inkscape="http://www.inkscape.org/namespaces/inkscape"
   xmlns:sodipodi="http://sodipodi.sourceforge.net/DTD/sodipodi-0.dtd"
   xmlns="http://www.w3.org/2000/svg"
   xmlns:svg="http://www.w3.org/2000/svg">
  <defs
     id="defs6" />
  <sodipodi:namedview
     id="namedview4"
     pagecolor="#ffffff"
     bordercolor="#000000"
     borderopacity="0.25"
     inkscape:showpageshadow="2"
     inkscape:pageopacity="0.0"
     inkscape:pagecheckerboard="0"
     inkscape:deskcolor="#d1d1d1" />
  <g
     id="g8"
     inkscape:groupmode="layer"
     inkscape:label="ink_ext_XXXXXX"
     transform="matrix(1.3333333,0,0,-1.3333333,0,249.98667)">
    <g
       id="g10"
       transform="scale(0.1)">
      <path
         d="M 765.238,889.625 V 711.859 C 676.129,730.34 605.953,800.512 587.477,889.625 Z m 0,271.385 V 983.246 H 587.477 c 18.476,89.114 88.652,159.294 177.761,177.764 z M 858.863,889.625 H 1036.63 C 1018.15,800.512 947.973,730.34 858.863,711.859 Z m 0,271.385 c 89.11,-18.47 159.287,-88.65 177.767,-177.764 H 858.863 Z m 485.917,151.08 v 280.86 H 279.32 V 279.922 h 1065.46 v 280.859 h -93.61 V 373.531 H 372.945 V 889.625 H 492.477 C 512.945,748.73 624.332,637.332 765.238,616.859 V 560.781 H 579.164 v -93.633 h 465.776 v 93.633 H 858.863 v 56.078 c 140.899,20.473 252.297,131.871 272.767,272.766 h 119.54 V 711.859 h 93.61 v 449.151 h -93.61 V 983.246 H 1131.63 C 1111.16,1124.14 999.762,1235.54 858.863,1256.01 v 56.08 h 186.077 v 93.63 H 579.164 v -93.63 h 186.074 v -56.08 C 624.34,1235.54 512.945,1124.14 492.477,983.246 H 372.945 v 516.094 h 878.225 v -187.25 h 93.61"
         style="fill:#a81f36;fill-opacity:1;fill-rule:nonzero;stroke:none"
         id="path12" />
      <path
         d="m 1639.12,1592.21 v -195.19 c 0,-44.11 13.36,-57.48 28.51,-57.48 16.93,0 28.97,12.03 28.97,57.48 v 195.19 h 58.38 v -184.94 c 0,-77.09 -28.96,-118.98 -86.91,-118.98 -62.83,0 -87.34,43.23 -87.34,118.53 v 185.39 h 58.39"
         style="fill:#656263;fill-opacity:1;fill-rule:nonzero;stroke:none"
         id="path14" />
      <path
         d="m 1805.43,1291.85 v 300.36 h 53.48 l 46.35,-117.66 c 8.91,-23.16 23.61,-61.94 32.08,-87.78 h 0.91 c -1.79,31.63 -5.81,83.79 -5.81,139.03 v 66.41 h 51.25 v -300.36 h -53.48 l -45.89,114.08 c -9.81,25.41 -23.62,63.28 -30.31,90.47 h -0.89 c 1.34,-30.31 3.56,-76.66 3.56,-136.81 v -67.74 h -51.25"
         style="fill:#656263;fill-opacity:1;fill-rule:nonzero;stroke:none"
         id="path16" />
      <path
         d="m 2093.87,1592.21 v -300.36 h -58.39 v 300.36 h 58.39"
         style="fill:#656263;fill-opacity:1;fill-rule:nonzero;stroke:none"
         id="path18" />
      <path
         d="m 2187.93,1291.85 -67.28,300.36 h 64.61 l 21.39,-129.69 c 5.36,-32.09 11.58,-69.06 15.6,-104.27 h 0.89 c 4.01,35.65 8.92,71.75 14.26,105.61 l 20.5,128.35 h 64.18 l -68.64,-300.36 h -65.51"
         style="fill:#656263;fill-opacity:1;fill-rule:nonzero;stroke:none"
         id="path20" />
      <path
         d="m 2474.58,1423.75 h -68.63 v -81.1 h 77.55 v -50.8 h -135.93 v 300.36 h 130.58 v -50.8 h -72.2 v -69.08 h 68.63 v -48.58"
         style="fill:#656263;fill-opacity:1;fill-rule:nonzero;stroke:none"
         id="path22" />
      <path
         d="m 2581.62,1456.73 h 10.25 c 25.4,0 40.11,20.51 40.11,46.8 0,25.41 -10.26,43.67 -36.56,44.56 -4.89,0 -10.68,-0.44 -13.8,-1.78 z m -58.38,131.03 c 18.27,3.56 41.43,5.79 63.73,5.79 32.09,0 60.61,-4.45 80.21,-22.28 18.27,-16.49 23.62,-36.54 23.62,-62.4 0,-32.09 -15.6,-61.04 -46.35,-75.3 v -0.91 c 20.51,-8.02 30.75,-27.18 36.54,-59.27 5.8,-33.43 13.82,-70.4 19.16,-81.54 h -61.04 c -3.57,8.47 -10.26,38.76 -14.71,71.75 -5.34,37.43 -14.72,48.12 -34.32,48.12 h -8.46 v -119.87 h -58.38 v 295.91"
         style="fill:#656263;fill-opacity:1;fill-rule:nonzero;stroke:none"
         id="path24" />
      <path
         d="m 2726.09,1351.57 c 12.04,-6.7 32.53,-11.61 49.46,-11.61 27.64,0 41.01,14.27 41.01,33.88 0,21.85 -13.37,32.54 -38.78,49.04 -41,24.95 -56.59,56.58 -56.59,83.76 0,48.14 32.09,88.25 94.92,88.25 19.62,0 38.33,-5.35 47.23,-10.69 l -9.35,-50.38 c -8.48,5.36 -21.4,10.27 -38.33,10.27 -24.94,0 -36.98,-15.15 -36.98,-31.2 0,-17.83 8.9,-27.18 41.44,-46.8 39.66,-24.05 54.37,-54.37 54.37,-86 0,-54.82 -40.56,-90.93 -99.38,-90.93 -24.06,0 -47.68,6.25 -57.49,12.05 l 8.47,50.36"
         style="fill:#656263;fill-opacity:1;fill-rule:nonzero;stroke:none"
         id="path26" />
      <path
         d="m 2966.81,1592.21 v -300.36 h -58.38 v 300.36 h 58.38"
         style="fill:#656263;fill-opacity:1;fill-rule:nonzero;stroke:none"
         id="path28" />
      <path
         d="m 3051.54,1538.3 h -53.05 v 53.91 h 164.9 v -53.91 h -53.47 v -246.45 h -58.38 v 246.45"
         style="fill:#656263;fill-opacity:1;fill-rule:nonzero;stroke:none"
         id="path30" />
      <path
         d="m 3242.8,1291.85 v 114.97 l -65.95,185.39 h 62.38 l 20.5,-71.74 c 5.34,-19.17 11.15,-41.44 15.61,-63.74 h 0.88 c 3.56,21.85 8.47,43.68 13.8,65.08 l 17.84,70.4 h 60.6 l -67.28,-183.16 v -117.2 h -58.38"
         style="fill:#656263;fill-opacity:1;fill-rule:nonzero;stroke:none"
         id="path32" />
      <path
         d="m 3505.39,1442.04 c 0,-68.2 12.92,-102.96 36.54,-102.96 24.5,0 33.86,44.58 33.86,105.62 0,52.59 -8.02,100.28 -34.31,100.28 -23.17,0 -36.09,-38.34 -36.09,-102.94 z m 131.46,5.34 c 0,-113.2 -40.11,-159.09 -97.15,-159.09 -68.19,0 -94.92,72.18 -94.92,154.64 0,82 32.52,152.85 98.93,152.85 72.63,0 93.14,-79.78 93.14,-148.4"
         style="fill:#656263;fill-opacity:1;fill-rule:nonzero;stroke:none"
         id="path34" />
      <path
         d="m 3673.93,1592.21 h 130.58 v -50.8 h -72.19 v -77.1 h 67.73 v -48.57 h -67.73 v -123.89 h -58.39 v 300.36"
         style="fill:#656263;fill-opacity:1;fill-rule:nonzero;stroke:none"
         id="path36" />
      <path
         d="m 3977.97,1335.51 c 3.57,-0.88 7.58,-0.88 12.92,-0.88 23.62,0 43.24,14.26 43.24,45 0,29.87 -20.51,45.46 -43.68,45.9 h -12.48 z m 0,133.26 h 12.48 c 20.94,0 37,17.83 37,42.33 0,21.85 -10.27,38.78 -34.33,38.78 -6.23,0 -11.58,-0.45 -15.15,-1.79 z m -58.39,118.99 c 17.84,4.01 41.02,5.79 66.41,5.79 28.09,0 55.26,-3.57 76.2,-21.4 16.06,-13.36 22.74,-33.42 22.74,-54.36 0,-26.74 -13.81,-52.59 -43.68,-65.51 v -1.78 c 34.77,-9.8 53.48,-38.78 53.48,-71.75 0,-24.96 -8.02,-44.12 -22.27,-58.83 -17.83,-19.6 -48.14,-30.29 -98.51,-30.29 -22.28,0 -40.99,1.33 -54.37,3.1 v 295.03"
         style="fill:#656263;fill-opacity:1;fill-rule:nonzero;stroke:none"
         id="path38" />
      <path
         d="m 4261.94,1423.75 h -68.62 v -81.1 h 77.54 v -50.8 h -135.92 v 300.36 h 130.56 v -50.8 h -72.18 v -69.08 h 68.62 v -48.58"
         style="fill:#656263;fill-opacity:1;fill-rule:nonzero;stroke:none"
         id="path40" />
      <path
         d="m 4310.59,1592.21 h 58.38 V 1341.3 h 77.1 v -49.45 h -135.48 v 300.36"
         style="fill:#656263;fill-opacity:1;fill-rule:nonzero;stroke:none"
         id="path42" />
      <path
         d="m 4634.65,1299.87 c -12.93,-5.34 -40.55,-10.71 -62.4,-10.71 -34.32,0 -60.16,9.82 -80.2,29.87 -25.85,24.96 -39.67,69.53 -38.77,121.22 1.33,109.18 63.72,154.64 127.44,154.64 22.73,0 39.67,-4.46 49.02,-8.91 l -10.24,-50.36 c -8.47,4.45 -19.61,6.68 -34.31,6.68 -39.67,0 -71.31,-27.19 -71.31,-105.62 0,-72.19 28.08,-98.03 55.26,-98.03 5.36,0 9.35,0.43 11.58,1.31 v 72.65 h -26.73 v 47.69 h 80.66 v -160.43"
         style="fill:#656263;fill-opacity:1;fill-rule:nonzero;stroke:none"
         id="path44" />
      <path
         d="m 4736.79,1456.73 h 10.27 c 25.39,0 40.1,20.51 40.1,46.8 0,25.41 -10.26,43.67 -36.56,44.56 -4.88,0 -10.67,-0.44 -13.81,-1.78 z m -58.38,131.03 c 18.28,3.56 41.45,5.79 63.74,5.79 32.08,0 60.61,-4.45 80.21,-22.28 18.28,-16.49 23.62,-36.54 23.62,-62.4 0,-32.09 -15.6,-61.04 -46.35,-75.3 v -0.91 c 20.5,-8.02 30.75,-27.18 36.54,-59.27 5.81,-33.43 13.83,-70.4 19.17,-81.54 h -61.05 c -3.56,8.47 -10.26,38.76 -14.71,71.75 -5.35,37.43 -14.71,48.12 -34.31,48.12 h -8.48 v -119.87 h -58.38 v 295.91"
         style="fill:#656263;fill-opacity:1;fill-rule:nonzero;stroke:none"
         id="path46" />
      <path
         d="m 4984.21,1405.93 -9.79,62.84 c -3.14,18.28 -7.13,48.14 -9.82,68.19 h -1.33 c -3.11,-20.05 -7.58,-51.25 -10.7,-68.64 l -11.14,-62.39 z m -48.57,-45.46 -13.38,-68.62 h -56.59 l 65.06,300.36 h 69.97 l 58.38,-300.36 h -56.59 l -12.92,68.62 h -53.93"
         style="fill:#656263;fill-opacity:1;fill-rule:nonzero;stroke:none"
         id="path48" />
      <path
         d="m 5150.53,1338.2 c 2.68,-0.89 7.13,-0.89 10.25,-0.89 28.08,0 52.58,27.63 52.58,110.52 0,61.49 -16.03,98.92 -51.25,98.92 -4,0 -8.01,0 -11.58,-1.32 z m -58.39,249.56 c 14.72,3.56 36.11,5.79 59.27,5.79 37.88,0 64.18,-8.91 83.34,-26.73 25.85,-23.18 39.22,-62.85 39.22,-121.22 0,-60.6 -15.6,-103.84 -41.89,-127.02 -20.05,-19.6 -49.92,-28.95 -91.79,-28.95 -18.28,0 -36.56,1.76 -48.15,3.1 v 295.03"
         style="fill:#656263;fill-opacity:1;fill-rule:nonzero;stroke:none"
         id="path50" />
      <path
         d="m 5438.06,1423.75 h -68.62 v -81.1 h 77.55 v -50.8 h -135.93 v 300.36 h 130.57 v -50.8 h -72.19 v -69.08 h 68.62 v -48.58"
         style="fill:#656263;fill-opacity:1;fill-rule:nonzero;stroke:none"
         id="path52" />
      <path
         d="m 1719.38,966.266 c -10.64,9.187 -22.42,17.773 -35,25.496 -11.33,6.953 -21.9,14.508 -31.46,22.438 -8.94,7.42 -16.51,15.9 -22.52,25.23 -5.28,8.19 -7.95,18.68 -7.95,31.2 0,9.39 0.98,18.39 2.96,26.72 1.81,7.72 4.66,14.52 8.48,20.23 3.43,5.16 7.94,9.1 13.82,12.1 11.7,5.94 34.27,6.2 46.46,-0.02 5.83,-2.98 10.35,-6.93 13.79,-12.09 3.79,-5.68 6.64,-12.55 8.46,-20.44 1.97,-8.49 2.98,-17.58 2.98,-27.02 v -7.18 c 0,-7.98 6.46,-14.45 14.44,-14.45 h 11.31 c 7.97,0 14.44,6.47 14.44,14.45 v 6.66 c 0,13.38 -1.53,26.25 -4.58,38.26 -3.19,12.5 -8.25,23.68 -15.06,33.28 -7.2,10.16 -16.71,18.2 -28.26,23.85 -11.41,5.61 -26.27,8.29 -41.23,8.43 -30.73,-0.41 -53.61,-10.82 -68.02,-30.95 -13.37,-18.67 -20.17,-43.01 -20.17,-72.35 0,-19.01 4.15,-35.58 12.31,-49.25 7.59,-12.71 17.1,-24.145 28.27,-33.981 10.71,-9.453 22.57,-18.094 35.26,-25.691 11.21,-6.739 21.76,-14.172 31.31,-22.102 8.91,-7.391 16.49,-15.879 22.53,-25.203 5.35,-8.313 7.95,-18.371 7.95,-30.715 0,-9.848 -0.99,-19.02 -2.93,-27.258 -1.75,-7.449 -4.67,-14 -8.64,-19.43 -3.79,-5.191 -8.64,-9.199 -14.85,-12.3 -12.47,-6.27 -35.06,-6.078 -46.83,-0.032 -6.04,3.051 -10.83,7.09 -14.67,12.313 -3.95,5.437 -6.86,11.98 -8.65,19.449 -1.94,8.238 -2.92,17.41 -2.92,27.258 v 17.969 c 0,7.968 -6.47,14.433 -14.45,14.433 h -10.79 c -7.97,0 -14.44,-6.465 -14.44,-14.433 v -17.469 c 0,-13.469 1.54,-26.387 4.55,-38.418 3.19,-12.781 8.42,-24.09 15.52,-33.629 7.36,-9.871 16.9,-17.723 28.34,-23.32 11.34,-5.582 25.14,-8.41 41.01,-8.41 15.82,0 29.69,2.808 41.2,8.359 11.65,5.621 21.3,13.48 28.69,23.391 7.1,9.55 12.32,20.847 15.51,33.609 3.01,12.031 4.54,24.949 4.54,38.418 0,18.66 -4.15,35.059 -12.32,48.75 -7.6,12.742 -17.16,24.121 -28.39,33.848"
         style="fill:#a81f36;fill-opacity:1;fill-rule:nonzero;stroke:none"
         id="path54" />
      <path
         d="m 1974.15,1140.74 c -7.33,10.06 -16.95,18.13 -28.6,23.95 -23.25,11.58 -59.74,11.56 -82.58,-0.05 -11.43,-5.8 -20.94,-13.84 -28.26,-23.88 -7.06,-9.72 -12.26,-21.17 -15.44,-34.08 -3,-12.13 -4.51,-25.13 -4.51,-38.62 V 885.219 c 0,-13.508 1.51,-26.5 4.51,-38.617 3.18,-12.891 8.36,-24.364 15.46,-34.114 7.33,-10.019 16.82,-18.047 28.22,-23.859 11.42,-5.797 25.29,-8.738 41.22,-8.738 15.89,0 29.82,2.929 41.38,8.699 11.63,5.808 21.24,13.871 28.59,23.93 7.08,9.718 12.26,21.191 15.44,34.062 3,12.227 4.55,25.207 4.55,38.637 v 39.035 c 0,7.969 -6.48,14.441 -14.45,14.441 h -11.31 c -7.97,0 -14.44,-6.472 -14.44,-14.441 v -39.551 c 0,-9.824 -0.99,-19.094 -2.96,-27.555 -1.79,-7.75 -4.69,-14.546 -8.58,-20.199 -3.65,-5.289 -8.43,-9.418 -14.59,-12.648 -12.38,-6.442 -34.84,-6.211 -46.74,0 -6.18,3.23 -10.95,7.359 -14.58,12.629 -3.9,5.64 -6.78,12.449 -8.58,20.23 -1.98,8.5 -2.98,17.766 -2.98,27.543 v 183.857 c 0,9.8 1,19.17 3,27.87 1.79,7.94 4.67,14.82 8.58,20.45 3.61,5.26 8.39,9.39 14.51,12.6 12.07,6.23 34.41,6.45 46.78,0.01 6.15,-3.2 10.93,-7.36 14.58,-12.61 3.89,-5.65 6.8,-12.54 8.6,-20.45 1.97,-8.65 2.96,-18.04 2.96,-27.87 v -28.22 c 0,-7.98 6.47,-14.45 14.44,-14.45 h 11.31 c 7.97,0 14.45,6.47 14.45,14.45 v 27.72 c 0,13.39 -1.55,26.39 -4.55,38.62 -3.18,12.91 -8.38,24.36 -15.43,34.06"
         style="fill:#a81f36;fill-opacity:1;fill-rule:nonzero;stroke:none"
         id="path56" />
      <path
         d="m 2216.26,1170.84 h -11.3 c -7.98,0 -14.45,-6.47 -14.45,-14.44 V 996.215 H 2089.45 V 1156.4 c 0,7.97 -6.47,14.44 -14.45,14.44 h -11.28 c -7.98,0 -14.45,-6.47 -14.45,-14.44 V 796.879 c 0,-7.981 6.47,-14.438 14.45,-14.438 H 2075 c 7.98,0 14.45,6.457 14.45,14.438 v 160.176 h 101.06 V 796.879 c 0,-7.981 6.47,-14.438 14.45,-14.438 h 11.3 c 7.97,0 14.44,6.457 14.44,14.438 V 1156.4 c 0,7.97 -6.47,14.44 -14.44,14.44"
         style="fill:#a81f36;fill-opacity:1;fill-rule:nonzero;stroke:none"
         id="path58" />
      <path
         d="m 2376.83,819.031 c -23.42,0 -50.28,7.449 -50.28,65.672 v 183.857 c 0,58.24 26.86,65.69 50.28,65.69 23.89,0 51.29,-7.45 51.29,-65.69 V 884.703 c 0,-58.223 -27.4,-65.672 -51.29,-65.672 z m 0,354.379 c -29.33,0 -52.12,-9.41 -67.79,-28 -15.03,-17.85 -22.66,-43.88 -22.66,-77.35 V 885.219 c 0,-33.508 7.63,-59.52 22.67,-77.36 15.65,-18.558 38.45,-27.968 67.78,-27.968 30.01,0 53.16,9.41 68.81,27.968 15.05,17.832 22.68,43.852 22.68,77.36 v 182.841 c 0,33.49 -7.63,59.52 -22.68,77.37 -15.66,18.57 -38.82,27.98 -68.81,27.98"
         style="fill:#a81f36;fill-opacity:1;fill-rule:nonzero;stroke:none"
         id="path60" />
      <path
         d="m 2613.94,819.031 c -23.42,0 -50.28,7.449 -50.28,65.672 v 183.857 c 0,58.24 26.86,65.69 50.28,65.69 23.89,0 51.3,-7.45 51.3,-65.69 V 884.703 c 0,-58.223 -27.41,-65.672 -51.3,-65.672 z m 0,354.379 c -29.33,0 -52.11,-9.41 -67.79,-28 -15.02,-17.85 -22.65,-43.88 -22.65,-77.35 V 885.219 c 0,-33.508 7.63,-59.52 22.67,-77.36 15.64,-18.558 38.44,-27.968 67.77,-27.968 30.01,0 53.16,9.41 68.81,27.968 15.05,17.832 22.68,43.852 22.68,77.36 v 182.841 c 0,33.49 -7.63,59.52 -22.68,77.37 -15.67,18.57 -38.82,27.98 -68.81,27.98"
         style="fill:#a81f36;fill-opacity:1;fill-rule:nonzero;stroke:none"
         id="path62" />
      <path
         d="m 2907.53,822.09 h -106.24 v 334.31 c 0,7.97 -6.47,14.44 -14.44,14.44 h -11.31 c -7.98,0 -14.44,-6.47 -14.44,-14.44 V 796.879 c 0,-7.981 6.46,-14.438 14.44,-14.438 h 131.99 c 7.98,0 14.45,6.457 14.45,14.438 v 10.769 c 0,7.981 -6.47,14.442 -14.45,14.442"
         style="fill:#a81f36;fill-opacity:1;fill-rule:nonzero;stroke:none"
         id="path64" />
      <path
         d="m 3129.93,1134.25 c 23.88,0 51.31,-7.45 51.31,-65.69 V 884.703 c 0,-58.223 -27.43,-65.672 -51.31,-65.672 -23.4,0 -50.27,7.449 -50.27,65.672 v 183.857 c 0,58.24 26.87,65.69 50.27,65.69 z m 0,39.16 c -29.33,0 -52.11,-9.41 -67.8,-28 -15.02,-17.85 -22.64,-43.88 -22.64,-77.35 V 885.219 c 0,-33.508 7.62,-59.52 22.66,-77.36 15.65,-18.558 38.45,-27.968 67.78,-27.968 30.01,0 53.16,9.41 68.81,27.968 15.04,17.832 22.67,43.852 22.67,77.36 v 182.841 c 0,33.49 -7.63,59.52 -22.67,77.37 -15.67,18.57 -38.82,27.98 -68.81,27.98"
         style="fill:#a81f36;fill-opacity:1;fill-rule:nonzero;stroke:none"
         id="path66" />
      <path
         d="m 3423.55,1170.84 h -132.01 c -7.97,0 -14.45,-6.47 -14.45,-14.44 V 796.879 c 0,-7.981 6.48,-14.438 14.45,-14.438 h 11.31 c 7.98,0 14.44,6.457 14.44,14.438 v 153.496 h 86.21 c 7.98,0 14.44,6.477 14.44,14.445 v 10.789 c 0,7.981 -6.46,14.446 -14.44,14.446 h -86.21 v 141.115 h 106.26 c 7.98,0 14.44,6.47 14.44,14.44 v 10.79 c 0,7.97 -6.46,14.44 -14.44,14.44"
         style="fill:#a81f36;fill-opacity:1;fill-rule:nonzero;stroke:none"
         id="path68" />
      <path
         d="m 3707.56,1170.84 h -137.12 c -7.96,0 -14.44,-6.47 -14.44,-14.44 V 796.879 c 0,-7.981 6.48,-14.438 14.44,-14.438 h 137.12 c 7.97,0 14.45,6.457 14.45,14.438 v 10.769 c 0,7.981 -6.48,14.442 -14.45,14.442 h -111.38 v 137.535 h 91.36 c 7.97,0 14.45,6.465 14.45,14.441 v 10.286 c 0,7.976 -6.48,14.441 -14.45,14.441 h -91.36 v 132.377 h 111.38 c 7.97,0 14.45,6.47 14.45,14.44 v 10.79 c 0,7.97 -6.48,14.44 -14.45,14.44"
         style="fill:#a81f36;fill-opacity:1;fill-rule:nonzero;stroke:none"
         id="path70" />
      <path
         d="m 3923.61,822.09 h -106.25 v 334.31 c 0,7.97 -6.47,14.44 -14.44,14.44 h -11.3 c -7.98,0 -14.45,-6.47 -14.45,-14.44 V 796.879 c 0,-7.981 6.47,-14.438 14.45,-14.438 h 131.99 c 7.97,0 14.44,6.457 14.44,14.438 v 10.769 c 0,7.981 -6.47,14.442 -14.44,14.442"
         style="fill:#a81f36;fill-opacity:1;fill-rule:nonzero;stroke:none"
         id="path72" />
      <path
         d="m 4143.75,1170.84 h -137.11 c -7.97,0 -14.44,-6.47 -14.44,-14.44 V 796.879 c 0,-7.981 6.47,-14.438 14.44,-14.438 h 137.11 c 7.98,0 14.45,6.457 14.45,14.438 v 10.769 c 0,7.981 -6.47,14.442 -14.45,14.442 h -111.37 v 137.535 h 91.36 c 7.97,0 14.44,6.465 14.44,14.441 v 10.286 c 0,7.976 -6.47,14.441 -14.44,14.441 h -91.36 v 132.377 h 111.37 c 7.98,0 14.45,6.47 14.45,14.44 v 10.79 c 0,7.97 -6.47,14.44 -14.45,14.44"
         style="fill:#a81f36;fill-opacity:1;fill-rule:nonzero;stroke:none"
         id="path74" />
      <path
         d="m 4356.53,1140.74 c -7.32,10.06 -16.94,18.12 -28.59,23.95 -23.23,11.56 -59.73,11.54 -82.59,-0.05 -11.45,-5.81 -20.94,-13.84 -28.25,-23.88 -7.09,-9.75 -12.29,-21.21 -15.43,-34.06 -2.99,-12.13 -4.54,-25.12 -4.54,-38.64 V 885.219 c 0,-13.539 1.55,-26.528 4.54,-38.61 3.14,-12.859 8.33,-24.328 15.43,-34.097 7.33,-10.043 16.82,-18.063 28.24,-23.883 11.41,-5.797 25.28,-8.738 41.22,-8.738 15.9,0 29.82,2.929 41.4,8.699 11.61,5.808 21.22,13.871 28.56,23.922 7.04,9.679 12.24,21.129 15.46,34.097 3.01,12.231 4.52,25.223 4.52,38.61 v 39.035 c 0,7.969 -6.47,14.441 -14.44,14.441 h -11.29 c -7.98,0 -14.45,-6.472 -14.45,-14.441 v -39.551 c 0,-9.777 -1,-19.043 -2.98,-27.555 -1.79,-7.769 -4.67,-14.578 -8.58,-20.199 -3.66,-5.301 -8.43,-9.437 -14.55,-12.629 -12.4,-6.48 -34.81,-6.23 -46.77,-0.019 -6.17,3.23 -10.94,7.347 -14.57,12.621 -3.91,5.68 -6.8,12.476 -8.59,20.238 -1.97,8.449 -2.96,17.719 -2.96,27.543 v 183.857 c 0,9.83 0.99,19.22 2.97,27.87 1.79,7.91 4.69,14.8 8.57,20.44 3.64,5.27 8.43,9.42 14.56,12.61 11.99,6.23 34.39,6.46 46.76,0.01 6.14,-3.2 10.92,-7.35 14.58,-12.62 3.89,-5.62 6.77,-12.5 8.58,-20.44 1.98,-8.7 2.98,-18.07 2.98,-27.87 v -28.22 c 0,-7.98 6.47,-14.45 14.45,-14.45 h 11.29 c 7.97,0 14.44,6.47 14.44,14.45 v 27.72 c 0,13.38 -1.51,26.36 -4.52,38.64 -3.22,12.94 -8.42,24.41 -15.45,34.04"
         style="fill:#a81f36;fill-opacity:1;fill-rule:nonzero;stroke:none"
         id="path76" />
      <path
         d="m 4561.34,1170.84 h -168.45 c -7.98,0 -14.45,-6.47 -14.45,-14.44 v -10.79 c 0,-7.97 6.47,-14.44 14.45,-14.44 h 64.14 V 796.879 c 0,-7.981 6.46,-14.438 14.44,-14.438 h 11.29 c 7.98,0 14.44,6.457 14.44,14.438 v 334.291 h 64.14 c 7.98,0 14.45,6.47 14.45,14.44 v 10.79 c 0,7.97 -6.47,14.44 -14.45,14.44"
         style="fill:#a81f36;fill-opacity:1;fill-rule:nonzero;stroke:none"
         id="path78" />
      <path
         d="m 4663.94,1131.17 h 45.13 c 18.36,0 30.96,-4.44 37.47,-13.18 7.48,-10.06 11.27,-24.61 11.27,-43.24 v -32.88 c 0,-12.08 -1.44,-21.71 -4.31,-28.65 -2.65,-6.42 -6.2,-11.27 -10.88,-14.876 -4.9,-3.778 -10.98,-6.328 -18.58,-7.781 -8.79,-1.7 -19.02,-2.559 -30.37,-2.559 h -29.73 z m 135.67,-311.541 c -1.09,7.101 -1.63,13.711 -1.63,19.871 v 56.512 c 0,22.84 -5.4,41.98 -16.03,56.894 -4.29,6.024 -9.55,11.18 -15.79,15.469 5.98,4.188 11.1,9.121 15.35,14.785 10.94,14.649 16.47,34.92 16.47,60.24 v 32.37 c 0,27.8 -6.72,50.55 -20,67.68 -14.12,18.17 -37.15,27.39 -68.4,27.39 h -71.39 c -7.97,0 -14.44,-6.47 -14.44,-14.44 V 796.879 c 0,-7.981 6.47,-14.438 14.44,-14.438 h 11.31 c 7.98,0 14.44,6.457 14.44,14.438 v 151.465 h 29.73 c 10.54,0 20.24,-0.926 28.79,-2.754 7.66,-1.649 14.25,-4.422 19.64,-8.223 4.86,-3.437 8.55,-8.113 11.27,-14.285 2.95,-6.719 4.44,-15.82 4.44,-27.07 V 839.5 c 0,-8.57 0.56,-16.859 1.68,-24.809 1.3,-9.41 4.45,-18.043 9.35,-25.64 2.65,-4.121 7.22,-6.61 12.12,-6.61 h 12.33 c 5.39,0 10.32,3 12.81,7.778 2.48,4.769 2.1,10.551 -1,14.941 -2.84,4.039 -4.62,8.762 -5.49,14.469"
         style="fill:#a81f36;fill-opacity:1;fill-rule:nonzero;stroke:none"
         id="path80" />
      <path
         d="m 4888.65,1170.84 h -11.31 c -7.97,0 -14.44,-6.47 -14.44,-14.44 V 796.879 c 0,-7.981 6.47,-14.438 14.44,-14.438 h 11.31 c 7.97,0 14.44,6.457 14.44,14.438 V 1156.4 c 0,7.97 -6.47,14.44 -14.44,14.44"
         style="fill:#a81f36;fill-opacity:1;fill-rule:nonzero;stroke:none"
         id="path82" />
      <path
         d="m 5118.17,1140.74 c -7.34,10.08 -16.95,18.13 -28.59,23.95 -23.23,11.56 -59.72,11.54 -82.61,-0.05 -11.45,-5.83 -20.94,-13.86 -28.22,-23.88 -7.07,-9.72 -12.27,-21.17 -15.45,-34.08 -2.99,-12.18 -4.53,-25.18 -4.53,-38.62 V 885.219 c 0,-13.457 1.54,-26.457 4.53,-38.617 3.18,-12.891 8.37,-24.364 15.45,-34.09 7.31,-10.032 16.8,-18.043 28.22,-23.883 11.41,-5.797 25.28,-8.738 41.23,-8.738 15.9,0 29.82,2.929 41.39,8.699 11.62,5.808 21.22,13.851 28.58,23.93 7.04,9.679 12.25,21.14 15.44,34.089 3.01,12.262 4.54,25.27 4.54,38.61 v 39.035 c 0,7.969 -6.47,14.441 -14.44,14.441 h -11.31 c -7.97,0 -14.45,-6.472 -14.45,-14.441 v -39.551 c 0,-9.832 -0.98,-19.094 -2.96,-27.555 -1.81,-7.769 -4.69,-14.578 -8.59,-20.218 -3.65,-5.282 -8.42,-9.399 -14.55,-12.61 -12.42,-6.48 -34.85,-6.23 -46.76,-0.019 -6.19,3.23 -10.94,7.359 -14.58,12.629 -3.88,5.64 -6.78,12.449 -8.6,20.23 -1.97,8.449 -2.96,17.719 -2.96,27.543 v 183.857 c 0,9.83 0.99,19.22 2.96,27.85 1.84,7.96 4.72,14.84 8.61,20.47 3.63,5.26 8.4,9.39 14.52,12.6 12.05,6.23 34.4,6.45 46.78,0.01 6.15,-3.2 10.93,-7.35 14.58,-12.62 3.89,-5.62 6.77,-12.5 8.59,-20.46 1.97,-8.63 2.96,-18 2.96,-27.85 v -28.22 c 0,-7.98 6.48,-14.45 14.45,-14.45 h 11.31 c 7.97,0 14.44,6.47 14.44,14.45 v 27.72 c 0,13.33 -1.53,26.31 -4.54,38.64 -3.21,12.93 -8.4,24.39 -15.44,34.04"
         style="fill:#a81f36;fill-opacity:1;fill-rule:nonzero;stroke:none"
         id="path84" />
      <path
         d="m 5229.67,906.332 42.93,176.778 44.02,-176.778 z m 65,254.048 c -1.59,6.44 -7.37,10.98 -14.01,10.98 h -15.93 c -6.68,0 -12.47,-4.58 -14.04,-11.06 L 5163.9,800.262 c -1.03,-4.313 -0.05,-8.832 2.7,-12.313 2.74,-3.469 6.92,-5.508 11.33,-5.508 h 10.28 c 6.63,0 12.41,4.528 14,10.957 l 18.33,73.774 h 105.3 l 18.36,-73.774 c 1.61,-6.429 7.38,-10.957 14.01,-10.957 h 11.29 c 4.43,0 8.63,2.047 11.37,5.539 2.73,3.5 3.71,8.051 2.65,12.36 l -88.85,360.04"
         style="fill:#a81f36;fill-opacity:1;fill-rule:nonzero;stroke:none"
         id="path86" />
      <path
         d="m 5556.75,822.09 h -106.24 v 334.31 c 0,7.97 -6.47,14.44 -14.44,14.44 h -11.31 c -7.97,0 -14.44,-6.47 -14.44,-14.44 V 796.879 c 0,-7.981 6.47,-14.438 14.44,-14.438 h 131.99 c 7.98,0 14.45,6.457 14.45,14.438 v 10.769 c 0,7.981 -6.47,14.442 -14.45,14.442"
         style="fill:#a81f36;fill-opacity:1;fill-rule:nonzero;stroke:none"
         id="path88" />
      <path
         d="m 1732.31,676.309 h -137.14 c -7.97,0 -14.44,-6.457 -14.44,-14.43 V 302.352 c 0,-7.973 6.47,-14.442 14.44,-14.442 h 137.14 c 7.97,0 14.44,6.469 14.44,14.442 v 10.777 c 0,7.973 -6.47,14.441 -14.44,14.441 h -111.39 v 137.52 h 91.35 c 7.98,0 14.44,6.48 14.44,14.449 v 10.27 c 0,7.98 -6.46,14.441 -14.44,14.441 h -91.35 v 132.398 h 111.39 c 7.97,0 14.44,6.461 14.44,14.434 v 10.797 c 0,7.973 -6.47,14.43 -14.44,14.43"
         style="fill:#a81f36;fill-opacity:1;fill-rule:nonzero;stroke:none"
         id="path90" />
      <path
         d="m 1987.28,676.309 h -10.8 c -7.97,0 -14.43,-6.457 -14.43,-14.43 v -256.93 l -98.39,262 c -2.11,5.621 -7.5,9.36 -13.52,9.36 h -15.91 c -7.98,0 -14.44,-6.457 -14.44,-14.43 V 302.352 c 0,-7.973 6.46,-14.442 14.44,-14.442 H 1845 c 7.97,0 14.45,6.469 14.45,14.442 v 263.32 l 100.43,-268.383 c 2.12,-5.641 7.51,-9.379 13.52,-9.379 h 13.88 c 7.97,0 14.43,6.469 14.43,14.442 v 359.527 c 0,7.973 -6.46,14.43 -14.43,14.43"
         style="fill:#a81f36;fill-opacity:1;fill-rule:nonzero;stroke:none"
         id="path92" />
      <path
         d="m 2234.65,646.219 c -7.31,10.043 -16.93,18.101 -28.59,23.922 -23.14,11.589 -59.69,11.609 -82.59,-0.039 -11.43,-5.813 -20.93,-13.852 -28.21,-23.864 -7.08,-9.687 -12.3,-21.156 -15.48,-34.078 -2.99,-12.14 -4.5,-25.14 -4.5,-38.629 V 390.699 c 0,-13.508 1.51,-26.508 4.5,-38.66 3.18,-12.91 8.4,-24.379 15.47,-34.039 7.29,-10.039 16.79,-18.07 28.22,-23.898 11.44,-5.813 25.29,-8.762 41.21,-8.762 15.9,0 29.83,2.949 41.38,8.73 11.66,5.828 21.28,13.871 28.59,23.91 7.06,9.7 12.26,21.168 15.44,34.079 3.01,12.222 4.54,25.23 4.54,38.64 v 91.403 c 0,7.98 -6.46,14.449 -14.44,14.449 h -67.27 c -7.97,0 -14.44,-6.469 -14.44,-14.449 v -10.25 c 0,-7.981 6.47,-14.442 14.44,-14.442 h 41.54 v -67.23 c 0,-9.782 -1.01,-19.051 -2.98,-27.571 -1.78,-7.738 -4.68,-14.539 -8.58,-20.187 -3.67,-5.32 -8.44,-9.453 -14.59,-12.641 -12.37,-6.461 -34.78,-6.242 -46.75,0 -6.15,3.211 -10.92,7.321 -14.56,12.629 -3.91,5.629 -6.79,12.43 -8.59,20.199 -1.97,8.52 -2.98,17.789 -2.98,27.571 v 183.859 c 0,9.801 1.01,19.172 2.99,27.883 1.81,7.918 4.69,14.777 8.58,20.41 3.64,5.289 8.41,9.406 14.55,12.609 12.06,6.231 34.36,6.489 46.78,0 6.13,-3.191 10.9,-7.32 14.56,-12.601 3.89,-5.66 6.77,-12.531 8.59,-20.442 1.97,-8.687 2.98,-18.058 2.98,-27.859 v -24.141 c 0,-7.968 6.47,-14.449 14.44,-14.449 h 11.29 c 7.98,0 14.44,6.481 14.44,14.449 v 23.633 c 0,13.41 -1.53,26.399 -4.54,38.61 -3.18,12.918 -8.38,24.39 -15.44,34.078"
         style="fill:#a81f36;fill-opacity:1;fill-rule:nonzero;stroke:none"
         id="path94" />
      <path
         d="m 2369.63,676.309 h -11.29 c -7.97,0 -14.44,-6.457 -14.44,-14.43 V 302.352 c 0,-7.973 6.47,-14.442 14.44,-14.442 h 11.29 c 7.98,0 14.45,6.469 14.45,14.442 v 359.527 c 0,7.973 -6.47,14.43 -14.45,14.43"
         style="fill:#a81f36;fill-opacity:1;fill-rule:nonzero;stroke:none"
         id="path96" />
      <path
         d="m 2641.35,676.309 h -10.79 c -7.98,0 -14.44,-6.457 -14.44,-14.43 v -256.93 l -98.38,262 c -2.12,5.621 -7.51,9.36 -13.53,9.36 h -15.9 c -7.98,0 -14.45,-6.457 -14.45,-14.43 V 302.352 c 0,-7.973 6.47,-14.442 14.45,-14.442 h 10.77 c 7.98,0 14.44,6.469 14.44,14.442 v 263.32 l 100.44,-268.383 c 2.11,-5.641 7.5,-9.379 13.52,-9.379 h 13.87 c 7.97,0 14.45,6.469 14.45,14.442 v 359.527 c 0,7.973 -6.48,14.43 -14.45,14.43"
         style="fill:#a81f36;fill-opacity:1;fill-rule:nonzero;stroke:none"
         id="path98" />
      <path
         d="m 2897.15,676.309 h -137.12 c -7.97,0 -14.44,-6.457 -14.44,-14.43 V 302.352 c 0,-7.973 6.47,-14.442 14.44,-14.442 h 137.12 c 7.97,0 14.45,6.469 14.45,14.442 v 10.777 c 0,7.973 -6.48,14.441 -14.45,14.441 h -111.38 v 137.52 h 91.36 c 7.97,0 14.45,6.48 14.45,14.449 v 10.27 c 0,7.98 -6.48,14.441 -14.45,14.441 h -91.36 v 132.398 h 111.38 c 7.97,0 14.45,6.461 14.45,14.434 v 10.797 c 0,7.973 -6.48,14.43 -14.45,14.43"
         style="fill:#a81f36;fill-opacity:1;fill-rule:nonzero;stroke:none"
         id="path100" />
      <path
         d="M 3151.92,676.309 H 3014.8 c -7.98,0 -14.44,-6.457 -14.44,-14.43 V 302.352 c 0,-7.973 6.46,-14.442 14.44,-14.442 h 137.12 c 7.97,0 14.44,6.469 14.44,14.442 v 10.777 c 0,7.973 -6.47,14.441 -14.44,14.441 h -111.39 v 137.52 h 91.37 c 7.97,0 14.44,6.48 14.44,14.449 v 10.27 c 0,7.98 -6.47,14.441 -14.44,14.441 h -91.37 v 132.398 h 111.39 c 7.97,0 14.44,6.461 14.44,14.434 v 10.797 c 0,7.973 -6.47,14.43 -14.44,14.43"
         style="fill:#a81f36;fill-opacity:1;fill-rule:nonzero;stroke:none"
         id="path102" />
      <path
         d="m 3279.58,636.648 h 45.13 c 18.36,0 30.97,-4.437 37.49,-13.199 7.47,-10.058 11.26,-24.609 11.26,-43.238 v -32.879 c 0,-12.082 -1.44,-21.711 -4.3,-28.633 -2.65,-6.429 -6.21,-11.289 -10.87,-14.89 -4.88,-3.739 -11.12,-6.348 -18.62,-7.778 -8.77,-1.711 -18.98,-2.57 -30.35,-2.57 h -29.74 z M 3415.27,325.09 c -1.1,7.101 -1.63,13.719 -1.63,19.89 v 56.489 c 0,22.84 -5.4,41.992 -16.05,56.902 -4.28,6.039 -9.55,11.188 -15.78,15.481 5.98,4.179 11.11,9.109 15.33,14.769 10.95,14.649 16.5,34.918 16.5,60.238 v 32.371 c 0,27.809 -6.74,50.571 -20,67.668 -14.15,18.192 -37.16,27.411 -68.41,27.411 h -71.39 c -7.98,0 -14.44,-6.457 -14.44,-14.43 V 302.352 c 0,-7.973 6.46,-14.442 14.44,-14.442 h 11.31 c 7.97,0 14.43,6.469 14.43,14.442 v 151.449 h 29.74 c 10.61,0 20.29,-0.922 28.82,-2.75 7.6,-1.629 14.19,-4.403 19.59,-8.192 4.87,-3.468 8.57,-8.148 11.3,-14.308 2.94,-6.719 4.43,-15.821 4.43,-27.082 V 344.98 c 0,-8.582 0.57,-16.859 1.67,-24.839 1.31,-9.422 4.45,-18.059 9.36,-25.629 2.66,-4.114 7.21,-6.602 12.12,-6.602 h 12.34 c 5.39,0 10.34,3 12.81,7.801 2.49,4.789 2.09,10.551 -1.01,14.98 -2.83,3.989 -4.62,8.688 -5.48,14.399"
         style="fill:#a81f36;fill-opacity:1;fill-rule:nonzero;stroke:none"
         id="path104" />
      <path
         d="m 3537.9,676.309 h -11.31 c -7.97,0 -14.45,-6.457 -14.45,-14.43 V 302.352 c 0,-7.973 6.48,-14.442 14.45,-14.442 h 11.31 c 7.96,0 14.44,6.469 14.44,14.442 v 359.527 c 0,7.973 -6.48,14.43 -14.44,14.43"
         style="fill:#a81f36;fill-opacity:1;fill-rule:nonzero;stroke:none"
         id="path106" />
      <path
         d="m 3809.59,676.309 h -10.78 c -7.97,0 -14.43,-6.457 -14.43,-14.43 v -256.93 l -98.4,262 c -2.12,5.641 -7.51,9.36 -13.52,9.36 h -15.91 c -7.98,0 -14.45,-6.457 -14.45,-14.43 V 302.352 c 0,-7.973 6.47,-14.442 14.45,-14.442 h 10.77 c 7.98,0 14.44,6.469 14.44,14.442 v 263.339 l 100.45,-268.402 c 2.12,-5.641 7.5,-9.379 13.52,-9.379 h 13.86 c 7.97,0 14.45,6.469 14.45,14.442 v 359.527 c 0,7.973 -6.48,14.43 -14.45,14.43"
         style="fill:#a81f36;fill-opacity:1;fill-rule:nonzero;stroke:none"
         id="path108" />
      <path
         d="m 4066.93,535.449 h 11.31 c 7.97,0 14.44,6.481 14.44,14.449 v 23.633 c 0,13.41 -1.53,26.399 -4.54,38.61 -3.18,12.918 -8.38,24.39 -15.45,34.078 -7.31,10.043 -16.93,18.101 -28.58,23.922 -23.16,11.589 -59.7,11.609 -82.6,-0.039 -11.42,-5.813 -20.92,-13.852 -28.23,-23.872 -7.07,-9.699 -12.27,-21.171 -15.45,-34.07 -2.99,-12.14 -4.51,-25.14 -4.51,-38.629 V 390.699 c 0,-13.508 1.52,-26.508 4.51,-38.66 3.18,-12.891 8.38,-24.359 15.45,-34.059 7.31,-10.019 16.81,-18.05 28.23,-23.878 11.43,-5.813 25.3,-8.762 41.21,-8.762 15.9,0 29.82,2.949 41.39,8.73 11.65,5.828 21.27,13.871 28.58,23.91 7.07,9.7 12.27,21.168 15.45,34.079 3.01,12.222 4.54,25.23 4.54,38.64 v 91.403 c 0,7.98 -6.47,14.449 -14.44,14.449 h -67.28 c -7.97,0 -14.44,-6.469 -14.44,-14.449 v -10.25 c 0,-7.981 6.47,-14.442 14.44,-14.442 h 41.53 v -67.23 c 0,-9.821 -0.99,-19.098 -2.96,-27.559 -1.79,-7.75 -4.69,-14.551 -8.59,-20.199 -3.66,-5.301 -8.43,-9.43 -14.6,-12.641 -12.35,-6.461 -34.78,-6.242 -46.72,0 -6.17,3.219 -10.93,7.34 -14.59,12.629 -3.89,5.629 -6.77,12.449 -8.58,20.231 -1.97,8.488 -2.97,17.757 -2.97,27.539 v 183.859 c 0,9.801 1,19.172 2.99,27.859 1.8,7.942 4.69,14.813 8.56,20.434 3.66,5.289 8.43,9.406 14.59,12.617 11.99,6.242 34.35,6.481 46.75,-0.008 6.13,-3.191 10.91,-7.32 14.55,-12.601 3.91,-5.641 6.79,-12.508 8.61,-20.442 1.97,-8.636 2.96,-18.027 2.96,-27.859 v -24.141 c 0,-7.968 6.47,-14.449 14.44,-14.449"
         style="fill:#a81f36;fill-opacity:1;fill-rule:nonzero;stroke:none"
         id="path110" />
    </g>
  </g>
</svg>
