<?xml version="1.0" encoding="UTF-8" standalone="no"?>
<!-- Created with Inkscape (http://www.inkscape.org/) -->

<svg
   version="1.1"
   id="svg2"
   width="4582.6665"
   height="4582.6665"
   viewBox="0 0 4582.6665 4582.6665"
   sodipodi:docname="SUMA_CRNA.ai"
   xmlns:inkscape="http://www.inkscape.org/namespaces/inkscape"
   xmlns:sodipodi="http://sodipodi.sourceforge.net/DTD/sodipodi-0.dtd"
   xmlns="http://www.w3.org/2000/svg"
   xmlns:svg="http://www.w3.org/2000/svg">
  <defs
     id="defs6">
    <clipPath
       clipPathUnits="userSpaceOnUse"
       id="clipPath16">
      <path
         d="M 0,3437 H 3437 V 0 H 0 Z"
         id="path14" />
    </clipPath>
    <linearGradient
       x1="0"
       y1="0"
       x2="1"
       y2="0"
       gradientUnits="userSpaceOnUse"
       gradientTransform="matrix(0,-2419.1392,2419.1392,0,2138.5002,2534.2998)"
       spreadMethod="pad"
       id="linearGradient44">
      <stop
         style="stop-opacity:1;stop-color:#9b191d"
         offset="0"
         id="stop38" />
      <stop
         style="stop-opacity:1;stop-color:#9b191d"
         offset="0.01"
         id="stop40" />
      <stop
         style="stop-opacity:1;stop-color:#650102"
         offset="1"
         id="stop42" />
    </linearGradient>
    <linearGradient
       x1="0"
       y1="0"
       x2="1"
       y2="0"
       gradientUnits="userSpaceOnUse"
       gradientTransform="matrix(0,-2419.1392,2419.1392,0,762.64978,2534.3362)"
       spreadMethod="pad"
       id="linearGradient66">
      <stop
         style="stop-opacity:1;stop-color:#9b191d"
         offset="0"
         id="stop60" />
      <stop
         style="stop-opacity:1;stop-color:#9b191d"
         offset="0.01"
         id="stop62" />
      <stop
         style="stop-opacity:1;stop-color:#650102"
         offset="1"
         id="stop64" />
    </linearGradient>
    <linearGradient
       x1="0"
       y1="0"
       x2="1"
       y2="0"
       gradientUnits="userSpaceOnUse"
       gradientTransform="matrix(0,-2419.1392,2419.1392,0,756.85004,2534.3362)"
       spreadMethod="pad"
       id="linearGradient88">
      <stop
         style="stop-opacity:1;stop-color:#9b191d"
         offset="0"
         id="stop82" />
      <stop
         style="stop-opacity:1;stop-color:#9b191d"
         offset="0.01"
         id="stop84" />
      <stop
         style="stop-opacity:1;stop-color:#650102"
         offset="1"
         id="stop86" />
    </linearGradient>
    <linearGradient
       x1="0"
       y1="0"
       x2="1"
       y2="0"
       gradientUnits="userSpaceOnUse"
       gradientTransform="matrix(0,-2419.1392,2419.1392,0,2530.5,2534.3362)"
       spreadMethod="pad"
       id="linearGradient110">
      <stop
         style="stop-opacity:1;stop-color:#9b191d"
         offset="0"
         id="stop104" />
      <stop
         style="stop-opacity:1;stop-color:#9b191d"
         offset="0.01"
         id="stop106" />
      <stop
         style="stop-opacity:1;stop-color:#650102"
         offset="1"
         id="stop108" />
    </linearGradient>
    <linearGradient
       x1="0"
       y1="0"
       x2="1"
       y2="0"
       gradientUnits="userSpaceOnUse"
       gradientTransform="matrix(0,-2419.1235,2419.1235,0,1718.5,2534.3228)"
       spreadMethod="pad"
       id="linearGradient132">
      <stop
         style="stop-opacity:1;stop-color:#9b191d"
         offset="0"
         id="stop126" />
      <stop
         style="stop-opacity:1;stop-color:#9b191d"
         offset="0.01"
         id="stop128" />
      <stop
         style="stop-opacity:1;stop-color:#650102"
         offset="1"
         id="stop130" />
    </linearGradient>
    <linearGradient
       x1="0"
       y1="0"
       x2="1"
       y2="0"
       gradientUnits="userSpaceOnUse"
       gradientTransform="matrix(0,-2419.1392,2419.1392,0,2131.2505,2534.3362)"
       spreadMethod="pad"
       id="linearGradient154">
      <stop
         style="stop-opacity:1;stop-color:#9b191d"
         offset="0"
         id="stop148" />
      <stop
         style="stop-opacity:1;stop-color:#9b191d"
         offset="0.01"
         id="stop150" />
      <stop
         style="stop-opacity:1;stop-color:#650102"
         offset="1"
         id="stop152" />
    </linearGradient>
    <linearGradient
       x1="0"
       y1="0"
       x2="1"
       y2="0"
       gradientUnits="userSpaceOnUse"
       gradientTransform="matrix(0,-2419.1392,2419.1392,0,762.59937,2534.3362)"
       spreadMethod="pad"
       id="linearGradient176">
      <stop
         style="stop-opacity:1;stop-color:#9b191d"
         offset="0"
         id="stop170" />
      <stop
         style="stop-opacity:1;stop-color:#9b191d"
         offset="0.01"
         id="stop172" />
      <stop
         style="stop-opacity:1;stop-color:#650102"
         offset="1"
         id="stop174" />
    </linearGradient>
    <clipPath
       clipPathUnits="userSpaceOnUse"
       id="clipPath186">
      <path
         d="M 0,3437 H 3437 V 0 H 0 Z"
         id="path184" />
    </clipPath>
  </defs>
  <sodipodi:namedview
     id="namedview4"
     pagecolor="#ffffff"
     bordercolor="#000000"
     borderopacity="0.25"
     inkscape:showpageshadow="2"
     inkscape:pageopacity="0.0"
     inkscape:pagecheckerboard="0"
     inkscape:deskcolor="#d1d1d1" />
  <g
     id="g8"
     inkscape:groupmode="layer"
     inkscape:label="SUMA_CRNA"
     transform="matrix(1.3333333,0,0,-1.3333333,0,4582.6667)">
    <g
       id="g10">
      <g
         id="g12"
         clip-path="url(#clipPath16)">
        <g
           id="g18"
           transform="translate(2063,2992.6001)">
          <path
             d="m 0,0 c -1.5,1.5 -336.1,336.5 -340.3,340.4 l -4.5,4.3 -171.8,-171.9 C -611.2,78.1 -688.9,0.3 -689.2,0 c -0.3,-0.5 154.6,-0.9 344.6,-0.9 190,0 344.9,0.3 344.6,0.9 m -1277.5,-1925.2 c 9.1,9.3 34.4,35.4 56.1,58.1 37.8,39.2 63.6,65.9 86,88.9 5.7,5.8 28.5,29.6 50.7,52.8 22.2,23 46.3,48 53.3,55.2 7,7.2 25.6,26.5 41.3,42.8 15.6,16.5 34.2,35.8 41.3,43 7,7.2 31.5,32.3 54.2,55.9 22.7,23.6 45.7,47.5 51.2,53.3 5.5,5.7 23.7,24.6 40.4,42 16.8,17.4 36.3,37.7 43.3,44.9 24.1,24.6 93.9,97.1 101.8,105.7 l 7.9,8.6 -6.2,6.9 c -5.8,6.5 -71.4,74.6 -98.3,102.3 -7,7.2 -25.3,26.1 -40.4,42 -15.1,15.8 -34,35.4 -42.1,43.7 -8.1,8.3 -32.3,33.5 -54.2,56.2 -21.7,22.5 -46.4,48.1 -55,56.7 -8.4,8.8 -28.2,29.1 -43.7,45.2 -15.3,16.3 -33.5,35.2 -40.4,42.1 -6.7,6.9 -29.9,31.1 -51.8,53.6 -21.7,22.5 -44.9,46.6 -51.6,53.5 -6.5,6.9 -19.4,20.1 -28.4,29.4 -54.2,56.4 -97.8,101.4 -114,118.1 l -18.4,18.9 -13.8,-13.6 c -147,-146.1 -654,-654.6 -653.9,-655.4 0.5,-1.7 666.4,-667.6 667.5,-667.6 0.5,0 8.3,7.6 17.2,16.8 M 868.3,-1680 c 222.7,222.5 404.7,405.3 404.7,405.9 0,0.7 -182.1,183.5 -404.7,405.9 L 463.6,-463.5 H -168.1 -800 l 16.2,-16.8 c 17.2,-17.7 34,-35.1 65.7,-67.4 10.7,-10.8 43.5,-44.5 72.7,-74.6 29.4,-30.3 68.8,-70.8 87.7,-90.3 18.9,-19.4 43.3,-44.5 54.2,-55.7 10.8,-11.3 27.5,-28.4 37,-38 9.5,-9.6 40.7,-41.8 69.6,-71.5 28.9,-29.7 59,-60.9 67.1,-68.9 8.1,-8.3 32.5,-33.4 54.199,-55.9 21.801,-22.4 46.901,-48.3 55.901,-57.4 14.8,-15 95.099,-97.7 143.599,-147.5 10.5,-10.8 26.801,-27.5 36.601,-37.3 22.399,-22.7 22.5,-23.7 6.399,-41.1 -2.799,-2.9 -11,-11.9 -18.099,-19.801 -7,-7.899 -15.1,-16.799 -18.1,-19.799 -2.801,-2.901 -9.801,-10.8 -15.5,-17.401 -5.801,-6.699 -12.9,-14.399 -15.6,-17.199 -2.8,-2.9 -10.8,-11.7 -17.9,-19.601 -7,-7.899 -13.801,-15.299 -14.6,-16.299 -1,-1 -8.3,-9.3 -16.3,-18.201 -15.3,-17 -40.901,-43.799 -73.1,-76.5 -10.301,-10.699 -35.6,-36.5 -55.9,-57.399 -20.3,-21.101 -44.401,-45.7 -53.3,-54.801 -8.9,-9.099 -39.9,-40.899 -68.8,-70.699 -28.9,-29.7 -67.9,-70 -86.8,-89.4 -18.9,-19.4 -43.7,-45 -55,-56.7 -11.3,-11.7 -28.4,-29.1 -37.8,-38.7 -9.5,-9.6 -40.7,-41.8 -69.6,-71.5 -28.9,-29.7 -60.2,-62.1 -69.6,-71.7 -18.6,-18.9 -46.9,-48.3 -67.7,-69.8 l -13.1,-13.2 H -168 463.9 l 404.7,404.7 z m 185.7,-772.2 c -10.8,10.7 -51.2,51.8 -89.9,91.1 -38.7,39.4 -84.4,85.8 -101.4,103 -17.2,17.4 -75.1,76.2 -129,130.8 -54,54.5 -98.3,99.2 -98.899,99.2 -0.7,0 -30.801,-29.4 -67.2,-65.3 l -66.201,-65.2 -735.4,-0.2 h -735.5 v 5.5 c 0,6 4.8,11.2 70.5,78.4 11.9,12 45,46.3 73.9,76 28.9,29.7 67.9,69.8 86.801,89.2 18.9,19.6 43,44.2 53.299,55 10.5,10.8 27,27.9 37,37.8 10,10.1 42.101,43.2 71.4,73.2 64,65.9 87.5,90.1 109.201,112.3 8.899,9.1 39.899,41.1 68.799,70.8 28.901,29.7 59.5,61.2 67.901,69.8 16,16.3 37.5,38.3 84.199,86.7 15.101,15.6 33.4,35.1 40.4,43 7,7.9 14.401,16.2 16.3,18.1 1.901,2.1 6.5,7.2 10.301,11.3 21.1,23.7 33.199,37.1 37.8,41.8 8.099,8.4 16.3,18.4 16.3,19.9 0,0.9 -9.1,10.7 -20.1,22 -11.2,11.3 -43.8,44.7 -72.7,74.4 -28.7,29.7 -60.901,62.8 -71.401,73.4 -10.299,10.8 -26.699,27.5 -36.099,37.1 -9.5,9.6 -40.7,41.8 -69.6,71.5 -50,51.6 -66.2,68.1 -108,110.9 -10.1,10.5 -42,43.3 -70.8,72.9 -28.9,29.7 -59.8,61.6 -68.8,70.7 -8.9,9.3 -25.6,26.3 -37,38 -11.2,11.7 -35.9,37.1 -55,56.6 -18.9,19.4 -57.9,59.7 -86.8,89.4 -28.9,29.7 -62.801,64.6 -75.5,77.5 -65.7,67.1 -72.4,74.3 -72.4,80.1 v 5.7 H -234.1 501.301 l 63.599,-63.6 c 34.901,-35.1 64.101,-63.6 64.801,-63.6 0.5,0 27,25.8 58.5,57.3 31.6,31.3 131,130.3 220.9,219.9 l 163.5,163 h -1384.3 -1384.3 l 6.7,-7.2 c 9.3,-10 29.6,-31.1 47.3,-49.2 8.1,-8.3 32.5,-33.5 54.2,-56.1 41.8,-43.5 56.9,-59.1 81.3,-84.4 8.3,-8.6 32.8,-34 54.5,-56.6 21.8,-22.7 46.6,-48.3 55,-56.9 8.6,-8.8 28.2,-29.2 43.8,-45.6 15.6,-16.3 33.9,-35.2 40.4,-42 6.7,-6.7 29.9,-30.8 51.6,-53.3 21.8,-22.7 46.1,-48 54.2,-56.2 8.1,-8.3 21.1,-21.8 29.2,-30.3 7.9,-8.3 26.5,-27.5 41.3,-42.8 14.6,-15.1 44.5,-46.1 66.2,-68.6 38.7,-40.2 65.2,-67.7 86,-89.1 5.7,-5.8 28.5,-29.6 50.7,-52.8 22.2,-23 45.9,-47.5 52.4,-54.3 6.699,-6.7 25.6,-26.3 42.1,-43.7 16.5,-17.4 35.599,-37 42.099,-43.7 6.701,-6.9 30.301,-31.3 52.401,-54.3 49.3,-51.2 57.599,-59.8 78.7,-81.7 9.1,-9.5 34.899,-36.1 57.1,-59.1 22.199,-23 45.199,-46.9 51.199,-53.1 14.801,-15.5 14.6,-18.1 -1.699,-35.1 -6.9,-7.2 -30.301,-31.5 -52.1,-54 -21.7,-22.7 -46.601,-48.5 -55.4,-57.4 -17.4,-17.9 -22,-22.7 -80.5,-83.4 -21.701,-22.5 -51.6,-53.5 -66.201,-68.6 -14.799,-15.3 -33.399,-34.6 -41.299,-43 -8.1,-8.3 -20.801,-21.499 -28.4,-29.2 -7.6,-7.7 -32,-33 -54.2,-56.1 -22.2,-23.2 -46.9,-48.8 -55,-57.1 -8.101,-8.3 -20.5,-21.1 -27.5,-28.4 -66,-68.8 -99.201,-103.2 -120.5,-125 -13.8,-14.3 -32.3,-33.5 -41.3,-42.8 -8.801,-9.3 -22,-22.9 -29.1,-30.3 -7,-7.2 -31.1,-32.2 -53.301,-55.2 -22.199,-23 -46.599,-48.3 -54.199,-56.2 -16.301,-16.7 -27.9,-28.7 -81.701,-84.8 -22.199,-23 -46.6,-48.3 -54.199,-55.9 -7.6,-7.7 -26.1,-27 -41.301,-42.8 -15.1,-15.8 -33.399,-34.7 -40.399,-42.1 -7,-7.2 -31.5,-32.5 -54.201,-56.1 -22.699,-23.601 -47.099,-48.8 -54.199,-56.2 -18.9,-19.4 -37.701,-39 -45.6,-47.5 l -6.701,-7.2 H -312 1072.601 l -15.868,17.267 z m -1225.2,-267.4 171.4,171.4 -171.8,0.5 c -94.6,0.2 -249.7,0.2 -344.7,0 l -173,-0.5 172.3,-172.3 c 94.7,-94.7 172.6,-171.9 173.1,-171.4 0.5,0.3 78.2,77.9 172.6,172.3 z M -1858.729,-9.141 c 0,0 239.229,1.241 531.329,1.241 h 530.8 l 226.1,226.1 226.1,226.1 226.1,-226.1 226.1,-226.1 566.4,-0.3 566.2,-0.5 -63.3,-63.4 c -34.9,-34.7 -162.5,-161.8 -283.5,-282.3 l -220.1,-219 350.2,-350.2 350.4,-350.4 -348,-348.2 -348.2,-348.2 57.9,-59 c 31.8,-32.5 76.5,-77.7 99.2,-100.6 22.699,-23 86.5,-87.9 141.8,-143.9 55.399,-56.2 114.2,-116.1 130.8,-132.7 16.5,-16.699 52.8,-53.5 80.5,-81.699 l 50.4,-51.201 -565.5,-0.5 -565.301,-0.299 -226.099,-226.101 -226.1,-226.1 -226.1,226.1 v -0.1 l -226.1,226.1 h -530.8 c -292.1,0 -530.9,1.2 -530.9,1.2 0,0 2.012,2.333 8.3,9.1 4.5,4.5 15,15.301 23.6,24.2 8.4,8.9 27,28.2 41.3,42.8 14.1,14.801 44.4,46.1 67.1,69.6 22.7,23.6 52.4,54.5 66.2,68.8 13.8,14.1 32.8,33.901 42.1,43.7 9.5,9.8 22.7,23.4 29.2,30.1 35.6,36.5 91.3,94.4 92.2,95.9 0.5,0.9 13.2,14.1 28.4,29.4 15,15.301 45.6,46.801 67.7,70 22.2,23 43.3,44.9 46.9,48.7 3.4,3.601 6.4,7.7 6.4,7.7 0,0 -162.8,164 -361.9,363.1 l -361.9,361.9 361.9,361.9 c 199.1,199.1 361.9,363.1 361.9,363.1 l -50.7,53.8 c -21.7,22.7 -51.9,53.8 -66.9,69.1 -15.1,15.3 -27.9,28.7 -28.4,29.6 -0.9,1.4 -60.2,62.9 -95.6,99.2 -6.5,6.7 -19.4,19.9 -28.4,29.2 -8.9,9.5 -27.5,28.7 -41.3,42.8 -13.8,14.3 -43.5,45.2 -66.2,68.8 -22.7,23.6 -52.4,54.5 -66.2,68.8 -13.8,14.1 -32.7,33.9 -42.1,43.7 z"
             style="fill:#ffffff;fill-opacity:1;fill-rule:nonzero;stroke:none"
             id="path20" />
        </g>
        <g
           id="g22"
           transform="translate(1358.5,2987.3999)">
          <path
             d="m 0,0 c 0.3,0.3 81.5,81.7 180.4,180.5 l 179.498,179.699 c 10e-4,10e-4 0.002,10e-4 0.003,0 L 366.9,353.3 C 374.299,345.902 720.1,0.001 720.1,0.001 l 10e-4,-0.002 c 0,0 -161.75,-0.899 -360.001,-0.899"
             style="fill:#ae1f23;fill-opacity:1;fill-rule:nonzero;stroke:none"
             id="path24" />
        </g>
      </g>
    </g>
    <g
       id="g26">
      <g
         id="g28">
        <g
           id="g34">
          <g
             id="g36">
            <path
               d="M 1889.599,2534.3 H 1247.6 l 19.6,-20.101 c 10.8,-11.099 27.3,-28.199 36.8,-37.8 v 0 c 9.401,-9.799 25.8,-26.399 36.1,-37.099 v 0 c 10.5,-10.7 43,-44 72.201,-74.1 v 0 c 29.399,-30.3 68.799,-70.9 87.699,-90.301 v 0 c 19,-19.399 43.4,-44.499 54.2,-55.699 v 0 c 10.9,-11.3 27.5,-28.4 37,-38 v 0 c 14.7,-15 96.8,-99.4 133.3,-137.2 v 0 l -0.1,-0.1 c 6.199,-6.2 11.5,-10.7 12.001,-9.8 v 0 c 0.699,0.9 251.699,1.7 647,1.9 v 0 l 645.999,0.5 -248.801,249 -248.799,248.8 z"
               style="fill:url(#linearGradient44);stroke:none"
               id="path46" />
          </g>
        </g>
      </g>
    </g>
    <g
       id="g48">
      <g
         id="g50">
        <g
           id="g56">
          <g
             id="g58">
            <path
               d="m 752.2,2381.4 c -20,-20 -336.7,-336.9 -337.7,-337.9 v 0 l -0.2,-0.099 c -0.3,-0.601 156.1,-0.901 348,-0.901 v 0 H 1111 l -14.4,15 c -7.9,8.2 -17.4,18 -21,21.801 v 0 c -13.2,13.899 -79.701,82.899 -92.301,95.599 v 0 c -6.999,7.2 -26.599,27.4 -43.299,44.901 v 0 c -16.7,17.399 -34.9,36.299 -40.4,41.999 v 0 c -5.5,5.9 -27.7,28.9 -49.5,51.6 v 0 c -21.6,22.5 -49,50.7 -60.5,62.6 v 0 l -21.1,21.7 z"
               style="fill:url(#linearGradient66);stroke:none"
               id="path68" />
          </g>
        </g>
      </g>
    </g>
    <g
       id="g70">
      <g
         id="g72">
        <g
           id="g78">
          <g
             id="g80">
            <path
               d="M 762.2,2047.8 H 418.7 L 254.5,1883.6 C 164.201,1793.3 90.3,1718.5 90.3,1718.5 v 0 c 0,0 77.2,-78.1 171.4,-172.5 v 0 l -0.1,-0.1 171.601,-171.4 329.598,0.299 329.801,0.501 19.8,20.299 c 10.8,11.201 38.3,39.701 61,63.301 v 0 c 22.7,23.4 45.7,47.3 51.2,53.1 v 0 c 5.5,5.701 23.7,24.6 40.4,42 v 0 c 16.801,17.4 36.3,37.7 43.3,44.9 v 0 c 17.7,18 91.501,94.5 104.4,108.3 v 0 l 10.699,11.2 -8.899,9.5 c -9.8,10.7 -81,84.4 -100.9,104.901 v 0 c -7,7.299 -25.3,26.199 -40.4,41.999 v 0 c -15.1,15.8 -34,35.4 -42.1,43.7 v 0 c -8.1,8.2 -32.4,33.5 -54.2,56.2 v 0 c -21.7,22.5 -46.6,48.3 -55.4,57.099 v 0 l -15.8,16.001 z"
               style="fill:url(#linearGradient88);stroke:none"
               id="path90" />
          </g>
        </g>
      </g>
    </g>
    <g
       id="g92">
      <g
         id="g94">
        <g
           id="g100">
          <g
             id="g102">
            <path
               d="m 2378.5,2041 c -469.4,0 -647,-0.5 -647,-1.9 v 0 c 0,-1.1 2.599,-4.5 5.7,-7.6 v 0 c 2.9,-3.1 23.3,-24 45,-46.4 v 0 c 21.899,-22.5 47,-48.5 55.9,-57.6 v 0 c 14.8,-14.9 95.1,-97.599 143.6,-147.5 v 0 c 10.5,-10.8 27.162,-27.15 36.599,-37.299 v 0 c 9.46,-10.174 16.493,-18.461 16.493,-18.461 v 0 L 2024.7,1711.9 c -2.545,-3.112 -11.1,-11.9 -18.101,-19.8 v 0 c -7.099,-7.899 -15.199,-16.899 -18.099,-19.8 v 0 c -2.8,-3 -9.8,-10.9 -15.5,-17.4 v 0 c -5.8,-6.699 -12.8,-14.4 -15.6,-17.2 v 0 c -2.801,-2.9 -10.9,-11.7 -17.9,-19.601 v 0 c -7,-7.899 -13.7,-15.299 -14.6,-16.299 v 0 c -1,-1.001 -8.2,-9.3 -16.301,-18.201 v 0 c -15.3,-17 -40.899,-43.799 -73.099,-76.5 v 0 c -10.3,-10.699 -35.6,-36.499 -55.9,-57.599 v 0 c -20.3,-21 -43.4,-44.6 -51.1,-52.3 v 0 0.2 l -14.1,-13.9 649.4,0.299 649.4,0.501 167.099,167.1 c 92.001,91.8 166.301,168.001 166.301,168.001 v 0 c 0,0 -72.9,73.199 -161.1,161.399 v 0 L 3025.3,2041 Z"
               style="fill:url(#linearGradient110);stroke:none"
               id="path112" />
          </g>
        </g>
      </g>
    </g>
    <g
       id="g114">
      <g
         id="g116">
        <g
           id="g122">
          <g
             id="g124">
            <path
               d="m 1539,450.1 -180.699,-0.501 180,-180 H 1538.2 C 1637.3,170.5 1719.1,90.4 1719.1,90.4 v 0 c 0,0 81.7,81.5 180.4,180 v 0 l 179.2,179.199 -179.5,0.501 c -49.35,0.1 -114.55,0.15 -179.838,0.15 v 0 c -65.287,0 -130.662,-0.05 -180.362,-0.15"
               style="fill:url(#linearGradient132);stroke:none"
               id="path134" />
          </g>
        </g>
      </g>
    </g>
    <g
       id="g136">
      <g
         id="g138">
        <g
           id="g144">
          <g
             id="g146">
            <path
               d="m 1720.599,1389.299 -5.299,-5.699 c -10.3,-10.699 -110.6,-113.8 -144.8,-148.9 v 0 c -18.9,-19.4 -43.699,-45 -55,-56.7 v 0 c -11.299,-11.7 -28.3,-29.1 -37.8,-38.7 v 0 c -9.4,-9.6 -40.7,-41.8 -69.6,-71.5 v 0 c -28.9,-29.7 -60.1,-62.099 -69.6,-71.701 v 0 c -9.4,-9.799 -25.6,-26.3 -36.1,-37 v 0 C 1292.1,948.4 1275.4,931.4 1265.6,921.1 v 0 h -0.2 l -18.2,-18.401 h 642.201 642.399 l 241.4,241.601 c 132.899,132.7 241.8,242.299 242.1,243.299 v 0 c 0.5,1.201 -203.1,1.7 -647,1.7 v 0 z"
               style="fill:url(#linearGradient154);stroke:none"
               id="path156" />
          </g>
        </g>
      </g>
    </g>
    <g
       id="g158">
      <g
         id="g160">
        <g
           id="g166">
          <g
             id="g168">
            <path
               d="m 430.2,1378.901 c 0.3,-1.001 76.3,-77.501 169,-170.201 v 0 c 92.7,-92.7 169.4,-168.5 169.4,-168.5 v 0 c 0,0 14.735,14.615 31.8,32.2 v 0 c 17.1,17.5 37.5,38.6 45.6,46.899 v 0 c 8.1,8.3 28.6,29.601 45.6,47.301 v 0 c 17.1,17.7 35.6,37 41.299,42.8 v 0 c 5.701,5.8 28.501,29.4 50.701,52.6 v 0 c 22.199,23.099 46.6,48.2 54,55.901 v 0 c 23.2,23.5 56.9,59.5 57.4,61.199 v 0 c 0.3,0.801 -124.5,1.5 -332.4,1.5 v 0 c -228,0 -332.899,-0.5 -332.4,-1.699"
               style="fill:url(#linearGradient176);stroke:none"
               id="path178" />
          </g>
        </g>
      </g>
    </g>
    <g
       id="g180">
      <g
         id="g182"
         clip-path="url(#clipPath186)">
        <g
           id="g188"
           transform="translate(364.5,529)">
          <path
             d="m 0,0 c 15.1,16 32.2,33.5 49.9,51.8 7,7.4 31.5,32.7 54.2,56.2 22.7,23.6 47.1,48.8 54.2,56.1 7,7.4 25.3,26.3 40.4,42.1 15.1,15.8 33.7,35.101 41.3,42.8 7.6,7.601 32,32.801 54.2,55.9 53.8,56.1 65.3,68.1 81.7,84.8 7.6,7.9 32,33.2 54.2,56.2 22.2,23 46.3,48 53.3,55.2 7,7.4 20.3,21 29.1,30.3 8.9,9.3 27.5,28.5 41.3,42.8 21.3,21.8 54.5,56.2 120.5,125 7,7.2 19.4,20.101 27.5,28.4 8.1,8.3 32.8,33.9 55,57.1 22.2,23 46.6,48.3 54.2,56.101 7.6,7.699 20.3,21 28.4,29.199 7.9,8.4 26.5,27.7 41.3,43 14.6,15.101 44.5,46.101 66.2,68.601 58.5,60.699 63.1,65.5 80.5,83.399 8.8,8.9 33.7,34.7 55.4,57.4 21.8,22.5 45.2,46.8 52.1,54 6.7,7 12.4,13.2 12.4,13.2 0,0 -4.8,5.3 -10.7,11.5 -6,6.2 -29.1,30.1 -51.2,53.1 -22.2,23 -48,49.7 -57.1,59.1 -21.1,21.8 -29.4,30.4 -78.7,81.7 -22.2,23 -45.7,47.5 -52.4,54.3 -6.5,6.7 -25.6,26.3 -42.1,43.7 -16.5,17.4 -35.4,37 -42.1,43.7 -6.5,6.9 -30.3,31.3 -52.4,54.3 -22.2,23.2 -45,46.9 -50.7,52.8 -20.8,21.3 -47.3,48.8 -86,89.1 -21.7,22.5 -51.6,53.5 -66.2,68.6 -14.8,15.3 -33.4,34.6 -41.3,42.8 -8.1,8.4 -21.1,22 -29.2,30.3 -8.1,8.3 -32.3,33.5 -54.2,56.2 -21.7,22.5 -44.9,46.6 -51.6,53.3 -6.5,6.7 -24.8,25.6 -40.4,42 -15.6,16.3 -35.2,36.8 -43.8,45.6 -8.4,8.6 -33.2,34.2 -55,56.9 -21.7,22.5 -46.3,48 -54.5,56.6 -24.4,25.3 -39.5,40.9 -81.3,84.4 -21.7,22.5 -46.1,47.8 -54.2,56.1 -16.7,17 -33.2,34 -51.6,53.5 l -12.6,13.2 h 1399.601 1399.7 l -168.7,-168.2 C 2525.9,2131.9 2422.9,2029.4 2389.9,1996.6 c -33,-33 -61,-59.8 -61,-59.8 0,0 -30.9,29.7 -67.4,66.2 l -66.199,66.2 -730.2,-0.3 -730.2,-0.5 24.599,-25.4 c 13.401,-14.1 34.901,-36.1 47.601,-49.2 12.7,-12.9 46.6,-47.8 75.5,-77.5 28.899,-29.7 67.899,-70 86.8,-89.4 19.099,-19.4 43.8,-44.9 55,-56.6 11.3,-11.699 28,-28.699 37,-38 8.9,-9.1 39.9,-40.9 68.8,-70.699 28.9,-29.601 60.7,-62.401 70.8,-72.901 41.8,-42.8 57.9,-59.3 108,-110.9 28.9,-29.699 60.2,-61.9 69.6,-71.5 9.5,-9.6 25.799,-26.3 36.1,-37.1 10.5,-10.7 42.6,-43.7 71.4,-73.4 28.9,-29.699 60.5,-62.199 70.5,-72.199 9.799,-10 20.299,-20.801 22.9,-23.901 l 5,-5.5 -8.3,-10 c -4.6,-5.3 -10.7,-12.2 -13.6,-15.099 -4.5,-4.601 -12.6,-13.401 -37.8,-41.8 -3.8,-4.101 -8.401,-9.301 -10.3,-11.301 -1.9,-1.899 -9.301,-10.1 -16.301,-18.1 -7,-7.9 -25.3,-27.299 -40.399,-43 -46.801,-48.299 -68.301,-70.299 -84.2,-86.7 -8.401,-8.599 -39,-40.099 -67.9,-69.8 -28.9,-29.7 -59.801,-61.7 -68.801,-70.799 -21.699,-22.201 -45.199,-46.401 -109.199,-112.3 -29.201,-30.101 -61.4,-63.101 -71.4,-73.2 -10,-10 -26.5,-27 -37,-37.8 C 1009,593.5 984.9,568.9 966,549.301 947.101,529.9 908.101,489.801 879.201,460.101 850.3,430.4 820.201,399.2 812.101,391 804,382.7 787.9,366.101 776,354 764.101,341.801 749.9,327.2 744.201,321.2 l -10.1,-10.7 H 1464.7 l 730.7,0.2 68.8,67.7 c 37.8,37.3 69.8,67.9 69.8,67.9 0,0 46.101,-45.9 101.4,-101.8 55.201,-56.1 114.3,-116.1 131.5,-133.4 17,-17.2 62.8,-63.6 101.401,-103 38.699,-39.4 81.3,-82.7 94.899,-96.3 l 24.601,-24.6 H 1387.9 L -12,-12.8 0.6,0.4 Z"
             style="fill:#000000;fill-opacity:1;fill-rule:nonzero;stroke:none"
             id="path190" />
        </g>
      </g>
    </g>
  </g>
</svg>
